<svg width="24" height="24" viewBox="0 0 24 24" fill="none" xmlns="http://www.w3.org/2000/svg">
<path d="M12 2C5.91838 2 1 7.19766 1 13.6C1 16.6967 2.14473 19.6092 4.2233 21.8009C4.34911 21.9337 4.51411 22 4.67903 22C4.84398 22 5.00894 21.9337 5.1348 21.8009L7.08704 19.742C7.33871 19.4766 7.33871 19.0463 7.08704 18.7808C6.53519 18.1989 5.05995 16.4681 5.05054 13.5995C5.05079 9.52378 8.18923 6.27143 12 6.27143C15.8629 6.27143 18.9492 9.57834 18.9495 13.5995C18.9439 15.3058 18.4098 16.869 17.4535 18.1409C16.4601 16.5162 14.2425 12.9444 13.432 12.09C12.634 11.2483 11.3516 11.2635 10.5679 12.09C9.76829 12.9331 9.78582 14.2854 10.5679 15.11C11.5363 16.1315 16.1852 19.2723 16.9639 19.7958L18.8652 21.8009C18.991 21.9336 19.156 22 19.3209 22C19.4859 22 19.6508 21.9337 19.7767 21.8009C21.8553 19.6091 23 16.6967 23 13.6C23 7.18593 18.0702 2 12 2ZM5.73722 19.243L4.69377 20.3435C3.27984 18.6452 2.44929 16.5326 2.30999 14.2797H3.78622C3.92067 16.1178 4.59906 17.8428 5.73722 19.243ZM3.78618 12.9203H2.30999C2.44925 10.6674 3.27979 8.55473 4.69377 6.85646L5.73722 7.95688C4.59799 9.35785 3.92041 11.0818 3.78618 12.9203ZM11.3555 4.93811C9.61201 5.07967 7.97705 5.79438 6.64867 6.99562L5.6053 5.89525C7.2159 4.40419 9.21923 3.5283 11.3555 3.38144V4.93811ZM11.4795 14.1488C11.19 13.8436 11.1941 13.352 11.4794 13.0512C11.7666 12.7483 12.2336 12.7486 12.5206 13.0512C12.5206 13.0512 12.5206 13.0512 12.5206 13.0512C12.9829 13.5386 14.1286 15.2909 15.1666 16.9393C13.6035 15.8447 11.9417 14.6364 11.4795 14.1488ZM12.6445 4.93811V3.38144C14.7808 3.5283 16.7841 4.40419 18.3947 5.89529L17.3513 6.99566C16.0229 5.79438 14.388 5.07967 12.6445 4.93811ZM18.2628 7.95688L19.3062 6.85646C20.7202 8.55473 21.5507 10.6674 21.69 12.9203H20.2139C20.0796 11.0818 19.402 9.35785 18.2628 7.95688ZM19.3062 20.3435L18.2628 19.243C19.4009 17.8428 20.0793 16.1178 20.2138 14.2797H21.69C21.5507 16.5326 20.7202 18.6452 19.3062 20.3435Z" fill="url(#paint0_linear_10700_5910)"/>
<defs>
<linearGradient id="paint0_linear_10700_5910" x1="1" y1="4.61648" x2="23.3337" y2="6.55825" gradientUnits="userSpaceOnUse">
<stop stop-color="#3DE4ED"/>
<stop offset="1" stop-color="#3DEDB8"/>
</linearGradient>
</defs>
</svg>
