<svg width="20" height="20" viewBox="0 0 20 20" fill="none" xmlns="http://www.w3.org/2000/svg">
<g clip-path="url(#clip0_11669_2227)">
<path d="M8.01166 19.9527C8.27603 20.0658 8.58423 19.9706 8.73806 19.7261L15.7693 8.5543C15.8829 8.37375 15.8894 8.14571 15.7863 7.95895C15.6832 7.77219 15.4867 7.65626 15.2734 7.65626H10.5796L12.3259 0.729226C12.3964 0.449813 12.2532 0.160674 11.9883 0.0473154C11.7233 -0.0660433 11.4153 0.0300499 11.2619 0.273916L4.23066 11.4457C4.11703 11.6263 4.11051 11.8543 4.21363 12.0411C4.31676 12.2278 4.5132 12.3438 4.72656 12.3438H9.42028L7.674 19.2708C7.60357 19.5502 7.74674 19.8393 8.01166 19.9527ZM5.78769 11.1719L10.2872 4.02276L9.25954 8.09903C9.2154 8.27418 9.2545 8.45988 9.36552 8.60238C9.47653 8.74484 9.64708 8.82816 9.8277 8.82816H14.2123L9.71282 15.9773L10.7404 11.901C10.7846 11.7259 10.7455 11.5402 10.6345 11.3977C10.5234 11.2552 10.3529 11.1719 10.1723 11.1719H5.78769Z" fill="#737373"/>
</g>
<defs>
<clipPath id="clip0_11669_2227">
<rect width="20" height="20" fill="white"/>
</clipPath>
</defs>
</svg>
