<svg width="25" height="24" viewBox="0 0 25 24" fill="none" xmlns="http://www.w3.org/2000/svg">
<path d="M13.4364 13.8748C9.54326 13.8748 6.37479 10.7625 6.37479 6.93719C6.37479 3.11192 9.54232 0 13.4364 0C17.3305 0 20.4976 3.11192 20.4976 6.93719C20.4976 10.7625 17.3301 13.8748 13.4364 13.8748ZM13.4364 0.691231C9.9307 0.691231 7.07837 3.49301 7.07837 6.93719C7.07837 10.3814 9.9307 13.1836 13.4364 13.1836C16.9422 13.1836 19.794 10.3814 19.794 6.93719C19.794 3.49301 16.9422 0.691231 13.4364 0.691231Z" fill="#1F1F1F"/>
<path d="M13.4364 12.397C12.3373 12.397 11.2628 12.0768 10.3489 11.4769C9.43502 10.8769 8.72272 10.0242 8.30209 9.02659C7.88147 8.02894 7.77141 6.93116 7.98584 5.87206C8.20028 4.81297 8.72957 3.84012 9.50678 3.07656C10.284 2.31299 11.2742 1.793 12.3522 1.58233C13.4303 1.37166 14.5477 1.47978 15.5632 1.89302C16.5786 2.30626 17.4466 3.00605 18.0572 3.90391C18.6679 4.80177 18.9938 5.85737 18.9938 6.93722C18.9922 8.38476 18.4062 9.77256 17.3643 10.7961C16.3225 11.8197 14.9099 12.3954 13.4364 12.397ZM13.4364 1.93639C12.4301 1.93639 11.4464 2.22953 10.6097 2.77875C9.77298 3.32796 9.1208 4.10858 8.73562 5.02192C8.35045 5.93526 8.24957 6.94029 8.44575 7.90995C8.64193 8.87961 9.12636 9.77034 9.83779 10.4695C10.5492 11.1687 11.4557 11.645 12.4426 11.8381C13.4295 12.0312 14.4526 11.9324 15.3824 11.5544C16.3122 11.1763 17.107 10.5358 17.6663 9.71399C18.2256 8.89216 18.5244 7.92584 18.5248 6.93722C18.5233 5.61185 17.9867 4.34119 17.0328 3.40402C16.0789 2.46685 14.7855 1.9397 13.4364 1.93824V1.93639Z" fill="#1F1F1F"/>
<path d="M15.8267 6.53908C15.5281 6.53953 15.236 6.45294 14.9875 6.29025C14.7389 6.12756 14.5451 5.89609 14.4305 5.62514C14.3159 5.35418 14.2857 5.05593 14.3437 4.7681C14.4017 4.48028 14.5454 4.21584 14.7564 4.00823C14.9675 3.80063 15.2365 3.6592 15.5293 3.60185C15.8222 3.5445 16.1259 3.57379 16.4018 3.68604C16.6777 3.79828 16.9136 3.98841 17.0795 4.23239C17.2454 4.47636 17.3339 4.76321 17.3338 5.05662C17.3333 5.44933 17.1744 5.82583 16.892 6.10369C16.6095 6.38155 16.2265 6.5381 15.8267 6.53908ZM15.8267 4.03452C15.6209 4.03406 15.4195 4.09363 15.2481 4.20566C15.0767 4.31769 14.943 4.47716 14.8639 4.66388C14.7848 4.8506 14.7639 5.05619 14.8037 5.25461C14.8436 5.45303 14.9425 5.63536 15.0879 5.77853C15.2333 5.92171 15.4187 6.01928 15.6206 6.05891C15.8224 6.09853 16.0317 6.07843 16.222 6.00114C16.4122 5.92384 16.5748 5.79284 16.6893 5.62471C16.8037 5.45657 16.8648 5.25887 16.8648 5.05662C16.8644 4.78606 16.755 4.52664 16.5605 4.3351C16.3659 4.14356 16.1021 4.03549 15.8267 4.03452Z" fill="#1F1F1F"/>
<path d="M16.2482 5.12214C16.2859 4.89326 16.1276 4.67771 15.8946 4.64068C15.6616 4.60365 15.4422 4.75917 15.4045 4.98805C15.3668 5.21692 15.5251 5.43248 15.7581 5.46951C15.9911 5.50654 16.2105 5.35102 16.2482 5.12214Z" fill="#1F1F1F"/>
<path d="M11.2863 6.53908C10.9877 6.53908 10.6959 6.4521 10.4476 6.28913C10.1994 6.12617 10.0059 5.89454 9.89171 5.62354C9.77748 5.35255 9.74761 5.05436 9.80589 4.76669C9.86417 4.47902 10.008 4.21479 10.2191 4.00741C10.4303 3.80004 10.6993 3.65885 10.9921 3.60168C11.2849 3.54452 11.5884 3.57394 11.8642 3.68625C12.14 3.79856 12.3757 3.98871 12.5415 4.23263C12.7073 4.47656 12.7958 4.76331 12.7957 5.05662C12.7953 5.44976 12.6362 5.82669 12.3532 6.10464C12.0702 6.38259 11.6864 6.53884 11.2863 6.53908ZM11.2863 4.03452C11.0805 4.03452 10.8794 4.09447 10.7083 4.20678C10.5372 4.31909 10.4038 4.47872 10.3251 4.66548C10.2464 4.85225 10.2258 5.05775 10.2659 5.25602C10.306 5.45429 10.4051 5.63641 10.5506 5.77936C10.6961 5.9223 10.8815 6.01964 11.0833 6.05908C11.2851 6.09852 11.4943 6.07828 11.6844 6.00092C11.8745 5.92356 12.037 5.79255 12.1513 5.62447C12.2656 5.45639 12.3266 5.25878 12.3266 5.05662C12.3264 4.78562 12.2167 4.52578 12.0217 4.33416C11.8266 4.14253 11.5621 4.03477 11.2863 4.03452Z" fill="#1F1F1F"/>
<path d="M11.707 5.13244C11.7497 4.90442 11.5962 4.68554 11.3641 4.64357C11.132 4.6016 10.9092 4.75242 10.8665 4.98044C10.8238 5.20846 10.9773 5.42734 11.2094 5.46931C11.4415 5.51128 11.6643 5.36046 11.707 5.13244Z" fill="#1F1F1F"/>
<path d="M13.5678 11.7251C13.2692 11.7251 12.9774 11.6381 12.7291 11.4752C12.4809 11.3122 12.2874 11.0806 12.1732 10.8096C12.059 10.5386 12.0291 10.2404 12.0874 9.95273C12.1457 9.66506 12.2895 9.40083 12.5006 9.19345C12.7118 8.98608 12.9808 8.84488 13.2736 8.78772C13.5664 8.73055 13.8699 8.75998 14.1457 8.87229C14.4215 8.9846 14.6572 9.17474 14.823 9.41867C14.9888 9.66259 15.0773 9.94934 15.0772 10.2427C15.0768 10.6358 14.9177 11.0127 14.6347 11.2907C14.3517 11.5686 13.9679 11.7249 13.5678 11.7251ZM13.5678 9.22056C13.362 9.22056 13.1609 9.28051 12.9898 9.39282C12.8187 9.50513 12.6853 9.66475 12.6066 9.85152C12.5279 10.0383 12.5073 10.2438 12.5474 10.4421C12.5875 10.6403 12.6866 10.8225 12.8321 10.9654C12.9776 11.1083 13.163 11.2057 13.3648 11.2451C13.5666 11.2846 13.7758 11.2643 13.9659 11.187C14.156 11.1096 14.3185 10.9786 14.4328 10.8105C14.5471 10.6424 14.6081 10.4448 14.6081 10.2427C14.608 9.97158 14.4984 9.71163 14.3033 9.5199C14.1082 9.32817 13.8437 9.22034 13.5678 9.2201V9.22056Z" fill="#1F1F1F"/>
<path d="M13.5678 10.662C13.8038 10.662 13.9951 10.474 13.9951 10.2422C13.9951 10.0103 13.8038 9.82239 13.5678 9.82239C13.3318 9.82239 13.1405 10.0103 13.1405 10.2422C13.1405 10.474 13.3318 10.662 13.5678 10.662Z" fill="#1F1F1F"/>
<path d="M16.8296 9.6358C16.6315 9.63589 16.4379 9.57826 16.2731 9.47021C16.1084 9.36216 15.9799 9.20853 15.9041 9.02876C15.8282 8.849 15.8083 8.65117 15.8469 8.46029C15.8855 8.26941 15.9808 8.09406 16.1208 7.95642C16.2609 7.81878 16.4393 7.72503 16.6336 7.68703C16.8279 7.64903 17.0292 7.66849 17.2123 7.74294C17.3953 7.81739 17.5517 7.94349 17.6618 8.10529C17.7718 8.2671 17.8306 8.45734 17.8306 8.65195C17.8303 8.91272 17.7248 9.16276 17.5371 9.3472C17.3495 9.53164 17.095 9.63543 16.8296 9.6358ZM16.8296 8.12937C16.7243 8.12928 16.6213 8.15989 16.5337 8.21733C16.446 8.27476 16.3777 8.35644 16.3374 8.45204C16.297 8.54763 16.2864 8.65283 16.307 8.75433C16.3275 8.85583 16.3782 8.94907 16.4527 9.02224C16.5272 9.09542 16.6221 9.14524 16.7254 9.16541C16.8287 9.18557 16.9358 9.17518 17.0331 9.13553C17.1304 9.09589 17.2135 9.02878 17.272 8.9427C17.3304 8.85661 17.3616 8.75543 17.3615 8.65195C17.361 8.51363 17.3048 8.38113 17.2051 8.28346C17.1054 8.18578 16.9704 8.13088 16.8296 8.13075V8.12937Z" fill="#1F1F1F"/>
<path d="M17.0866 8.65195C17.0866 8.70189 17.0716 8.75071 17.0433 8.79224C17.0151 8.83377 16.9749 8.86614 16.9279 8.88525C16.881 8.90436 16.8293 8.90937 16.7794 8.89962C16.7296 8.88988 16.6838 8.86583 16.6478 8.83051C16.6119 8.79519 16.5874 8.7502 16.5775 8.70121C16.5676 8.65223 16.5727 8.60145 16.5921 8.55531C16.6116 8.50916 16.6445 8.46972 16.6868 8.44197C16.729 8.41423 16.7787 8.39941 16.8296 8.39941C16.8978 8.39941 16.9631 8.42602 17.0113 8.47338C17.0595 8.52074 17.0866 8.58497 17.0866 8.65195Z" fill="#1F1F1F"/>
<path d="M10.2272 9.6358C10.0291 9.63589 9.83541 9.57826 9.67066 9.47021C9.50591 9.36216 9.37748 9.20853 9.30162 9.02876C9.22575 8.849 9.20585 8.65117 9.24444 8.46029C9.28302 8.26941 9.37837 8.09406 9.5184 7.95642C9.65843 7.81878 9.83687 7.72503 10.0311 7.68703C10.2254 7.64903 10.4268 7.66849 10.6098 7.74294C10.7928 7.81739 10.9493 7.94349 11.0593 8.10529C11.1694 8.2671 11.2281 8.45734 11.2281 8.65195C11.2277 8.91269 11.1222 9.16265 10.9346 9.34706C10.7469 9.53148 10.4926 9.63531 10.2272 9.6358ZM10.2272 8.12937C10.1218 8.12928 10.0188 8.15989 9.93121 8.21733C9.84358 8.27476 9.77528 8.35644 9.73492 8.45204C9.69457 8.54763 9.68399 8.65283 9.70451 8.75433C9.72504 8.85583 9.77575 8.94907 9.85024 9.02224C9.92472 9.09542 10.0196 9.14524 10.1229 9.16541C10.2263 9.18557 10.3333 9.17518 10.4306 9.13553C10.5279 9.09589 10.6111 9.02878 10.6695 8.9427C10.728 8.85661 10.7592 8.75543 10.7591 8.65195C10.7584 8.51367 10.7022 8.38124 10.6025 8.28359C10.5028 8.18594 10.3679 8.131 10.2272 8.13075V8.12937Z" fill="#1F1F1F"/>
<path d="M10.4856 8.65195C10.4856 8.70189 10.4705 8.75071 10.4423 8.79224C10.414 8.83377 10.3739 8.86614 10.3269 8.88525C10.28 8.90436 10.2283 8.90937 10.1784 8.89962C10.1286 8.88988 10.0828 8.86583 10.0468 8.83051C10.0109 8.79519 9.98638 8.7502 9.97647 8.70121C9.96655 8.65223 9.97164 8.60145 9.99109 8.55531C10.0105 8.50916 10.0435 8.46972 10.0858 8.44197C10.128 8.41423 10.1777 8.39941 10.2286 8.39941C10.2967 8.39941 10.3621 8.42602 10.4103 8.47338C10.4585 8.52074 10.4856 8.58497 10.4856 8.65195Z" fill="#1F1F1F"/>
<path d="M17.597 22.9995H9.27544C8.13578 22.9831 7.04846 22.5267 6.24846 21.7291C5.44845 20.9315 5 19.8567 5 18.7369C5 17.6172 5.44845 16.5423 6.24846 15.7447C7.04846 14.9471 8.13578 14.4908 9.27544 14.4743H17.597C18.1721 14.466 18.7432 14.5701 19.277 14.7806C19.8108 14.9911 20.2967 15.3038 20.7064 15.7004C21.1161 16.0971 21.4415 16.5698 21.6636 17.0911C21.8856 17.6123 22 18.1718 22 18.7369C22 19.302 21.8856 19.8615 21.6636 20.3828C21.4415 20.9041 21.1161 21.3768 20.7064 21.7734C20.2967 22.1701 19.8108 22.4827 19.277 22.6932C18.7432 22.9037 18.1721 23.0078 17.597 22.9995ZM9.27544 15.1656C8.32144 15.1806 7.4117 15.5635 6.74248 16.2316C6.07325 16.8998 5.69818 17.7996 5.69818 18.7369C5.69818 19.6743 6.07325 20.5741 6.74248 21.2422C7.4117 21.9103 8.32144 22.2932 9.27544 22.3083H17.597C18.0793 22.3159 18.5583 22.2291 19.0061 22.0531C19.4539 21.877 19.8616 21.6152 20.2054 21.2828C20.5492 20.9504 20.8223 20.5541 21.0087 20.117C21.195 19.68 21.291 19.2108 21.291 18.7369C21.291 18.263 21.195 17.7939 21.0087 17.3568C20.8223 16.9197 20.5492 16.5234 20.2054 16.1911C19.8616 15.8587 19.4539 15.5968 19.0061 15.4208C18.5583 15.2447 18.0793 15.158 17.597 15.1656H9.27544Z" fill="#1F1F1F"/>
<path d="M17.5773 21.9803H9.29514C8.42636 21.9701 7.59667 21.6239 6.98597 21.0167C6.37528 20.4095 6.03281 19.5904 6.03281 18.7368C6.03281 17.8832 6.37528 17.064 6.98597 16.4568C7.59667 15.8497 8.42636 15.5035 9.29514 15.4933H17.5773C18.446 15.5035 19.2757 15.8497 19.8864 16.4568C20.4971 17.064 20.8396 17.8832 20.8396 18.7368C20.8396 19.5904 20.4971 20.4095 19.8864 21.0167C19.2757 21.6239 18.446 21.9701 17.5773 21.9803ZM9.29514 15.9541C8.55026 15.9635 7.83913 16.2608 7.31577 16.7817C6.79241 17.3025 6.49896 18.0049 6.49896 18.7368C6.49896 19.4686 6.79241 20.171 7.31577 20.6919C7.83913 21.2127 8.55026 21.51 9.29514 21.5194H17.5773C18.3221 21.51 19.0333 21.2127 19.5566 20.6919C20.08 20.171 20.3734 19.4686 20.3734 18.7368C20.3734 18.0049 20.08 17.3025 19.5566 16.7817C19.0333 16.2608 18.3221 15.9635 17.5773 15.9541H9.29514Z" fill="#1F1F1F"/>
<path d="M9.97479 21.3857C9.44736 21.3854 8.93185 21.2315 8.49344 20.9435C8.05503 20.6554 7.7134 20.2461 7.51176 19.7672C7.31011 19.2884 7.2575 18.7616 7.36056 18.2535C7.46363 17.7453 7.71775 17.2785 8.0908 16.9122C8.46385 16.5459 8.93908 16.2965 9.4564 16.1955C9.97372 16.0945 10.5099 16.1465 10.9972 16.3448C11.4844 16.5432 11.9009 16.879 12.1939 17.3099C12.4869 17.7408 12.6432 18.2473 12.6432 18.7655C12.6425 19.4604 12.3611 20.1267 11.8608 20.6179C11.3605 21.1092 10.6822 21.3853 9.97479 21.3857ZM9.97479 16.6065C9.54011 16.6068 9.11527 16.7337 8.75398 16.9712C8.3927 17.2086 8.1112 17.546 7.94506 17.9406C7.77893 18.3353 7.73563 18.7694 7.82064 19.1882C7.90565 19.607 8.11514 19.9917 8.42264 20.2935C8.73014 20.5954 9.12183 20.8009 9.54819 20.884C9.97455 20.9672 10.4164 20.9243 10.818 20.7607C11.2195 20.5972 11.5627 20.3203 11.8041 19.9652C12.0455 19.61 12.1743 19.1925 12.1742 18.7655C12.1734 18.1928 11.9414 17.6438 11.5291 17.239C11.1167 16.8343 10.5577 16.6068 9.97479 16.6065Z" fill="#1F1F1F"/>
<path d="M9.9748 19.7895C10.5504 19.7895 11.017 19.331 11.017 18.7655C11.017 18.2 10.5504 17.7416 9.9748 17.7416C9.39918 17.7416 8.93256 18.2 8.93256 18.7655C8.93256 19.331 9.39918 19.7895 9.9748 19.7895Z" fill="#1F1F1F"/>
<path d="M16.8704 21.3857C16.3429 21.3855 15.8274 21.2317 15.3889 20.9437C14.9504 20.6557 14.6088 20.2464 14.407 19.7676C14.2053 19.2888 14.1526 18.762 14.2556 18.2537C14.3587 17.7455 14.6127 17.2787 14.9858 16.9124C15.3588 16.546 15.834 16.2966 16.3514 16.1955C16.8687 16.0945 17.4049 16.1465 17.8922 16.3448C18.3795 16.5432 18.796 16.879 19.089 17.3099C19.382 17.7407 19.5384 18.2473 19.5384 18.7655C19.5376 19.4604 19.2563 20.1265 18.7561 20.6178C18.2559 21.109 17.5777 21.3852 16.8704 21.3857ZM16.8704 16.6065C16.4357 16.6067 16.0108 16.7335 15.6495 16.971C15.2881 17.2084 15.0065 17.5457 14.8403 17.9403C14.6741 18.335 14.6308 18.7691 14.7157 19.188C14.8007 19.6068 15.0101 19.9915 15.3176 20.2934C15.6251 20.5953 16.0168 20.8008 16.4432 20.884C16.8695 20.9672 17.3114 20.9243 17.713 20.7608C18.1146 20.5972 18.4578 20.3204 18.6992 19.9652C18.9406 19.6101 19.0694 19.1926 19.0693 18.7655C19.0686 18.1929 18.8366 17.644 18.4244 17.2392C18.0121 16.8344 17.4532 16.6069 16.8704 16.6065Z" fill="#1F1F1F"/>
<path d="M16.8704 19.7895C17.446 19.7895 17.9126 19.331 17.9126 18.7655C17.9126 18.2 17.446 17.7416 16.8704 17.7416C16.2948 17.7416 15.8282 18.2 15.8282 18.7655C15.8282 19.331 16.2948 19.7895 16.8704 19.7895Z" fill="#1F1F1F"/>
</svg>
