<svg width="63" height="88" viewBox="0 0 63 88" fill="none" xmlns="http://www.w3.org/2000/svg">
<g filter="url(#filter0_d_14527_269)">
<path d="M58.3718 41.0766C57.96 36.8256 56.516 32.7347 54.1616 29.1497C51.8072 25.5647 48.6117 22.5908 44.8451 20.4794C41.0785 18.368 36.8515 17.1812 32.5213 17.0192C28.1912 16.8571 23.885 17.7247 19.9668 19.5485C16.0486 21.3723 12.6334 24.0988 10.01 27.4976C7.38648 30.8963 5.63175 34.8675 4.89407 39.0755C4.15638 43.2835 4.45741 47.6046 5.77172 51.6738C7.08603 55.743 9.37499 59.4406 12.4452 62.4541L29.2786 79.0742C29.5738 79.3675 29.9251 79.6004 30.3122 79.7593C30.6992 79.9182 31.1143 80 31.5336 80C31.9529 80 32.368 79.9182 32.7551 79.7593C33.1421 79.6004 33.4934 79.3675 33.7887 79.0742L50.5585 62.4541C53.3891 59.6856 55.5588 56.3308 56.9102 52.6332C58.2617 48.9356 58.7609 44.988 58.3718 41.0766Z" fill="white"/>
</g>
<ellipse cx="31.5" cy="43.775" rx="22.2353" ry="22.05" fill="#005F5F"/>
<ellipse cx="32.2941" cy="84.725" rx="16.6765" ry="1.575" fill="url(#paint0_radial_14527_269)"/>
<rect x="8" y="2" width="46" height="20" rx="10" fill="white"/>
<rect x="7" y="1" width="48" height="22" rx="11" stroke="#005F5F" stroke-opacity="0.5" stroke-width="2"/>
<path d="M12.2134 10.9648L17.8896 6.59122C17.8896 6.59122 18.1994 6.38599 18.434 6.5912C18.6474 6.77795 18.6166 7.06951 18.6166 7.06951L17.3368 11.9812H19.6031C20.075 11.9812 20.1473 12.6572 19.7051 12.9976L14.0289 17.3712C13.6207 17.6839 13.1785 17.3896 13.3061 16.8929L14.3521 12.8734L16.6663 11.9812L12.5568 11.9674C12.0806 11.9674 11.7712 11.3051 12.2134 10.9648Z" fill="#005F5F"/>
<path d="M25.3569 16.5V7.77273H30.9478V9.09801H26.9379V11.4673H30.5643V12.7926H26.9379V16.5H25.3569ZM34.1449 16.6321C33.7301 16.6321 33.3565 16.5582 33.0241 16.4105C32.6946 16.2599 32.4332 16.0384 32.2401 15.7457C32.0497 15.4531 31.9545 15.0923 31.9545 14.6634C31.9545 14.294 32.0227 13.9886 32.1591 13.7472C32.2955 13.5057 32.4815 13.3125 32.7173 13.1676C32.9531 13.0227 33.2188 12.9134 33.5142 12.8395C33.8125 12.7628 34.1207 12.7074 34.4389 12.6733C34.8224 12.6335 35.1335 12.598 35.3722 12.5668C35.6108 12.5327 35.7841 12.4815 35.892 12.4134C36.0028 12.3423 36.0582 12.233 36.0582 12.0852V12.0597C36.0582 11.7386 35.9631 11.4901 35.7727 11.3139C35.5824 11.1378 35.3082 11.0497 34.9503 11.0497C34.5724 11.0497 34.2727 11.1321 34.0511 11.2969C33.8324 11.4616 33.6847 11.6562 33.608 11.8807L32.1676 11.6761C32.2813 11.2784 32.4688 10.946 32.7301 10.679C32.9915 10.4091 33.3111 10.2074 33.6889 10.0739C34.0668 9.9375 34.4844 9.86932 34.9418 9.86932C35.2571 9.86932 35.571 9.90625 35.8835 9.98011C36.196 10.054 36.4815 10.1761 36.7401 10.3466C36.9986 10.5142 37.206 10.7429 37.3622 11.0327C37.5213 11.3224 37.6009 11.6847 37.6009 12.1193V16.5H36.1179V15.6009H36.0668C35.973 15.7827 35.8409 15.9531 35.6705 16.1122C35.5028 16.2685 35.2912 16.3949 35.0355 16.4915C34.7827 16.5852 34.4858 16.6321 34.1449 16.6321ZM34.5455 15.4986C34.8551 15.4986 35.1236 15.4375 35.3509 15.3153C35.5781 15.1903 35.7528 15.0256 35.875 14.821C36 14.6165 36.0625 14.3935 36.0625 14.152V13.3807C36.0142 13.4205 35.9318 13.4574 35.8153 13.4915C35.7017 13.5256 35.5739 13.5554 35.4318 13.581C35.2898 13.6065 35.1491 13.6293 35.0099 13.6491C34.8707 13.669 34.75 13.6861 34.6477 13.7003C34.4176 13.7315 34.2116 13.7827 34.0298 13.8537C33.848 13.9247 33.7045 14.0241 33.5994 14.152C33.4943 14.277 33.4418 14.4389 33.4418 14.6378C33.4418 14.9219 33.5455 15.1364 33.7528 15.2812C33.9602 15.4261 34.2244 15.4986 34.5455 15.4986ZM44.3253 11.6847L42.919 11.8381C42.8793 11.696 42.8097 11.5625 42.7102 11.4375C42.6136 11.3125 42.483 11.2116 42.3182 11.1349C42.1534 11.0582 41.9517 11.0199 41.7131 11.0199C41.392 11.0199 41.1222 11.0895 40.9034 11.2287C40.6875 11.3679 40.581 11.5483 40.5838 11.7699C40.581 11.9602 40.6506 12.1151 40.7926 12.2344C40.9375 12.3537 41.1761 12.4517 41.5085 12.5284L42.625 12.767C43.2443 12.9006 43.7045 13.1122 44.0057 13.402C44.3097 13.6918 44.4631 14.071 44.4659 14.5398C44.4631 14.9517 44.3423 15.3153 44.1037 15.6307C43.8679 15.9432 43.5398 16.1875 43.1193 16.3636C42.6989 16.5398 42.2159 16.6278 41.6705 16.6278C40.8693 16.6278 40.2244 16.4602 39.7358 16.125C39.2472 15.7869 38.956 15.3168 38.8622 14.7145L40.3665 14.5696C40.4347 14.8651 40.5795 15.0881 40.8011 15.2386C41.0227 15.3892 41.3111 15.4645 41.6662 15.4645C42.0327 15.4645 42.3267 15.3892 42.5483 15.2386C42.7727 15.0881 42.8849 14.902 42.8849 14.6804C42.8849 14.4929 42.8125 14.3381 42.6676 14.2159C42.5256 14.0937 42.304 14 42.0028 13.9347L40.8864 13.7003C40.2585 13.5696 39.794 13.3494 39.4929 13.0398C39.1918 12.7273 39.0426 12.3324 39.0455 11.8551C39.0426 11.4517 39.152 11.1023 39.3736 10.8068C39.598 10.5085 39.9091 10.2784 40.3068 10.1165C40.7074 9.9517 41.169 9.86932 41.6918 9.86932C42.4588 9.86932 43.0625 10.0327 43.5028 10.3594C43.946 10.6861 44.2202 11.1278 44.3253 11.6847ZM49.0064 9.95455V11.1477H45.2436V9.95455H49.0064ZM46.1726 8.38636H47.7152V14.5312C47.7152 14.7386 47.7464 14.8977 47.8089 15.0085C47.8743 15.1165 47.9595 15.1903 48.0646 15.2301C48.1697 15.2699 48.2862 15.2898 48.4141 15.2898C48.5107 15.2898 48.5987 15.2827 48.6783 15.2685C48.7607 15.2543 48.8232 15.2415 48.8658 15.2301L49.1257 16.4361C49.0433 16.4645 48.9254 16.4957 48.772 16.5298C48.6214 16.5639 48.4368 16.5838 48.218 16.5895C47.8317 16.6009 47.4837 16.5426 47.174 16.4148C46.8643 16.2841 46.6186 16.0824 46.4368 15.8097C46.2578 15.5369 46.1697 15.196 46.1726 14.7869V8.38636Z" fill="#005F5F"/>
<path d="M24.4267 41.1179L35.7791 33.1659C35.7791 33.1659 36.3988 32.7927 36.8679 33.1658C37.2947 33.5054 37.2333 34.0355 37.2333 34.0355L34.6737 42.9658H39.2061C40.15 42.9658 40.2946 44.195 39.4102 44.8138L28.0578 52.7658C27.2415 53.3344 26.3571 52.7992 26.6122 51.8961L28.7041 44.588L33.3326 42.9658L25.1136 42.9407C24.1612 42.9407 23.5424 41.7366 24.4267 41.1179Z" fill="white"/>
<defs>
<filter id="filter0_d_14527_269" x="0.5" y="17" width="62" height="71" filterUnits="userSpaceOnUse" color-interpolation-filters="sRGB">
<feFlood flood-opacity="0" result="BackgroundImageFix"/>
<feColorMatrix in="SourceAlpha" type="matrix" values="0 0 0 0 0 0 0 0 0 0 0 0 0 0 0 0 0 0 127 0" result="hardAlpha"/>
<feOffset dy="4"/>
<feGaussianBlur stdDeviation="2"/>
<feColorMatrix type="matrix" values="0 0 0 0 0 0 0 0 0 0 0 0 0 0 0 0 0 0 0.1 0"/>
<feBlend mode="normal" in2="BackgroundImageFix" result="effect1_dropShadow_14527_269"/>
<feBlend mode="normal" in="SourceGraphic" in2="effect1_dropShadow_14527_269" result="shape"/>
</filter>
<radialGradient id="paint0_radial_14527_269" cx="0" cy="0" r="1" gradientUnits="userSpaceOnUse" gradientTransform="translate(32.2941 84.725) rotate(90) scale(1.575 16.6765)">
<stop stop-color="#A3A3A3"/>
<stop offset="1" stop-color="#C4C4C4" stop-opacity="0"/>
</radialGradient>
</defs>
</svg>
