<svg width="20" height="20" viewBox="0 0 20 20" fill="none" xmlns="http://www.w3.org/2000/svg">
<path d="M13.7509 2.07272C13.8488 2.133 13.9245 2.22676 13.9657 2.33868C14.0069 2.45061 14.0112 2.57408 13.9779 2.68893L12.1769 8.90633H15.4998C15.5975 8.90628 15.693 8.93663 15.7746 8.99361C15.8562 9.05059 15.9203 9.13171 15.959 9.22696C15.9977 9.32221 16.0094 9.42743 15.9924 9.52961C15.9755 9.63179 15.9308 9.72647 15.8638 9.80196L7.8641 18.8327C7.78669 18.9202 7.68369 18.9772 7.57188 18.9945C7.46007 19.0118 7.34604 18.9883 7.24839 18.9279C7.15073 18.8675 7.0752 18.7738 7.03412 18.662C6.99303 18.5501 6.9888 18.4268 7.02213 18.3121L8.82306 12.0936H5.50018C5.40253 12.0937 5.307 12.0633 5.2254 12.0064C5.14379 11.9494 5.07967 11.8683 5.04096 11.773C5.00225 11.6778 4.99064 11.5725 5.00757 11.4704C5.02449 11.3682 5.06921 11.2735 5.13619 11.198L13.1359 2.16727C13.2132 2.07994 13.3161 2.02296 13.4277 2.0056C13.5394 1.98824 13.6533 2.01152 13.7509 2.07165V2.07272Z" fill="#FBC02D"/>
</svg>
