<?xml version="1.0" encoding="UTF-8"?>
<svg xmlns="http://www.w3.org/2000/svg" xmlns:xlink="http://www.w3.org/1999/xlink" width="30px" height="30px" viewBox="0 0 30 30" version="1.1">
<g id="surface1">
<path style=" stroke:none;fill-rule:nonzero;fill:rgb(85.882353%,7.45098%,7.45098%);fill-opacity:1;" d="M 14.773438 0.15625 L 15.269531 0.15625 L 15.890625 0.175781 L 16.535156 0.21875 L 16.972656 0.28125 L 17.242188 0.320312 L 17.675781 0.382812 L 17.925781 0.425781 L 18.339844 0.507812 L 18.527344 0.570312 L 18.816406 0.632812 L 18.941406 0.675781 L 19.171875 0.738281 L 19.316406 0.757812 L 19.503906 0.839844 L 19.75 0.902344 L 20.164062 1.070312 L 20.476562 1.171875 L 20.496094 1.214844 L 20.683594 1.253906 L 20.789062 1.296875 L 20.828125 1.339844 L 20.976562 1.378906 L 21.058594 1.421875 L 21.160156 1.460938 L 21.265625 1.523438 L 21.429688 1.585938 L 21.722656 1.730469 L 21.867188 1.816406 L 21.949219 1.835938 L 21.949219 1.878906 L 22.136719 1.941406 L 22.304688 2.042969 L 22.425781 2.105469 L 22.46875 2.105469 L 22.488281 2.1875 L 22.59375 2.210938 L 22.78125 2.335938 L 22.945312 2.417969 L 23.007812 2.4375 L 23.089844 2.519531 L 23.320312 2.644531 L 23.382812 2.707031 L 23.402344 2.75 L 23.464844 2.75 L 23.546875 2.832031 L 23.671875 2.894531 L 23.753906 2.976562 L 23.816406 2.996094 L 23.839844 3.039062 L 23.941406 3.101562 L 24.003906 3.164062 L 24.109375 3.246094 L 24.171875 3.269531 L 24.171875 3.308594 L 24.210938 3.308594 L 24.210938 3.351562 L 24.316406 3.390625 L 24.441406 3.496094 L 24.480469 3.515625 L 24.480469 3.558594 L 24.585938 3.597656 L 24.625 3.660156 L 24.773438 3.746094 L 24.8125 3.785156 L 24.8125 3.847656 L 24.917969 3.890625 L 25.164062 4.140625 L 25.207031 4.160156 L 25.207031 4.203125 L 25.25 4.203125 L 25.269531 4.242188 L 25.332031 4.261719 L 25.332031 4.304688 L 25.414062 4.347656 L 25.582031 4.511719 L 25.582031 4.554688 L 25.621094 4.554688 L 25.769531 4.71875 L 25.808594 4.804688 L 25.851562 4.804688 L 25.851562 4.84375 L 25.914062 4.863281 L 25.914062 4.90625 L 25.996094 4.949219 L 25.996094 4.988281 L 26.039062 4.988281 L 26.058594 5.074219 L 26.140625 5.09375 L 26.203125 5.195312 L 26.285156 5.257812 L 26.328125 5.34375 L 26.371094 5.363281 L 26.371094 5.425781 L 26.453125 5.46875 L 26.597656 5.652344 L 26.640625 5.695312 L 26.703125 5.796875 L 26.929688 6.089844 L 26.992188 6.152344 L 27.011719 6.234375 L 27.09375 6.277344 L 27.199219 6.441406 L 27.199219 6.503906 L 27.242188 6.503906 L 27.324219 6.628906 L 27.324219 6.671875 L 27.386719 6.691406 L 27.425781 6.773438 L 27.53125 6.878906 L 27.574219 6.960938 L 27.59375 7.0625 L 27.636719 7.0625 L 27.695312 7.210938 L 27.757812 7.3125 L 27.820312 7.375 L 27.925781 7.582031 L 28.070312 7.832031 L 28.132812 7.914062 L 28.175781 8.019531 L 28.214844 8.058594 L 28.277344 8.207031 L 28.339844 8.328125 L 28.382812 8.433594 L 28.402344 8.539062 L 28.445312 8.539062 L 28.527344 8.746094 L 28.570312 8.808594 L 28.570312 8.871094 L 28.609375 8.871094 L 28.628906 8.992188 L 28.671875 9.015625 L 28.714844 9.140625 L 28.777344 9.261719 L 28.878906 9.511719 L 28.941406 9.65625 L 29.023438 9.925781 L 29.085938 10.074219 L 29.085938 10.136719 L 29.128906 10.136719 L 29.171875 10.320312 L 29.273438 10.652344 L 29.316406 10.796875 L 29.355469 10.902344 L 29.417969 11.171875 L 29.460938 11.277344 L 29.503906 11.460938 L 29.523438 11.484375 L 29.5625 11.816406 L 29.605469 11.835938 L 29.648438 12.105469 L 29.710938 12.457031 L 29.730469 12.5 L 29.773438 12.832031 L 29.855469 13.476562 L 29.917969 14.222656 L 29.9375 14.347656 L 29.9375 15.488281 L 29.894531 16.214844 L 29.855469 16.730469 L 29.792969 17.148438 L 29.710938 17.707031 L 29.648438 18.039062 L 29.625 18.226562 L 29.585938 18.289062 L 29.523438 18.597656 L 29.441406 18.910156 L 29.417969 18.972656 L 29.417969 19.179688 L 29.378906 19.179688 L 29.316406 19.324219 L 29.230469 19.636719 L 28.960938 20.425781 L 28.921875 20.527344 L 28.878906 20.550781 L 28.859375 20.695312 L 28.816406 20.695312 L 28.796875 20.796875 L 28.714844 21.007812 L 28.671875 21.089844 L 28.507812 21.460938 L 28.445312 21.609375 L 28.402344 21.609375 L 28.382812 21.753906 L 28.296875 21.878906 L 28.277344 21.941406 L 28.238281 21.941406 L 28.214844 22.085938 L 28.152344 22.105469 L 28.113281 22.230469 L 28.050781 22.375 L 28.007812 22.394531 L 27.925781 22.5625 L 27.882812 22.707031 L 27.820312 22.75 L 27.800781 22.8125 L 27.738281 22.875 L 27.738281 22.914062 L 27.65625 22.996094 L 27.636719 23.082031 L 27.59375 23.082031 L 27.550781 23.207031 L 27.511719 23.207031 L 27.386719 23.453125 L 27.34375 23.453125 L 27.304688 23.578125 L 27.242188 23.597656 L 27.199219 23.722656 L 27.117188 23.808594 L 26.992188 23.972656 L 26.824219 24.179688 L 26.785156 24.285156 L 26.742188 24.285156 L 26.703125 24.367188 L 26.515625 24.59375 L 26.472656 24.59375 L 26.453125 24.679688 L 26.410156 24.679688 L 26.410156 24.71875 L 26.371094 24.71875 L 26.328125 24.804688 L 26.203125 24.949219 L 26.160156 24.949219 L 26.121094 25.03125 L 26.039062 25.15625 L 25.933594 25.257812 L 25.890625 25.28125 L 25.851562 25.34375 L 25.558594 25.632812 L 25.476562 25.738281 L 25.414062 25.757812 L 25.375 25.820312 L 25.332031 25.820312 L 25.332031 25.859375 L 25.289062 25.859375 L 25.25 25.945312 L 25.207031 25.945312 L 25.207031 25.984375 L 25.042969 26.109375 L 24.9375 26.214844 L 24.710938 26.421875 L 24.625 26.484375 L 24.585938 26.484375 L 24.5625 26.566406 L 24.503906 26.585938 L 24.441406 26.648438 L 24.335938 26.730469 L 24.292969 26.773438 L 24.171875 26.855469 L 24.109375 26.917969 L 24.003906 26.980469 L 23.941406 27.003906 L 23.941406 27.042969 L 23.734375 27.1875 L 23.691406 27.1875 L 23.652344 27.273438 L 23.570312 27.292969 L 23.570312 27.335938 L 23.421875 27.394531 L 22.988281 27.6875 L 22.945312 27.6875 L 22.945312 27.726562 L 22.78125 27.8125 L 22.757812 27.851562 L 22.613281 27.914062 L 22.363281 28.058594 L 22.304688 28.058594 L 22.304688 28.101562 L 22.242188 28.101562 L 22.242188 28.144531 L 22.09375 28.183594 L 22.09375 28.226562 L 22.011719 28.246094 L 21.972656 28.289062 L 21.785156 28.390625 L 21.660156 28.414062 L 21.660156 28.453125 L 21.453125 28.539062 L 21.246094 28.640625 L 21.097656 28.703125 L 20.953125 28.785156 L 20.828125 28.785156 L 20.808594 28.847656 L 20.496094 28.953125 L 20.289062 29.054688 L 20.042969 29.117188 L 19.894531 29.179688 L 19.5625 29.285156 L 19.542969 29.304688 L 19.355469 29.347656 L 18.921875 29.492188 L 18.671875 29.53125 L 18.570312 29.574219 L 18.359375 29.617188 L 18.339844 29.636719 L 17.988281 29.699219 L 17.820312 29.742188 L 17.574219 29.78125 L 17.386719 29.804688 L 17.011719 29.863281 L 16.097656 29.949219 L 15.851562 29.96875 L 14.085938 29.96875 L 13.257812 29.886719 L 12.882812 29.84375 L 12.53125 29.78125 L 12.261719 29.742188 L 12.054688 29.699219 L 11.722656 29.636719 L 11.617188 29.59375 L 11.371094 29.53125 L 11.183594 29.511719 L 11.183594 29.472656 L 11.058594 29.472656 L 10.621094 29.324219 L 10.476562 29.285156 L 10.164062 29.179688 L 10.019531 29.140625 L 9.792969 29.054688 L 9.6875 29.015625 L 9.503906 28.929688 L 9.355469 28.890625 L 9.210938 28.828125 L 9.210938 28.785156 L 9.046875 28.765625 L 8.382812 28.433594 L 8.070312 28.289062 L 8.050781 28.246094 L 7.988281 28.246094 L 7.988281 28.207031 L 7.863281 28.164062 L 7.574219 28.019531 L 7.574219 27.976562 L 7.386719 27.914062 L 7.363281 27.875 L 7.21875 27.8125 L 7.15625 27.75 L 7.03125 27.707031 L 6.929688 27.605469 L 6.785156 27.519531 L 6.785156 27.480469 L 6.679688 27.4375 L 6.597656 27.375 L 6.492188 27.335938 L 6.347656 27.230469 L 6.347656 27.1875 L 6.222656 27.148438 L 6.140625 27.0625 L 5.890625 26.898438 L 5.808594 26.792969 L 5.683594 26.730469 L 5.582031 26.628906 L 5.476562 26.566406 L 5.457031 26.484375 L 5.351562 26.441406 L 5.1875 26.277344 L 5.082031 26.234375 L 5.0625 26.171875 L 4.980469 26.109375 L 4.9375 26.109375 L 4.9375 26.152344 L 4.894531 26.128906 L 4.917969 26.046875 L 4.835938 25.984375 L 4.835938 25.945312 L 4.75 25.902344 L 4.75 25.859375 L 4.648438 25.839844 L 4.648438 25.777344 L 4.542969 25.738281 L 4.378906 25.527344 L 4.210938 25.363281 L 4.210938 25.320312 L 4.148438 25.300781 L 4.085938 25.238281 L 4.046875 25.21875 L 3.984375 25.09375 L 3.816406 24.925781 L 3.628906 24.699219 L 3.570312 24.65625 L 3.546875 24.59375 L 3.484375 24.554688 L 3.484375 24.511719 L 3.445312 24.492188 L 3.421875 24.410156 L 3.359375 24.410156 L 3.296875 24.324219 L 3.296875 24.285156 L 3.238281 24.261719 L 3.195312 24.160156 L 3.113281 24.054688 L 2.96875 23.871094 L 2.925781 23.828125 L 2.84375 23.703125 L 2.78125 23.597656 L 2.738281 23.578125 L 2.695312 23.453125 L 2.65625 23.453125 L 2.550781 23.246094 L 2.488281 23.207031 L 2.425781 23.082031 L 2.363281 22.976562 L 2.363281 22.9375 L 2.304688 22.914062 L 2.21875 22.769531 L 2.21875 22.707031 L 2.179688 22.707031 L 2.03125 22.417969 L 2.03125 22.375 L 1.992188 22.375 L 1.910156 22.210938 L 1.804688 22.023438 L 1.804688 21.960938 L 1.742188 21.941406 L 1.722656 21.792969 L 1.660156 21.773438 L 1.578125 21.546875 L 1.410156 21.191406 L 1.347656 21.089844 L 1.222656 20.757812 L 1.183594 20.714844 L 1.121094 20.507812 L 1.015625 20.257812 L 0.953125 20.074219 L 0.871094 19.804688 L 0.808594 19.617188 L 0.726562 19.410156 L 0.539062 18.660156 L 0.496094 18.558594 L 0.4375 18.226562 L 0.375 17.9375 L 0.289062 17.5 L 0.25 17.230469 L 0.207031 16.835938 L 0.1875 16.730469 L 0.125 15.964844 L 0.105469 15.46875 L 0.105469 14.554688 L 0.144531 13.890625 L 0.207031 13.308594 L 0.3125 12.5 L 0.375 12.230469 L 0.414062 12.003906 L 0.519531 11.484375 L 0.558594 11.402344 L 0.582031 11.214844 L 0.664062 10.984375 L 0.789062 10.570312 L 0.851562 10.34375 L 0.890625 10.28125 L 0.914062 10.136719 L 0.953125 10.136719 L 0.976562 9.988281 L 1.015625 9.988281 L 1.015625 9.863281 L 1.078125 9.761719 L 1.097656 9.65625 L 1.140625 9.65625 L 1.140625 9.53125 L 1.222656 9.386719 L 1.308594 9.179688 L 1.347656 9.035156 L 1.390625 9.035156 L 1.429688 8.890625 L 1.515625 8.683594 L 1.554688 8.660156 L 1.679688 8.351562 L 1.847656 8.039062 L 1.910156 7.957031 L 2.011719 7.75 L 2.03125 7.6875 L 2.09375 7.625 L 2.136719 7.5 L 2.199219 7.4375 L 2.242188 7.335938 L 2.28125 7.3125 L 2.34375 7.210938 L 2.425781 7.0625 L 2.511719 6.898438 L 2.59375 6.792969 L 2.613281 6.753906 L 2.65625 6.753906 L 2.675781 6.671875 L 2.738281 6.566406 L 2.78125 6.566406 L 2.820312 6.484375 L 2.90625 6.339844 L 2.945312 6.339844 L 2.988281 6.234375 L 3.050781 6.171875 L 3.089844 6.089844 L 3.132812 6.089844 L 3.175781 6.007812 L 3.257812 5.882812 L 3.320312 5.796875 L 3.359375 5.796875 L 3.402344 5.675781 L 3.464844 5.675781 L 3.484375 5.570312 L 3.570312 5.527344 L 3.609375 5.425781 L 3.734375 5.320312 L 3.796875 5.195312 L 3.859375 5.195312 L 3.902344 5.113281 L 3.960938 5.03125 L 4.003906 4.96875 L 4.128906 4.886719 L 4.148438 4.824219 L 4.292969 4.679688 L 4.335938 4.65625 L 4.355469 4.59375 L 4.417969 4.59375 L 4.460938 4.511719 L 4.5625 4.410156 L 4.6875 4.304688 L 4.792969 4.203125 L 4.9375 4.078125 L 5.042969 3.972656 L 5.164062 3.871094 L 5.289062 3.746094 L 5.332031 3.746094 L 5.332031 3.683594 L 5.457031 3.621094 L 5.621094 3.476562 L 5.769531 3.371094 L 5.769531 3.328125 L 5.871094 3.289062 L 5.976562 3.183594 L 6.097656 3.121094 L 6.246094 2.996094 L 6.371094 2.914062 L 6.390625 2.875 L 6.617188 2.75 L 6.679688 2.6875 L 6.722656 2.6875 L 6.742188 2.625 L 6.949219 2.519531 L 7.074219 2.417969 L 7.179688 2.375 L 7.363281 2.25 L 7.40625 2.25 L 7.40625 2.210938 L 7.550781 2.1875 L 7.59375 2.105469 L 7.71875 2.085938 L 7.71875 2.042969 L 8.050781 1.878906 L 8.152344 1.816406 L 8.214844 1.816406 L 8.214844 1.773438 L 8.359375 1.710938 L 8.878906 1.460938 L 9.023438 1.402344 L 9.230469 1.316406 L 9.355469 1.253906 L 9.441406 1.253906 L 9.460938 1.214844 L 9.730469 1.109375 L 9.9375 1.027344 L 10.125 0.964844 L 10.457031 0.859375 L 10.683594 0.777344 L 11.015625 0.695312 L 11.308594 0.613281 L 11.515625 0.570312 L 11.703125 0.507812 L 12.363281 0.382812 L 12.800781 0.320312 L 12.84375 0.300781 L 13.859375 0.195312 L 14.109375 0.175781 Z M 14.773438 0.15625 "/>
<path style=" stroke:none;fill-rule:nonzero;fill:rgb(98.823529%,98.823529%,98.823529%);fill-opacity:1;" d="M 22.242188 6.835938 L 22.28125 6.835938 L 22.28125 6.878906 L 22.363281 6.917969 L 22.488281 7.023438 L 22.574219 7.105469 L 22.738281 7.25 L 22.863281 7.375 L 22.863281 7.417969 L 22.925781 7.4375 L 22.925781 7.480469 L 23.007812 7.519531 L 23.132812 7.6875 L 23.238281 7.769531 L 23.320312 7.894531 L 23.382812 7.9375 L 23.445312 8.039062 L 23.609375 8.246094 L 23.652344 8.269531 L 23.652344 8.328125 L 23.714844 8.351562 L 23.777344 8.453125 L 23.859375 8.558594 L 23.859375 8.597656 L 23.902344 8.597656 L 24.046875 8.828125 L 24.378906 9.324219 L 24.417969 9.347656 L 24.480469 9.511719 L 24.730469 9.949219 L 25 10.488281 L 25.269531 11.128906 L 25.457031 11.648438 L 25.621094 12.210938 L 25.769531 12.832031 L 25.871094 13.351562 L 25.953125 14.140625 L 25.976562 14.386719 L 25.976562 15.714844 L 25.914062 16.421875 L 25.808594 17.085938 L 25.707031 17.582031 L 25.519531 18.289062 L 25.289062 18.953125 L 25.042969 19.554688 L 24.855469 19.949219 L 24.648438 20.34375 L 24.460938 20.675781 L 24.441406 20.695312 L 24.417969 21.046875 L 24.210938 21.070312 L 23.984375 21.402344 L 23.691406 21.792969 L 23.507812 22.023438 L 23.277344 22.292969 L 23.089844 22.5 L 22.84375 22.769531 L 22.59375 23.019531 L 22.550781 23.019531 L 22.53125 23.082031 L 22.363281 23.226562 L 22.054688 23.496094 L 21.761719 23.722656 L 21.410156 23.992188 L 21.078125 24.222656 L 20.683594 24.472656 L 20.25 24.71875 L 19.8125 24.949219 L 19.171875 25.238281 L 18.546875 25.46875 L 17.945312 25.652344 L 17.261719 25.820312 L 16.515625 25.945312 L 15.933594 26.007812 L 15.683594 26.027344 L 14.355469 26.027344 L 13.671875 25.964844 L 13.007812 25.859375 L 12.550781 25.777344 L 12.179688 25.675781 L 11.722656 25.550781 L 11.222656 25.382812 L 11.039062 25.300781 L 10.808594 25.21875 L 10.601562 25.113281 L 10.207031 24.949219 L 9.917969 24.804688 L 9.917969 24.761719 L 9.8125 24.742188 L 9.6875 24.679688 L 9.6875 24.636719 L 9.542969 24.59375 L 9.398438 24.511719 L 9.355469 24.492188 L 9.355469 24.449219 L 9.253906 24.410156 L 9.066406 24.304688 L 9.109375 24.203125 L 9.398438 23.828125 L 9.6875 23.433594 L 9.980469 23.058594 L 10.042969 22.957031 L 10.3125 22.894531 L 10.558594 22.789062 L 10.789062 22.625 L 10.953125 22.417969 L 11.078125 22.148438 L 11.121094 21.980469 L 11.121094 21.546875 L 11.160156 21.546875 L 11.160156 21.710938 L 11.246094 21.753906 L 11.410156 21.816406 L 11.371094 21.421875 L 11.347656 21.234375 L 11.554688 20.964844 L 11.742188 20.714844 L 11.886719 20.507812 L 11.929688 20.507812 L 11.972656 20.425781 L 12.15625 20.175781 L 12.488281 19.742188 L 12.738281 19.410156 L 13.070312 18.972656 L 13.320312 18.640625 L 13.652344 18.207031 L 13.902344 17.875 L 14.003906 17.726562 L 14.046875 17.789062 L 14.148438 18.496094 L 14.191406 18.871094 L 14.210938 19.179688 L 14.210938 19.699219 L 14.191406 19.761719 L 14.191406 19.949219 L 14.253906 20.074219 L 14.335938 20.136719 L 14.335938 20.46875 L 14.109375 20.570312 L 14.066406 20.570312 L 14.148438 20.695312 L 14.128906 20.738281 L 14.046875 20.632812 L 13.941406 20.652344 L 13.941406 20.714844 L 13.984375 20.820312 L 13.941406 20.820312 L 13.902344 20.695312 L 13.777344 20.757812 L 13.777344 20.882812 L 13.734375 20.859375 L 13.734375 20.796875 L 13.296875 20.945312 L 13.027344 21.007812 L 12.96875 21.152344 L 15.144531 21.128906 L 15.125 20.839844 L 15.082031 20.550781 L 15.042969 20.488281 L 14.957031 20.46875 L 14.957031 20.175781 L 15.144531 20.074219 L 15.144531 19.742188 L 15.105469 18.371094 L 15.0625 17.5625 L 14.980469 16.816406 L 14.9375 16.609375 L 15 16.421875 L 15.105469 16.316406 L 15.1875 16.730469 L 15.289062 16.980469 L 15.394531 17.125 L 15.621094 17.6875 L 15.828125 18.269531 L 16.039062 18.953125 L 16.160156 19.53125 L 16.160156 19.804688 L 16.203125 20.03125 L 16.347656 20.09375 L 16.390625 20.445312 L 16.390625 20.570312 L 16.371094 20.488281 L 16.160156 20.589844 L 16.140625 20.632812 L 16.203125 20.757812 L 16.160156 20.757812 L 16.078125 20.652344 L 15.976562 20.695312 L 15.976562 20.738281 L 15.851562 20.820312 L 15.871094 20.921875 L 15.828125 20.921875 L 15.808594 20.859375 L 15.621094 20.902344 L 15.375 20.964844 L 15.25 21.007812 L 15.207031 21.128906 L 17.199219 21.128906 L 17.15625 20.839844 L 17.117188 20.695312 L 17.09375 20.527344 L 16.992188 20.488281 L 16.972656 20.445312 L 16.949219 20.050781 L 17.03125 19.988281 L 17.03125 19.742188 L 16.992188 19.65625 L 16.847656 18.621094 L 16.679688 17.726562 L 16.492188 16.980469 L 16.371094 16.628906 L 16.246094 16.339844 L 16.183594 15.984375 L 16.160156 15.40625 L 16.160156 14.886719 L 16.492188 14.449219 L 16.742188 14.117188 L 17.074219 13.683594 L 17.324219 13.351562 L 17.65625 12.914062 L 17.90625 12.582031 L 18.238281 12.148438 L 18.484375 11.816406 L 18.816406 11.378906 L 19.066406 11.046875 L 19.398438 10.613281 L 19.648438 10.28125 L 19.980469 9.84375 L 20.226562 9.511719 L 20.558594 9.078125 L 20.808594 8.746094 L 21.140625 8.308594 L 21.390625 7.976562 L 21.722656 7.542969 L 22.21875 6.878906 Z M 22.242188 6.835938 "/>
<path style=" stroke:none;fill-rule:nonzero;fill:rgb(98.823529%,98.823529%,98.823529%);fill-opacity:1;" d="M 14.441406 4.097656 L 15.601562 4.097656 L 16.015625 4.140625 L 16.847656 4.242188 L 17.550781 4.386719 L 18.175781 4.554688 L 18.859375 4.78125 L 19.460938 5.03125 L 20.0625 5.320312 L 20.332031 5.46875 L 20.289062 5.550781 L 20 5.945312 L 19.710938 6.316406 L 19.417969 6.710938 L 19.128906 7.085938 L 18.839844 7.480469 L 18.546875 7.851562 L 18.257812 8.246094 L 17.96875 8.621094 L 17.675781 9.015625 L 17.386719 9.386719 L 17.09375 9.78125 L 16.804688 10.15625 L 16.515625 10.550781 L 16.410156 10.652344 L 16.347656 10.050781 L 16.222656 9.449219 L 16.058594 8.847656 L 16.222656 8.765625 L 16.265625 8.640625 L 16.160156 8.164062 L 16.058594 7.914062 L 15.976562 7.8125 L 15.851562 7.789062 L 15.289062 7.789062 L 15.125 7.8125 L 15 7.335938 L 15.226562 7.210938 L 15.332031 7.125 L 15.476562 6.917969 L 15.582031 6.691406 L 15.644531 6.460938 L 15.644531 6.214844 L 15.558594 5.984375 L 15.414062 5.820312 L 15.226562 5.675781 L 15.019531 5.46875 L 14.6875 5.300781 L 14.605469 5.300781 L 14.75 5.527344 L 14.855469 5.796875 L 14.894531 6.007812 L 14.894531 6.191406 L 14.667969 6.171875 L 14.585938 5.777344 L 14.480469 5.527344 L 14.335938 5.34375 L 14.171875 5.238281 L 13.941406 5.257812 L 13.671875 5.34375 L 13.484375 5.445312 L 13.339844 5.570312 L 13.238281 5.777344 L 13.238281 5.921875 L 13.320312 6.089844 L 13.464844 6.214844 L 13.507812 6.234375 L 13.421875 6.585938 L 13.421875 6.730469 L 13.296875 6.980469 L 13.257812 7.042969 L 13.277344 7.125 L 13.402344 7.167969 L 13.484375 7.519531 L 13.589844 7.769531 L 13.652344 7.8125 L 13.902344 7.8125 L 14.210938 7.707031 L 14.292969 7.726562 L 14.417969 8.082031 L 14.398438 8.164062 L 14.273438 8.308594 L 14.292969 8.414062 L 14.355469 8.476562 L 14.316406 8.660156 L 14.230469 8.953125 L 14.191406 9.386719 L 14.441406 9.386719 L 14.710938 9.492188 L 14.894531 9.636719 L 15.082031 9.84375 L 15.226562 10.15625 L 15.269531 10.300781 L 15.269531 10.445312 L 15.207031 10.488281 L 15.125 10.15625 L 14.957031 9.84375 L 14.8125 9.679688 L 14.605469 9.554688 L 14.417969 9.492188 L 14.148438 9.492188 L 14.085938 9.65625 L 14.273438 9.65625 L 14.503906 9.742188 L 14.6875 9.863281 L 14.875 10.050781 L 15.019531 10.300781 L 15.105469 10.550781 L 15.105469 10.695312 L 15.042969 10.738281 L 14.957031 10.425781 L 14.8125 10.136719 L 14.625 9.925781 L 14.355469 9.78125 L 14.171875 9.742188 L 14.023438 9.761719 L 13.859375 10.050781 L 13.652344 10.34375 L 13.402344 10.632812 L 13.027344 11.007812 L 12.738281 11.234375 L 12.449219 11.441406 L 12.15625 11.628906 L 12.117188 11.628906 L 12.09375 11.710938 L 12.09375 11.980469 L 11.824219 12.148438 L 11.761719 12.167969 L 11.183594 12.167969 L 11.078125 12.292969 L 10.976562 12.519531 L 11.015625 12.605469 L 11.222656 12.726562 L 11.265625 12.769531 L 11.371094 12.769531 L 11.371094 13.308594 L 11.328125 13.746094 L 11.246094 14.160156 L 11.039062 14.84375 L 10.976562 15.175781 L 10.953125 15.550781 L 10.996094 15.839844 L 11.097656 16.089844 L 11.058594 16.339844 L 10.769531 17.644531 L 10.746094 17.6875 L 10.683594 17.707031 L 10.601562 18.039062 L 10.664062 18.039062 L 10.664062 18.101562 L 10.769531 18.121094 L 10.683594 18.269531 L 10.414062 18.597656 L 10.125 18.992188 L 9.835938 19.367188 L 9.542969 19.761719 L 9.253906 20.136719 L 8.960938 20.527344 L 8.671875 20.902344 L 8.382812 21.296875 L 8.089844 21.671875 L 7.800781 22.0625 L 7.511719 22.4375 L 7.261719 22.769531 L 7.21875 22.789062 L 7.074219 22.664062 L 6.992188 22.5625 L 6.992188 22.519531 L 6.949219 22.519531 L 6.847656 22.417969 L 6.679688 22.210938 L 6.578125 22.105469 L 6.410156 21.878906 L 6.121094 21.503906 L 5.953125 21.253906 L 5.890625 21.171875 L 5.890625 21.128906 L 5.851562 21.128906 L 5.726562 20.902344 L 5.496094 20.527344 L 5.25 20.074219 L 5.082031 19.761719 L 4.773438 19.015625 L 4.605469 18.539062 L 4.441406 18.039062 L 4.273438 17.3125 L 4.171875 16.753906 L 4.085938 16.046875 L 4.046875 15.613281 L 4.046875 14.53125 L 4.128906 13.683594 L 4.273438 12.769531 L 4.355469 12.457031 L 4.480469 11.960938 L 4.585938 11.628906 L 4.710938 11.277344 L 4.8125 11.007812 L 4.9375 10.738281 L 5 10.589844 L 5.082031 10.382812 L 5.289062 9.988281 L 5.375 9.804688 L 5.414062 9.804688 L 5.4375 9.699219 L 5.476562 9.699219 L 5.496094 9.59375 L 5.601562 9.410156 L 5.644531 9.410156 L 5.683594 9.304688 L 5.769531 9.140625 L 5.808594 9.140625 L 5.851562 9.035156 L 5.933594 8.890625 L 5.976562 8.890625 L 5.976562 8.828125 L 6.058594 8.746094 L 6.078125 8.683594 L 6.121094 8.683594 L 6.121094 8.621094 L 6.160156 8.621094 L 6.203125 8.539062 L 6.308594 8.371094 L 6.410156 8.269531 L 6.453125 8.183594 L 6.535156 8.101562 L 6.640625 7.976562 L 6.742188 7.875 L 6.785156 7.789062 L 6.886719 7.707031 L 6.910156 7.664062 L 6.949219 7.664062 L 6.992188 7.5625 L 7.074219 7.480469 L 7.117188 7.480469 L 7.15625 7.394531 L 7.324219 7.25 L 7.40625 7.148438 L 7.574219 7.003906 L 7.695312 6.898438 L 7.882812 6.710938 L 7.96875 6.691406 L 8.007812 6.609375 L 8.089844 6.585938 L 8.132812 6.503906 L 8.238281 6.441406 L 8.445312 6.277344 L 8.484375 6.277344 L 8.484375 6.234375 L 8.546875 6.234375 L 8.570312 6.171875 L 8.628906 6.171875 L 8.628906 6.128906 L 8.753906 6.070312 L 8.777344 6.027344 L 8.839844 6.027344 L 8.839844 5.984375 L 8.902344 5.984375 L 8.902344 5.945312 L 9.023438 5.902344 L 9.023438 5.859375 L 9.085938 5.859375 L 9.085938 5.820312 L 9.210938 5.757812 L 9.253906 5.757812 L 9.253906 5.714844 L 9.355469 5.695312 L 9.355469 5.652344 L 9.523438 5.570312 L 9.5625 5.570312 L 9.5625 5.527344 L 9.75 5.46875 L 9.75 5.425781 L 10.1875 5.21875 L 10.496094 5.050781 L 10.707031 4.96875 L 10.976562 4.863281 L 11.222656 4.761719 L 11.515625 4.65625 L 11.949219 4.53125 L 12.199219 4.449219 L 12.78125 4.324219 L 12.988281 4.285156 L 13.152344 4.242188 L 13.570312 4.179688 Z M 14.441406 4.097656 "/>
<path style=" stroke:none;fill-rule:nonzero;fill:rgb(54.509804%,14.901961%,63.137255%);fill-opacity:1;" d="M 14.066406 5.21875 L 14.210938 5.238281 L 14.398438 5.382812 L 14.542969 5.613281 L 14.625 5.839844 L 14.667969 6.171875 L 14.8125 6.171875 L 14.894531 6.191406 L 14.835938 5.796875 L 14.730469 5.527344 L 14.585938 5.300781 L 14.5625 5.257812 L 14.75 5.300781 L 15.019531 5.445312 L 15.289062 5.714844 L 15.457031 5.839844 L 15.582031 5.984375 L 15.664062 6.214844 L 15.664062 6.460938 L 15.582031 6.753906 L 15.4375 7.023438 L 15.3125 7.167969 L 15.125 7.292969 L 15.019531 7.355469 L 15.125 7.726562 L 15.125 7.8125 L 15.289062 7.769531 L 15.851562 7.769531 L 15.996094 7.8125 L 16.121094 7.996094 L 16.222656 8.328125 L 16.285156 8.683594 L 16.203125 8.808594 L 16.078125 8.871094 L 16.246094 9.449219 L 16.371094 10.050781 L 16.410156 10.40625 L 16.410156 10.695312 L 16.222656 10.921875 L 15.933594 11.316406 L 15.644531 11.691406 L 15.351562 12.085938 L 15.0625 12.457031 L 14.773438 12.851562 L 14.542969 13.144531 L 14.273438 13.207031 L 13.984375 13.289062 L 13.921875 13.351562 L 13.878906 13.910156 L 13.859375 14.054688 L 13.257812 14.84375 L 13.007812 15.175781 L 12.675781 15.613281 L 12.425781 15.945312 L 12.09375 16.378906 L 11.847656 16.710938 L 11.515625 17.148438 L 11.265625 17.480469 L 11.058594 17.75 L 10.789062 18.121094 L 10.664062 18.101562 L 10.664062 18.039062 L 10.601562 18.039062 L 10.644531 17.789062 L 10.683594 17.6875 L 10.746094 17.6875 L 10.851562 17.167969 L 11.078125 16.152344 L 11.058594 16.046875 L 10.976562 15.839844 L 10.933594 15.550781 L 10.953125 15.175781 L 11.039062 14.78125 L 11.246094 14.078125 L 11.328125 13.578125 L 11.347656 13.308594 L 11.347656 12.789062 L 11.246094 12.769531 L 11.058594 12.644531 L 10.953125 12.5625 L 11.015625 12.375 L 11.121094 12.210938 L 11.183594 12.148438 L 11.761719 12.148438 L 11.972656 12.042969 L 12.054688 11.980469 L 12.09375 11.980469 L 12.074219 11.917969 L 12.074219 11.710938 L 12.117188 11.628906 L 12.449219 11.421875 L 12.738281 11.214844 L 12.96875 11.027344 L 13.175781 10.839844 L 13.464844 10.550781 L 13.691406 10.257812 L 13.902344 9.949219 L 14.023438 9.742188 L 14.171875 9.71875 L 14.398438 9.78125 L 14.625 9.90625 L 14.792969 10.074219 L 14.957031 10.363281 L 15.0625 10.714844 L 15.082031 10.695312 L 15.082031 10.550781 L 14.980469 10.257812 L 14.835938 10.03125 L 14.667969 9.863281 L 14.460938 9.742188 L 14.273438 9.679688 L 14.085938 9.65625 L 14.109375 9.554688 L 14.148438 9.472656 L 14.417969 9.472656 L 14.648438 9.554688 L 14.835938 9.679688 L 15 9.863281 L 15.144531 10.15625 L 15.226562 10.46875 L 15.25 10.445312 L 15.25 10.300781 L 15.144531 10.011719 L 15.042969 9.824219 L 14.855469 9.617188 L 14.625 9.472656 L 14.441406 9.410156 L 14.191406 9.386719 L 14.191406 9.097656 L 14.253906 8.785156 L 14.335938 8.539062 L 14.316406 8.453125 L 14.253906 8.371094 L 14.273438 8.269531 L 14.398438 8.144531 L 14.355469 7.957031 L 14.273438 7.726562 L 14.085938 7.769531 L 13.902344 7.832031 L 13.652344 7.832031 L 13.546875 7.726562 L 13.445312 7.4375 L 13.402344 7.273438 L 13.402344 7.167969 L 13.277344 7.148438 L 13.238281 7.105469 L 13.257812 7.003906 L 13.382812 6.773438 L 13.402344 6.628906 L 13.445312 6.378906 L 13.507812 6.234375 L 13.402344 6.191406 L 13.257812 6.027344 L 13.214844 5.921875 L 13.214844 5.777344 L 13.320312 5.570312 L 13.507812 5.40625 L 13.777344 5.28125 Z M 14.066406 5.21875 "/>
<path style=" stroke:none;fill-rule:nonzero;fill:rgb(98.823529%,98.431373%,98.431373%);fill-opacity:1;" d="M 15.082031 16.316406 L 15.105469 16.316406 L 15.1875 16.730469 L 15.289062 16.980469 L 15.394531 17.125 L 15.621094 17.6875 L 15.828125 18.269531 L 16.039062 18.953125 L 16.160156 19.53125 L 16.160156 19.804688 L 16.203125 20.03125 L 16.347656 20.09375 L 16.390625 20.445312 L 16.390625 20.570312 L 16.371094 20.488281 L 16.160156 20.589844 L 16.140625 20.632812 L 16.203125 20.757812 L 16.160156 20.757812 L 16.078125 20.652344 L 15.976562 20.695312 L 15.976562 20.738281 L 15.851562 20.820312 L 15.871094 20.921875 L 15.828125 20.921875 L 15.808594 20.859375 L 15.621094 20.902344 L 15.375 20.964844 L 15.25 21.007812 L 15.207031 21.128906 L 17.199219 21.128906 L 17.21875 21.089844 L 17.21875 21.234375 L 17.304688 21.253906 L 17.363281 21.070312 L 17.46875 20.859375 L 17.613281 20.675781 L 17.78125 20.488281 L 18.050781 20.300781 L 18.359375 20.15625 L 18.609375 20.09375 L 18.777344 20.074219 L 20.664062 20.074219 L 20.707031 20.09375 L 20.707031 20.21875 L 20.539062 20.34375 L 20.558594 20.40625 L 20.496094 20.507812 L 20.4375 20.570312 L 20.351562 20.613281 L 20 20.632812 L 19.710938 20.777344 L 19.605469 20.738281 L 19.441406 20.632812 L 19.210938 20.550781 L 19.085938 20.527344 L 18.714844 20.527344 L 18.421875 20.613281 L 18.195312 20.738281 L 17.945312 20.964844 L 17.800781 21.191406 L 17.78125 21.253906 L 17.800781 21.339844 L 17.945312 21.089844 L 18.050781 20.964844 L 18.296875 20.777344 L 18.546875 20.675781 L 18.753906 20.632812 L 19.003906 20.632812 L 19.273438 20.695312 L 19.523438 20.820312 L 19.730469 21.007812 L 19.855469 21.152344 L 19.980469 21.402344 L 20.042969 21.710938 L 20.042969 21.878906 L 19.980469 22.167969 L 19.835938 22.457031 L 19.648438 22.664062 L 19.480469 22.789062 L 19.210938 22.914062 L 19.046875 22.957031 L 18.714844 22.957031 L 18.445312 22.875 L 18.238281 22.769531 L 18.027344 22.582031 L 17.90625 22.4375 L 17.78125 22.1875 L 17.738281 22.0625 L 12.15625 22.042969 L 12.03125 21.980469 L 11.972656 21.898438 L 11.804688 21.421875 L 11.472656 21.402344 L 11.472656 21.253906 L 11.847656 21.234375 L 11.617188 20.964844 L 11.578125 20.921875 L 11.824219 20.613281 L 11.886719 20.507812 L 11.929688 20.507812 L 11.972656 20.425781 L 12.15625 20.175781 L 12.488281 19.742188 L 12.738281 19.410156 L 13.070312 18.972656 L 13.320312 18.640625 L 13.652344 18.207031 L 13.902344 17.875 L 14.003906 17.726562 L 14.046875 17.789062 L 14.148438 18.496094 L 14.191406 18.871094 L 14.210938 19.179688 L 14.210938 19.699219 L 14.191406 19.761719 L 14.191406 19.949219 L 14.253906 20.074219 L 14.335938 20.136719 L 14.335938 20.46875 L 14.109375 20.570312 L 14.066406 20.570312 L 14.148438 20.695312 L 14.128906 20.738281 L 14.046875 20.632812 L 13.941406 20.652344 L 13.941406 20.714844 L 13.984375 20.820312 L 13.941406 20.820312 L 13.902344 20.695312 L 13.777344 20.757812 L 13.777344 20.882812 L 13.734375 20.859375 L 13.734375 20.796875 L 13.296875 20.945312 L 13.027344 21.007812 L 12.96875 21.152344 L 15.144531 21.128906 L 15.125 20.839844 L 15.082031 20.550781 L 15.042969 20.488281 L 14.957031 20.46875 L 14.957031 20.175781 L 15.144531 20.074219 L 15.144531 19.742188 L 15.105469 18.371094 L 15.0625 17.5625 L 14.980469 16.816406 L 14.9375 16.609375 L 15 16.421875 Z M 15.082031 16.316406 "/>
<path style=" stroke:none;fill-rule:nonzero;fill:rgb(8.235294%,15.686275%,21.176471%);fill-opacity:1;" d="M 18.753906 20.632812 L 19.003906 20.632812 L 19.273438 20.695312 L 19.523438 20.820312 L 19.730469 21.007812 L 19.855469 21.152344 L 19.980469 21.402344 L 20.042969 21.710938 L 20.042969 21.878906 L 19.980469 22.167969 L 19.835938 22.457031 L 19.648438 22.664062 L 19.480469 22.789062 L 19.210938 22.914062 L 19.046875 22.957031 L 18.714844 22.957031 L 18.445312 22.875 L 18.238281 22.769531 L 18.027344 22.582031 L 17.90625 22.4375 L 17.78125 22.1875 L 17.738281 22.0625 L 12.15625 22.042969 L 12.03125 21.980469 L 11.972656 21.898438 L 11.804688 21.421875 L 11.472656 21.402344 L 11.472656 21.277344 L 12.96875 21.277344 L 14.292969 21.296875 L 15.082031 21.296875 L 15.144531 21.277344 L 17.800781 21.277344 L 17.800781 21.339844 L 17.945312 21.089844 L 18.050781 20.964844 L 18.296875 20.777344 L 18.546875 20.675781 Z M 18.753906 20.632812 "/>
<path style=" stroke:none;fill-rule:nonzero;fill:rgb(98.823529%,98.823529%,98.823529%);fill-opacity:1;" d="M 13.921875 11.816406 L 13.941406 11.816406 L 13.921875 12.0625 L 13.859375 12.480469 L 13.777344 12.8125 L 13.777344 13.082031 L 13.859375 13.246094 L 13.921875 13.308594 L 13.878906 13.910156 L 13.859375 14.054688 L 13.257812 14.84375 L 13.007812 15.175781 L 12.675781 15.613281 L 12.425781 15.945312 L 12.09375 16.378906 L 11.847656 16.710938 L 11.515625 17.148438 L 11.265625 17.480469 L 11.121094 17.664062 L 11.097656 17.582031 L 11.535156 15.675781 L 12.136719 13.019531 L 12.199219 12.75 L 12.199219 12.625 L 12.117188 12.5625 L 11.886719 12.5 L 11.910156 12.457031 L 12.324219 12.292969 L 12.46875 12.375 L 12.757812 12.375 L 13.070312 12.273438 L 13.589844 12.023438 L 13.902344 11.835938 Z M 13.921875 11.816406 "/>
<path style=" stroke:none;fill-rule:nonzero;fill:rgb(88.627451%,58.823529%,17.647059%);fill-opacity:1;" d="M 16.140625 14.90625 L 16.160156 14.90625 L 16.203125 15.984375 L 16.285156 16.402344 L 16.429688 16.730469 L 16.578125 17.210938 L 16.722656 17.832031 L 16.867188 18.621094 L 17.011719 19.65625 L 17.054688 19.742188 L 17.054688 19.988281 L 16.972656 20.050781 L 16.992188 20.488281 L 17.09375 20.507812 L 17.117188 20.527344 L 17.15625 20.777344 L 17.199219 20.945312 L 17.199219 21.128906 L 15.207031 21.152344 L 15.1875 21.089844 L 15.25 20.984375 L 15.375 20.945312 L 15.621094 20.882812 L 15.808594 20.839844 L 15.828125 20.921875 L 15.871094 20.921875 L 15.828125 20.820312 L 15.933594 20.738281 L 15.976562 20.738281 L 15.976562 20.695312 L 16.097656 20.632812 L 16.160156 20.714844 L 16.121094 20.613281 L 16.308594 20.488281 L 16.371094 20.488281 L 16.347656 20.09375 L 16.246094 20.074219 L 16.183594 20.03125 L 16.140625 19.804688 L 16.140625 19.53125 L 16.015625 18.953125 L 15.789062 18.207031 L 15.582031 17.625 L 15.375 17.125 L 15.226562 16.898438 L 15.144531 16.671875 L 15.082031 16.296875 L 15.332031 15.984375 L 15.621094 15.589844 L 15.914062 15.21875 Z M 16.140625 14.90625 "/>
<path style=" stroke:none;fill-rule:nonzero;fill:rgb(94.901961%,55.686275%,34.901961%);fill-opacity:1;" d="M 14.066406 5.21875 L 14.210938 5.238281 L 14.398438 5.382812 L 14.542969 5.613281 L 14.625 5.839844 L 14.667969 6.171875 L 14.8125 6.171875 L 14.894531 6.191406 L 14.835938 5.796875 L 14.730469 5.527344 L 14.585938 5.300781 L 14.5625 5.257812 L 14.75 5.300781 L 15.019531 5.445312 L 15.289062 5.714844 L 15.457031 5.839844 L 15.582031 5.984375 L 15.664062 6.214844 L 15.664062 6.460938 L 15.582031 6.753906 L 15.4375 7.023438 L 15.3125 7.167969 L 15.125 7.292969 L 15.019531 7.355469 L 15.125 7.726562 L 15.125 7.8125 L 14.75 7.9375 L 14.460938 8.101562 L 14.417969 8.121094 L 14.273438 7.726562 L 14.085938 7.769531 L 13.902344 7.832031 L 13.652344 7.832031 L 13.546875 7.726562 L 13.445312 7.4375 L 13.402344 7.273438 L 13.402344 7.167969 L 13.277344 7.148438 L 13.238281 7.105469 L 13.257812 7.003906 L 13.382812 6.773438 L 13.402344 6.628906 L 13.445312 6.378906 L 13.507812 6.234375 L 13.402344 6.191406 L 13.257812 6.027344 L 13.214844 5.921875 L 13.214844 5.777344 L 13.320312 5.570312 L 13.507812 5.40625 L 13.777344 5.28125 Z M 14.066406 5.21875 "/>
<path style=" stroke:none;fill-rule:nonzero;fill:rgb(98.823529%,98.823529%,98.823529%);fill-opacity:1;" d="M 14.003906 17.726562 L 14.046875 17.789062 L 14.148438 18.496094 L 14.191406 18.871094 L 14.210938 19.179688 L 14.210938 19.699219 L 14.191406 19.761719 L 14.191406 19.949219 L 14.253906 20.074219 L 14.335938 20.136719 L 14.335938 20.46875 L 14.109375 20.570312 L 14.066406 20.570312 L 14.148438 20.695312 L 14.128906 20.738281 L 14.046875 20.632812 L 13.941406 20.652344 L 13.941406 20.714844 L 13.984375 20.820312 L 13.941406 20.820312 L 13.902344 20.695312 L 13.777344 20.757812 L 13.777344 20.882812 L 13.734375 20.859375 L 13.734375 20.796875 L 13.296875 20.945312 L 13.027344 21.007812 L 12.988281 21.070312 L 12.96875 21.253906 L 12.53125 21.253906 L 12.28125 20.984375 L 12.09375 20.757812 L 11.910156 20.550781 L 11.949219 20.445312 L 12.15625 20.175781 L 12.488281 19.742188 L 12.738281 19.410156 L 13.070312 18.972656 L 13.320312 18.640625 L 13.652344 18.207031 L 13.902344 17.875 Z M 14.003906 17.726562 "/>
<path style=" stroke:none;fill-rule:nonzero;fill:rgb(93.333333%,69.803922%,18.431373%);fill-opacity:1;" d="M 14.957031 16.460938 L 14.980469 16.503906 L 14.957031 16.628906 L 15.019531 16.960938 L 15.082031 17.5625 L 15.125 18.371094 L 15.164062 19.742188 L 15.164062 20.074219 L 15.082031 20.136719 L 14.957031 20.175781 L 14.957031 20.46875 L 15.0625 20.488281 L 15.105469 20.550781 L 15.164062 20.984375 L 15.164062 21.128906 L 15.144531 21.152344 L 12.96875 21.152344 L 12.988281 21.027344 L 13.070312 20.964844 L 13.445312 20.882812 L 13.671875 20.796875 L 13.734375 20.796875 L 13.753906 20.820312 L 13.777344 20.738281 L 13.839844 20.695312 L 13.902344 20.695312 L 13.941406 20.757812 L 13.941406 20.820312 L 13.941406 20.738281 L 13.902344 20.652344 L 13.960938 20.613281 L 14.066406 20.632812 L 14.128906 20.695312 L 14.066406 20.613281 L 14.066406 20.570312 L 14.273438 20.46875 L 14.335938 20.46875 L 14.316406 20.136719 L 14.210938 20.050781 L 14.171875 19.949219 L 14.171875 19.761719 L 14.191406 19.699219 L 14.191406 19.179688 L 14.148438 18.683594 L 14.046875 17.914062 L 14.023438 17.707031 L 14.460938 17.125 L 14.792969 16.691406 Z M 14.957031 16.460938 "/>
<path style=" stroke:none;fill-rule:nonzero;fill:rgb(14.509804%,21.960784%,29.411765%);fill-opacity:1;" d="M 11.347656 12.375 L 11.492188 12.375 L 11.597656 12.480469 L 11.617188 12.605469 L 11.867188 12.542969 L 11.867188 12.5 L 12.03125 12.519531 L 12.179688 12.582031 L 12.21875 12.625 L 12.199219 12.832031 L 11.804688 14.574219 L 11.285156 16.855469 L 11.097656 17.6875 L 10.789062 18.121094 L 10.664062 18.101562 L 10.664062 18.039062 L 10.601562 18.039062 L 10.644531 17.789062 L 10.683594 17.6875 L 10.746094 17.6875 L 10.851562 17.167969 L 11.078125 16.152344 L 11.058594 16.046875 L 10.976562 15.839844 L 10.933594 15.550781 L 10.953125 15.175781 L 11.039062 14.78125 L 11.246094 14.078125 L 11.328125 13.578125 L 11.347656 13.308594 L 11.347656 12.769531 L 11.246094 12.6875 L 11.222656 12.644531 L 11.222656 12.5 L 11.308594 12.394531 Z M 11.347656 12.375 "/>
<path style=" stroke:none;fill-rule:nonzero;fill:rgb(84.313725%,79.607843%,73.333333%);fill-opacity:1;" d="M 18.777344 20.074219 L 20.664062 20.074219 L 20.707031 20.09375 L 20.707031 20.21875 L 20.539062 20.34375 L 20.558594 20.40625 L 20.496094 20.507812 L 20.4375 20.570312 L 20.351562 20.613281 L 20 20.632812 L 19.710938 20.777344 L 19.605469 20.738281 L 19.441406 20.632812 L 19.210938 20.550781 L 19.085938 20.527344 L 18.714844 20.527344 L 18.421875 20.613281 L 18.195312 20.738281 L 17.945312 20.964844 L 17.800781 21.191406 L 17.757812 21.296875 L 15.144531 21.296875 L 15.082031 21.316406 L 14.292969 21.316406 L 11.472656 21.277344 L 11.472656 21.253906 L 11.847656 21.234375 L 11.617188 20.964844 L 11.578125 20.921875 L 11.910156 20.507812 L 12.09375 20.738281 L 12.28125 20.945312 L 12.46875 21.171875 L 12.53125 21.234375 L 12.96875 21.253906 L 12.945312 21.171875 L 12.96875 21.152344 L 15.226562 21.128906 L 17.199219 21.128906 L 17.21875 21.089844 L 17.21875 21.234375 L 17.304688 21.253906 L 17.363281 21.070312 L 17.46875 20.859375 L 17.613281 20.675781 L 17.78125 20.488281 L 18.050781 20.300781 L 18.359375 20.15625 L 18.609375 20.09375 Z M 18.777344 20.074219 "/>
<path style=" stroke:none;fill-rule:nonzero;fill:rgb(0%,0%,0%);fill-opacity:1;" d="M 21.679688 5.550781 L 21.761719 5.570312 L 21.785156 5.613281 L 21.492188 6.007812 L 21.203125 6.378906 L 20.953125 6.710938 L 20.621094 7.148438 L 20.375 7.480469 L 20.042969 7.914062 L 19.792969 8.246094 L 19.460938 8.683594 L 19.210938 9.015625 L 18.878906 9.449219 L 18.628906 9.78125 L 18.296875 10.21875 L 18.050781 10.550781 L 17.71875 10.984375 L 17.46875 11.316406 L 17.136719 11.753906 L 16.886719 12.085938 L 16.554688 12.519531 L 16.265625 12.914062 L 15.976562 13.289062 L 15.726562 13.621094 L 15.394531 14.054688 L 15.144531 14.386719 L 14.8125 14.824219 L 14.5625 15.15625 L 14.230469 15.589844 L 13.984375 15.921875 L 13.652344 16.359375 L 13.464844 16.609375 L 13.132812 17.042969 L 12.882812 17.375 L 12.550781 17.8125 L 12.304688 18.144531 L 11.972656 18.578125 L 11.722656 18.910156 L 11.390625 19.347656 L 11.140625 19.679688 L 10.808594 20.113281 L 10.558594 20.445312 L 10.226562 20.882812 L 9.980469 21.214844 L 9.648438 21.648438 L 9.355469 22.042969 L 9.066406 22.417969 L 8.816406 22.75 L 8.484375 23.183594 L 8.238281 23.515625 L 7.90625 23.953125 L 7.800781 24.054688 L 7.738281 23.972656 L 8.027344 23.597656 L 8.214844 23.351562 L 8.546875 22.914062 L 8.796875 22.582031 L 9.128906 22.148438 L 9.417969 21.753906 L 9.710938 21.378906 L 10 20.984375 L 10.289062 20.613281 L 10.539062 20.28125 L 10.871094 19.84375 L 11.121094 19.511719 L 11.453125 19.078125 L 11.703125 18.746094 L 12.03125 18.308594 L 12.28125 17.976562 L 12.613281 17.542969 L 12.863281 17.210938 L 13.195312 16.773438 L 13.445312 16.441406 L 13.777344 16.007812 L 14.023438 15.675781 L 14.355469 15.238281 L 14.605469 14.90625 L 14.9375 14.472656 L 15.1875 14.140625 L 15.519531 13.703125 L 15.808594 13.308594 L 16.097656 12.9375 L 16.347656 12.605469 L 16.679688 12.167969 L 16.867188 11.917969 L 17.199219 11.484375 L 17.449219 11.152344 L 17.78125 10.714844 L 18.027344 10.382812 L 18.359375 9.949219 L 18.609375 9.617188 L 18.941406 9.179688 L 19.191406 8.847656 L 19.523438 8.414062 L 19.773438 8.082031 L 20.105469 7.644531 L 20.351562 7.3125 L 20.683594 6.878906 L 20.933594 6.546875 L 21.265625 6.109375 L 21.515625 5.777344 Z M 21.679688 5.550781 "/>
<path style=" stroke:none;fill-rule:nonzero;fill:rgb(18.823529%,27.058824%,40%);fill-opacity:1;" d="M 14.066406 5.21875 L 14.210938 5.238281 L 14.398438 5.382812 L 14.542969 5.613281 L 14.625 5.839844 L 14.667969 6.171875 L 14.441406 6.253906 L 14.316406 6.359375 L 14.273438 6.421875 L 13.921875 6.421875 L 13.609375 6.316406 L 13.382812 6.171875 L 13.257812 6.027344 L 13.214844 5.921875 L 13.214844 5.777344 L 13.320312 5.570312 L 13.507812 5.40625 L 13.777344 5.28125 Z M 14.066406 5.21875 "/>
<path style=" stroke:none;fill-rule:nonzero;fill:rgb(18.823529%,27.058824%,40%);fill-opacity:1;" d="M 18.714844 21.089844 L 19.046875 21.089844 L 19.253906 21.171875 L 19.460938 21.339844 L 19.460938 21.402344 L 19.503906 21.402344 L 19.5625 21.566406 L 19.585938 21.648438 L 19.585938 21.960938 L 19.503906 22.167969 L 19.316406 22.375 L 19.109375 22.480469 L 19.046875 22.5 L 18.714844 22.5 L 18.484375 22.417969 L 18.484375 22.375 L 18.402344 22.335938 L 18.257812 22.167969 L 18.214844 22.042969 L 18.960938 22.023438 L 19.046875 21.960938 L 19.046875 21.710938 L 18.984375 21.628906 L 18.546875 21.546875 L 18.238281 21.484375 L 18.277344 21.378906 L 18.464844 21.191406 L 18.609375 21.109375 Z M 18.714844 21.089844 "/>
<path style=" stroke:none;fill-rule:nonzero;fill:rgb(84.705882%,78.431373%,70.980392%);fill-opacity:1;" d="M 11.886719 20.507812 L 11.992188 20.613281 L 12.261719 20.921875 L 12.511719 21.214844 L 12.53125 21.234375 L 12.96875 21.253906 L 12.945312 21.171875 L 12.96875 21.152344 L 15.226562 21.128906 L 17.199219 21.128906 L 17.21875 21.089844 L 17.21875 21.277344 L 17.15625 21.296875 L 15.144531 21.296875 L 15.082031 21.316406 L 14.292969 21.316406 L 11.472656 21.277344 L 11.472656 21.253906 L 11.847656 21.234375 L 11.617188 20.964844 L 11.578125 20.921875 L 11.824219 20.613281 Z M 11.886719 20.507812 "/>
<path style=" stroke:none;fill-rule:nonzero;fill:rgb(18.823529%,27.058824%,40%);fill-opacity:1;" d="M 14.5625 5.257812 L 14.75 5.300781 L 15.019531 5.445312 L 15.289062 5.714844 L 15.457031 5.839844 L 15.582031 5.984375 L 15.664062 6.214844 L 15.664062 6.460938 L 15.582031 6.753906 L 15.4375 7.023438 L 15.3125 7.167969 L 15.125 7.292969 L 14.917969 7.375 L 14.730469 7.417969 L 14.503906 7.4375 L 14.542969 7.1875 L 14.792969 7.1875 L 14.9375 7.148438 L 15.105469 7.023438 L 15.1875 6.878906 L 15.207031 6.792969 L 15.207031 6.585938 L 15.144531 6.421875 L 15.042969 6.296875 L 14.894531 6.214844 L 14.855469 5.882812 L 14.75 5.570312 L 14.625 5.363281 Z M 14.5625 5.257812 "/>
<path style=" stroke:none;fill-rule:nonzero;fill:rgb(98.039216%,98.039216%,97.647059%);fill-opacity:1;" d="M 11.578125 12.6875 L 11.742188 12.707031 L 11.824219 12.75 L 11.847656 12.832031 L 11.390625 14.863281 L 11.121094 16.046875 L 11.058594 15.964844 L 10.976562 15.632812 L 10.976562 15.300781 L 11.039062 14.925781 L 11.183594 14.410156 L 11.285156 14.054688 L 11.347656 13.703125 L 11.390625 13.144531 L 11.390625 12.769531 L 11.535156 12.726562 Z M 11.578125 12.6875 "/>
<path style=" stroke:none;fill-rule:nonzero;fill:rgb(85.882353%,7.843137%,7.45098%);fill-opacity:1;" d="M 14.273438 20.46875 L 14.335938 20.488281 L 14.378906 20.613281 L 14.417969 20.632812 L 14.835938 20.632812 L 14.9375 20.613281 L 14.957031 20.46875 L 15.0625 20.488281 L 15.105469 20.550781 L 15.164062 20.984375 L 15.164062 21.128906 L 15.144531 21.152344 L 12.96875 21.152344 L 12.988281 21.027344 L 13.070312 20.964844 L 13.445312 20.882812 L 13.671875 20.796875 L 13.734375 20.796875 L 13.753906 20.820312 L 13.777344 20.738281 L 13.839844 20.695312 L 13.902344 20.695312 L 13.941406 20.757812 L 13.941406 20.820312 L 13.941406 20.738281 L 13.902344 20.652344 L 13.960938 20.613281 L 14.066406 20.632812 L 14.128906 20.695312 L 14.066406 20.613281 L 14.066406 20.570312 Z M 14.273438 20.46875 "/>
<path style=" stroke:none;fill-rule:nonzero;fill:rgb(85.882353%,7.843137%,7.45098%);fill-opacity:1;" d="M 16.308594 20.488281 L 16.371094 20.488281 L 16.390625 20.589844 L 16.472656 20.632812 L 16.910156 20.632812 L 16.972656 20.589844 L 16.992188 20.488281 L 17.09375 20.507812 L 17.117188 20.527344 L 17.15625 20.777344 L 17.199219 20.945312 L 17.199219 21.128906 L 15.207031 21.152344 L 15.1875 21.089844 L 15.25 20.984375 L 15.375 20.945312 L 15.621094 20.882812 L 15.808594 20.839844 L 15.828125 20.921875 L 15.871094 20.921875 L 15.828125 20.820312 L 15.933594 20.738281 L 15.976562 20.738281 L 15.976562 20.695312 L 16.097656 20.632812 L 16.160156 20.714844 L 16.121094 20.613281 Z M 16.308594 20.488281 "/>
<path style=" stroke:none;fill-rule:nonzero;fill:rgb(93.333333%,69.803922%,18.431373%);fill-opacity:1;" d="M 14.273438 17.375 L 14.292969 17.375 L 14.417969 18.207031 L 14.523438 19.054688 L 14.542969 19.347656 L 14.542969 19.84375 L 14.398438 19.824219 L 14.210938 19.699219 L 14.171875 18.871094 L 14.085938 18.183594 L 14.023438 17.789062 L 14.046875 17.664062 Z M 14.273438 17.375 "/>
<path style=" stroke:none;fill-rule:nonzero;fill:rgb(88.627451%,58.823529%,17.647059%);fill-opacity:1;" d="M 14.292969 17.355469 L 14.335938 17.394531 L 14.503906 18.539062 L 14.5625 19.117188 L 14.585938 19.449219 L 14.585938 19.863281 L 14.792969 19.863281 L 15 19.824219 L 15.164062 19.742188 L 15.164062 20.074219 L 15.082031 20.136719 L 14.957031 20.175781 L 14.957031 20.550781 L 14.9375 20.613281 L 14.835938 20.652344 L 14.417969 20.652344 L 14.355469 20.613281 L 14.316406 20.46875 L 14.316406 20.136719 L 14.210938 20.050781 L 14.171875 19.949219 L 14.171875 19.761719 L 14.191406 19.699219 L 14.292969 19.742188 L 14.460938 19.824219 L 14.542969 19.84375 L 14.503906 19.054688 L 14.355469 17.894531 L 14.292969 17.5 Z M 14.292969 17.355469 "/>
<path style=" stroke:none;fill-rule:nonzero;fill:rgb(18.823529%,27.058824%,40%);fill-opacity:1;" d="M 11.472656 21.277344 L 12.96875 21.277344 L 14.292969 21.296875 L 15.082031 21.296875 L 15.144531 21.277344 L 17.800781 21.277344 L 17.820312 21.378906 L 17.800781 21.421875 L 11.804688 21.421875 L 11.472656 21.402344 Z M 11.472656 21.277344 "/>
<path style=" stroke:none;fill-rule:nonzero;fill:rgb(8.235294%,15.294118%,20.784314%);fill-opacity:1;" d="M 14.273438 10.882812 L 14.460938 10.882812 L 14.5625 10.964844 L 14.625 11.089844 L 14.625 11.253906 L 14.542969 11.339844 L 14.503906 11.339844 L 14.503906 11.378906 L 14.273438 11.566406 L 14.109375 11.710938 L 13.777344 11.941406 L 13.628906 11.917969 L 13.507812 11.816406 L 13.507812 11.671875 L 13.609375 11.484375 L 13.796875 11.253906 L 14.085938 10.984375 Z M 14.273438 10.882812 "/>
<path style=" stroke:none;fill-rule:nonzero;fill:rgb(8.235294%,15.294118%,20.784314%);fill-opacity:1;" d="M 11.097656 21.566406 L 11.140625 21.628906 L 11.140625 21.980469 L 11.058594 22.25 L 10.933594 22.480469 L 10.769531 22.664062 L 10.558594 22.8125 L 10.269531 22.9375 L 10.0625 22.957031 L 10.1875 22.769531 L 10.394531 22.5 L 10.644531 22.167969 L 10.976562 21.730469 Z M 11.097656 21.566406 "/>
<path style=" stroke:none;fill-rule:nonzero;fill:rgb(94.901961%,55.294118%,34.509804%);fill-opacity:1;" d="M 12.054688 11.980469 L 12.117188 11.980469 L 12.261719 12.230469 L 12.304688 12.3125 L 11.910156 12.480469 L 11.824219 12.5625 L 11.703125 12.605469 L 11.617188 12.605469 L 11.554688 12.4375 L 11.492188 12.394531 L 11.347656 12.394531 L 11.246094 12.5 L 11.246094 12.644531 L 11.347656 12.75 L 11.347656 12.789062 L 11.246094 12.769531 L 11.058594 12.644531 L 10.953125 12.5625 L 11.015625 12.375 L 11.121094 12.210938 L 11.183594 12.148438 L 11.761719 12.148438 L 11.972656 12.042969 Z M 12.054688 11.980469 "/>
<path style=" stroke:none;fill-rule:nonzero;fill:rgb(84.313725%,79.215686%,72.54902%);fill-opacity:1;" d="M 14.773438 6.316406 L 14.9375 6.339844 L 15.0625 6.421875 L 15.144531 6.523438 L 15.1875 6.628906 L 15.164062 6.835938 L 15.082031 6.960938 L 14.980469 7.042969 L 14.917969 7.0625 L 14.6875 7.0625 L 14.542969 6.980469 L 14.460938 6.855469 L 14.441406 6.792969 L 14.441406 6.585938 L 14.5625 6.402344 L 14.667969 6.339844 Z M 14.773438 6.316406 "/>
<path style=" stroke:none;fill-rule:nonzero;fill:rgb(85.882353%,7.058824%,7.058824%);fill-opacity:1;" d="M 14.605469 6.171875 L 14.8125 6.171875 L 14.980469 6.234375 L 15.125 6.359375 L 15.207031 6.503906 L 15.226562 6.585938 L 15.226562 6.792969 L 15.164062 6.960938 L 15.042969 7.105469 L 14.894531 7.1875 L 14.792969 7.210938 L 14.625 7.210938 L 14.441406 7.148438 L 14.273438 7.003906 L 14.191406 6.792969 L 14.191406 6.566406 L 14.292969 6.359375 L 14.441406 6.234375 Z M 14.773438 6.316406 L 14.625 6.359375 L 14.523438 6.441406 L 14.441406 6.585938 L 14.441406 6.792969 L 14.503906 6.917969 L 14.605469 7.023438 L 14.6875 7.0625 L 14.917969 7.0625 L 15.0625 6.980469 L 15.144531 6.878906 L 15.1875 6.753906 L 15.164062 6.566406 L 15.082031 6.441406 L 14.980469 6.359375 L 14.855469 6.316406 Z M 14.773438 6.316406 "/>
<path style=" stroke:none;fill-rule:nonzero;fill:rgb(84.313725%,80%,73.72549%);fill-opacity:1;" d="M 18.527344 22.894531 L 18.714844 22.9375 L 19.046875 22.9375 L 19.230469 22.894531 L 19.625 22.914062 L 19.625 22.976562 L 12.738281 22.976562 L 12.738281 22.914062 Z M 18.527344 22.894531 "/>
<path style=" stroke:none;fill-rule:nonzero;fill:rgb(84.313725%,79.607843%,72.941176%);fill-opacity:1;" d="M 11.886719 20.507812 L 11.992188 20.613281 L 12.261719 20.921875 L 12.511719 21.214844 L 12.550781 21.277344 L 11.472656 21.277344 L 11.472656 21.253906 L 11.847656 21.234375 L 11.617188 20.964844 L 11.578125 20.921875 L 11.824219 20.613281 Z M 11.886719 20.507812 "/>
<path style=" stroke:none;fill-rule:nonzero;fill:rgb(95.686275%,56.862745%,35.686275%);fill-opacity:1;" d="M 16.910156 20.074219 L 16.972656 20.09375 L 16.992188 20.589844 L 16.910156 20.652344 L 16.472656 20.652344 L 16.371094 20.589844 L 16.347656 20.09375 L 16.847656 20.09375 Z M 16.910156 20.074219 "/>
<path style=" stroke:none;fill-rule:nonzero;fill:rgb(95.294118%,56.862745%,35.686275%);fill-opacity:1;" d="M 14.335938 20.136719 L 14.523438 20.195312 L 14.8125 20.195312 L 14.957031 20.175781 L 14.957031 20.550781 L 14.9375 20.613281 L 14.835938 20.652344 L 14.417969 20.652344 L 14.355469 20.613281 L 14.316406 20.46875 Z M 14.335938 20.136719 "/>
<path style=" stroke:none;fill-rule:nonzero;fill:rgb(90.588235%,31.372549%,20.784314%);fill-opacity:1;" d="M 12.363281 21.835938 L 18.816406 21.855469 L 18.816406 21.898438 L 12.363281 21.917969 Z M 12.363281 21.835938 "/>
<path style=" stroke:none;fill-rule:nonzero;fill:rgb(84.313725%,79.607843%,73.333333%);fill-opacity:1;" d="M 14.230469 5.15625 L 14.398438 5.15625 L 14.585938 5.238281 L 14.625 5.34375 L 14.75 5.527344 L 14.855469 5.796875 L 14.894531 6.007812 L 14.894531 6.191406 L 14.667969 6.171875 L 14.585938 5.777344 L 14.480469 5.527344 L 14.335938 5.34375 L 14.148438 5.21875 L 14.171875 5.175781 Z M 14.230469 5.15625 "/>
<path style=" stroke:none;fill-rule:nonzero;fill:rgb(1.176471%,2.352941%,3.137255%);fill-opacity:1;" d="M 18.691406 21.027344 L 19.046875 21.027344 L 19.253906 21.109375 L 19.378906 21.191406 L 19.523438 21.339844 L 19.625 21.546875 L 19.648438 21.628906 L 19.648438 21.960938 L 19.585938 22.125 L 19.460938 22.3125 L 19.292969 22.457031 L 19.128906 22.542969 L 19.046875 22.5625 L 18.714844 22.5625 L 18.527344 22.5 L 18.359375 22.375 L 18.195312 22.1875 L 18.152344 22.105469 L 18.152344 22.042969 L 18.238281 22.085938 L 18.339844 22.25 L 18.484375 22.375 L 18.484375 22.417969 L 18.589844 22.4375 L 18.714844 22.480469 L 19.046875 22.480469 L 19.253906 22.394531 L 19.417969 22.25 L 19.523438 22.085938 L 19.5625 21.960938 L 19.5625 21.648438 L 19.503906 21.402344 L 19.460938 21.402344 L 19.460938 21.339844 L 19.378906 21.296875 L 19.210938 21.171875 L 19.046875 21.109375 L 18.714844 21.109375 L 18.589844 21.152344 L 18.421875 21.253906 L 18.238281 21.460938 L 18.175781 21.441406 L 18.277344 21.277344 L 18.320312 21.277344 L 18.320312 21.234375 L 18.484375 21.109375 Z M 18.691406 21.027344 "/>
<path style=" stroke:none;fill-rule:nonzero;fill:rgb(92.54902%,67.843137%,18.431373%);fill-opacity:1;" d="M 14.355469 13.164062 L 14.523438 13.164062 L 14.398438 13.351562 L 14.128906 13.703125 L 13.878906 14.035156 L 13.859375 14.035156 L 13.878906 13.578125 L 13.902344 13.351562 L 13.984375 13.269531 L 14.273438 13.183594 Z M 14.355469 13.164062 "/>
<path style=" stroke:none;fill-rule:nonzero;fill:rgb(18.823529%,27.058824%,39.607843%);fill-opacity:1;" d="M 11.347656 12.375 L 11.492188 12.375 L 11.597656 12.480469 L 11.617188 12.519531 L 11.617188 12.644531 L 11.640625 12.6875 L 11.492188 12.769531 L 11.347656 12.769531 L 11.246094 12.6875 L 11.222656 12.644531 L 11.222656 12.5 L 11.308594 12.394531 Z M 11.347656 12.375 "/>
<path style=" stroke:none;fill-rule:nonzero;fill:rgb(18.823529%,27.058824%,39.607843%);fill-opacity:1;" d="M 10.746094 17.644531 L 10.769531 17.6875 L 11.039062 17.726562 L 11.015625 17.8125 L 10.789062 18.121094 L 10.664062 18.101562 L 10.664062 18.039062 L 10.601562 18.039062 L 10.644531 17.789062 L 10.683594 17.6875 L 10.746094 17.6875 Z M 10.746094 17.644531 "/>
<path style=" stroke:none;fill-rule:nonzero;fill:rgb(84.313725%,80%,73.72549%);fill-opacity:1;" d="M 10.3125 22.894531 L 11.660156 22.914062 L 11.679688 22.976562 L 10.042969 22.976562 L 10.042969 22.957031 Z M 10.3125 22.894531 "/>
<path style=" stroke:none;fill-rule:nonzero;fill:rgb(19.215686%,27.45098%,40.392157%);fill-opacity:1;" d="M 11.328125 21.277344 L 11.371094 21.359375 L 11.410156 21.546875 L 11.410156 21.816406 L 11.285156 21.792969 L 11.160156 21.710938 L 11.140625 21.523438 Z M 11.328125 21.277344 "/>
<path style=" stroke:none;fill-rule:nonzero;fill:rgb(84.313725%,80%,73.72549%);fill-opacity:1;" d="M 20.019531 22.914062 L 21.535156 22.914062 L 21.535156 22.976562 L 20.019531 22.976562 Z M 20.019531 22.914062 "/>
<path style=" stroke:none;fill-rule:nonzero;fill:rgb(92.941176%,61.568627%,55.294118%);fill-opacity:1;" d="M 5.164062 3.871094 L 5.207031 3.890625 L 5 4.054688 L 4.855469 4.222656 L 4.046875 5.03125 L 4.003906 5.03125 L 3.960938 5.113281 L 3.859375 5.195312 L 3.902344 5.113281 L 3.960938 5.03125 L 4.003906 4.96875 L 4.128906 4.886719 L 4.148438 4.824219 L 4.292969 4.679688 L 4.335938 4.65625 L 4.355469 4.59375 L 4.417969 4.59375 L 4.460938 4.511719 L 4.5625 4.410156 L 4.6875 4.304688 L 4.792969 4.203125 L 4.9375 4.078125 L 5.042969 3.972656 Z M 5.164062 3.871094 "/>
<path style=" stroke:none;fill-rule:nonzero;fill:rgb(13.72549%,21.176471%,29.019608%);fill-opacity:1;" d="M 10.644531 17.375 L 10.683594 17.375 L 10.664062 17.5625 L 10.539062 18.144531 L 10.558594 18.269531 L 10.519531 18.289062 L 10.4375 18.226562 L 10.4375 17.996094 Z M 10.644531 17.375 "/>
<path style=" stroke:none;fill-rule:nonzero;fill:rgb(86.27451%,9.803922%,8.627451%);fill-opacity:1;" d="M 20.4375 20.382812 L 20.558594 20.382812 L 20.519531 20.488281 L 20.4375 20.570312 L 20.375 20.589844 L 20.082031 20.589844 L 20.144531 20.550781 Z M 20.4375 20.382812 "/>
<path style=" stroke:none;fill-rule:nonzero;fill:rgb(85.098039%,78.039216%,70.588235%);fill-opacity:1;" d="M 10.621094 18.039062 L 10.664062 18.039062 L 10.664062 18.101562 L 10.769531 18.121094 L 10.683594 18.269531 L 10.519531 18.476562 L 10.496094 18.433594 L 10.558594 18.144531 L 10.644531 18.101562 Z M 10.621094 18.039062 "/>
<path style=" stroke:none;fill-rule:nonzero;fill:rgb(92.54902%,90.980392%,88.235294%);fill-opacity:1;" d="M 10.644531 17.6875 L 10.664062 17.6875 L 10.644531 17.894531 L 10.621094 18.039062 L 10.644531 18.101562 L 10.582031 18.144531 L 10.539062 18.207031 L 10.519531 18.144531 L 10.601562 17.75 Z M 10.644531 17.6875 "/>
<path style=" stroke:none;fill-rule:nonzero;fill:rgb(13.333333%,20.784314%,29.019608%);fill-opacity:1;" d="M 10.644531 17.375 L 10.683594 17.375 L 10.664062 17.5625 L 10.621094 17.75 L 10.582031 17.769531 L 10.558594 17.625 Z M 10.644531 17.375 "/>
<path style=" stroke:none;fill-rule:nonzero;fill:rgb(94.117647%,84.313725%,78.039216%);fill-opacity:1;" d="M 4.085938 4.90625 L 4.128906 4.925781 L 4.046875 5.03125 L 4.003906 5.03125 L 3.960938 5.113281 L 3.859375 5.195312 L 3.902344 5.113281 L 3.960938 5.03125 L 4.003906 4.96875 Z M 4.085938 4.90625 "/>
<path style=" stroke:none;fill-rule:nonzero;fill:rgb(93.333333%,78.431373%,69.019608%);fill-opacity:1;" d="M 0.726562 10.796875 L 0.746094 10.859375 L 0.644531 11.234375 L 0.582031 11.234375 L 0.683594 10.921875 Z M 0.726562 10.796875 "/>
<path style=" stroke:none;fill-rule:nonzero;fill:rgb(95.294118%,83.137255%,75.686275%);fill-opacity:1;" d="M 28.777344 9.324219 L 28.816406 9.386719 L 28.921875 9.59375 L 28.941406 9.742188 L 28.878906 9.65625 L 28.796875 9.449219 Z M 28.777344 9.324219 "/>
<path style=" stroke:none;fill-rule:nonzero;fill:rgb(19.215686%,27.45098%,40.392157%);fill-opacity:1;" d="M 13.570312 6.566406 L 13.734375 6.628906 L 13.734375 6.671875 L 13.777344 6.691406 L 13.570312 6.648438 L 13.507812 6.628906 L 13.507812 6.585938 Z M 13.570312 6.566406 "/>
<path style=" stroke:none;fill-rule:nonzero;fill:rgb(95.294118%,81.568627%,73.72549%);fill-opacity:1;" d="M 5.828125 26.792969 L 5.914062 26.835938 L 5.914062 26.878906 L 5.996094 26.898438 L 6.078125 26.960938 L 6.078125 27.003906 L 6.140625 27.023438 L 6.097656 27.042969 L 5.976562 26.941406 L 5.890625 26.898438 Z M 5.828125 26.792969 "/>
<path style=" stroke:none;fill-rule:nonzero;fill:rgb(97.254902%,92.941176%,90.196078%);fill-opacity:1;" d="M 27.363281 6.730469 L 27.488281 6.835938 L 27.53125 6.878906 L 27.574219 6.960938 L 27.550781 7.023438 L 27.449219 6.855469 L 27.363281 6.773438 Z M 27.363281 6.730469 "/>
<path style=" stroke:none;fill-rule:nonzero;fill:rgb(98.039216%,90.980392%,87.058824%);fill-opacity:1;" d="M 4.378906 25.507812 L 4.460938 25.550781 L 4.605469 25.714844 L 4.648438 25.777344 L 4.542969 25.738281 L 4.378906 25.527344 Z M 4.378906 25.507812 "/>
<path style=" stroke:none;fill-rule:nonzero;fill:rgb(97.647059%,96.862745%,96.470588%);fill-opacity:1;" d="M 10.582031 17.976562 L 10.644531 18.058594 L 10.644531 18.101562 L 10.582031 18.144531 L 10.539062 18.207031 L 10.519531 18.144531 L 10.558594 17.996094 Z M 10.582031 17.976562 "/>
<path style=" stroke:none;fill-rule:nonzero;fill:rgb(14.901961%,22.352941%,30.980392%);fill-opacity:1;" d="M 10.476562 18.101562 L 10.558594 18.207031 L 10.539062 18.289062 L 10.4375 18.226562 L 10.457031 18.144531 Z M 10.476562 18.101562 "/>
<path style=" stroke:none;fill-rule:nonzero;fill:rgb(96.078431%,87.843137%,82.745098%);fill-opacity:1;" d="M 29.378906 18.972656 L 29.398438 18.972656 L 29.417969 19.179688 L 29.378906 19.179688 L 29.335938 19.261719 L 29.316406 19.203125 Z M 29.378906 18.972656 "/>
<path style=" stroke:none;fill-rule:nonzero;fill:rgb(93.72549%,79.215686%,70.196078%);fill-opacity:1;" d="M 0.476562 18.308594 L 0.519531 18.390625 L 0.558594 18.578125 L 0.539062 18.660156 L 0.496094 18.558594 L 0.476562 18.453125 Z M 0.476562 18.308594 "/>
<path style=" stroke:none;fill-rule:nonzero;fill:rgb(99.215686%,99.215686%,99.215686%);fill-opacity:1;" d="M 4.417969 25.695312 L 4.460938 25.738281 L 4.417969 25.738281 Z M 4.417969 25.695312 "/>
<path style=" stroke:none;fill-rule:nonzero;fill:rgb(99.215686%,99.215686%,99.215686%);fill-opacity:1;" d="M 3.984375 25.21875 L 4.023438 25.257812 L 3.984375 25.257812 Z M 3.984375 25.21875 "/>
<path style=" stroke:none;fill-rule:nonzero;fill:rgb(99.215686%,99.215686%,99.215686%);fill-opacity:1;" d="M 26.222656 5.175781 L 26.265625 5.175781 L 26.246094 5.21875 Z M 26.222656 5.175781 "/>
<path style=" stroke:none;fill-rule:nonzero;fill:rgb(99.215686%,99.215686%,99.215686%);fill-opacity:1;" d="M 26.015625 25.238281 L 26.058594 25.257812 Z M 26.015625 25.238281 "/>
</g>
</svg>
