<svg width="38" height="55" viewBox="0 0 38 55" fill="none" xmlns="http://www.w3.org/2000/svg">
<path d="M34.2613 29.3759C34.03 27.0142 33.2188 24.7415 31.8963 22.7498C30.5738 20.7581 28.7788 19.106 26.663 17.933C24.5472 16.76 22.1728 16.1007 19.7404 16.0106C17.308 15.9206 14.8891 16.4026 12.6881 17.4158C10.4872 18.4291 8.56878 19.9438 7.0951 21.832C5.62142 23.7202 4.63574 25.9264 4.22136 28.2642C3.80698 30.6019 3.97608 33.0026 4.71436 35.2632C5.45265 37.5239 6.73842 39.5781 8.46303 41.2523L17.9188 50.4856C18.0847 50.6486 18.282 50.778 18.4994 50.8663C18.7168 50.9546 18.95 51 19.1856 51C19.4211 51 19.6543 50.9546 19.8717 50.8663C20.0891 50.778 20.2864 50.6486 20.4523 50.4856L29.8724 41.2523C31.4624 39.7142 32.6812 37.8505 33.4403 35.7962C34.1994 33.742 34.4799 31.5489 34.2613 29.3759Z" fill="#005F5F"/>
<ellipse cx="19.1666" cy="30.875" rx="12.4902" ry="12.25" fill="white"/>
<ellipse cx="19.6128" cy="53.625" rx="9.36765" ry="0.875" fill="url(#paint0_radial_14527_245)"/>
<path d="M14.2667 29.6825L21.362 24.1161C21.362 24.1161 21.7493 23.8549 22.0424 24.1161C22.3092 24.3537 22.2708 24.7248 22.2708 24.7248L20.671 30.9761H23.5038C24.0938 30.9761 24.1841 31.8365 23.6314 32.2696L16.5361 37.836C16.0259 38.2341 15.4732 37.8595 15.6326 37.2273L16.9401 32.1116L19.8329 30.9761L14.696 30.9585C14.1007 30.9585 13.714 30.1156 14.2667 29.6825Z" fill="#005F5F"/>
<rect x="2" y="2" width="34" height="16" rx="8" fill="white"/>
<rect x="1" y="1" width="36" height="18" rx="9" stroke="#005F5F" stroke-opacity="0.5" stroke-width="2"/>
<path d="M6.16003 9.24715L10.4172 6.06634C10.4172 6.06634 10.6496 5.91708 10.8255 6.06633C10.9855 6.20214 10.9625 6.41419 10.9625 6.41419L10.0026 9.98632H11.7023C12.0563 9.98632 12.1105 10.478 11.7788 10.7255L7.52168 13.9063C7.21554 14.1337 6.8839 13.9197 6.97957 13.5585L7.76404 10.6352L9.49973 9.98633L6.41759 9.97629C6.06044 9.97629 5.82838 9.49465 6.16003 9.24715Z" fill="#005F5F"/>
<path d="M15.7379 13V7.18182H19.4652V8.06534H16.7919V9.64489H19.2095V10.5284H16.7919V13H15.7379ZM21.5966 13.0881C21.3201 13.0881 21.071 13.0388 20.8494 12.9403C20.6297 12.84 20.4555 12.6922 20.3267 12.4972C20.1998 12.3021 20.1364 12.0616 20.1364 11.7756C20.1364 11.5294 20.1818 11.3258 20.2727 11.1648C20.3636 11.0038 20.4877 10.875 20.6449 10.7784C20.8021 10.6818 20.9792 10.6089 21.1761 10.5597C21.375 10.5085 21.5805 10.4716 21.7926 10.4489C22.0483 10.4223 22.2557 10.3987 22.4148 10.3778C22.5739 10.3551 22.6894 10.321 22.7614 10.2756C22.8352 10.2282 22.8722 10.1553 22.8722 10.0568V10.0398C22.8722 9.82576 22.8087 9.66004 22.6818 9.54261C22.5549 9.42519 22.3722 9.36648 22.1335 9.36648C21.8816 9.36648 21.6818 9.4214 21.5341 9.53125C21.3883 9.6411 21.2898 9.77083 21.2386 9.92045L20.2784 9.78409C20.3542 9.51894 20.4792 9.29735 20.6534 9.11932C20.8277 8.93939 21.0407 8.80492 21.2926 8.71591C21.5445 8.625 21.8229 8.57955 22.1278 8.57955C22.3381 8.57955 22.5473 8.60417 22.7557 8.65341C22.964 8.70265 23.1544 8.78409 23.3267 8.89773C23.4991 9.00947 23.6373 9.16193 23.7415 9.35511C23.8475 9.5483 23.9006 9.78977 23.9006 10.0795V13H22.9119V12.4006H22.8778C22.8153 12.5218 22.7273 12.6354 22.6136 12.7415C22.5019 12.8456 22.3608 12.9299 22.1903 12.9943C22.0218 13.0568 21.8239 13.0881 21.5966 13.0881ZM21.8636 12.3324C22.0701 12.3324 22.2491 12.2917 22.4006 12.2102C22.5521 12.1269 22.6686 12.017 22.75 11.8807C22.8333 11.7443 22.875 11.5956 22.875 11.4347V10.9205C22.8428 10.947 22.7879 10.9716 22.7102 10.9943C22.6345 11.017 22.5492 11.0369 22.4545 11.054C22.3598 11.071 22.2661 11.0862 22.1733 11.0994C22.0805 11.1127 22 11.1241 21.9318 11.1335C21.7784 11.1544 21.6411 11.1884 21.5199 11.2358C21.3987 11.2831 21.303 11.3494 21.233 11.4347C21.1629 11.518 21.1278 11.6259 21.1278 11.7585C21.1278 11.9479 21.197 12.0909 21.3352 12.1875C21.4735 12.2841 21.6496 12.3324 21.8636 12.3324ZM28.3835 9.78977L27.446 9.89205C27.4195 9.79735 27.3731 9.70833 27.3068 9.625C27.2424 9.54167 27.1553 9.47443 27.0455 9.4233C26.9356 9.37216 26.8011 9.34659 26.642 9.34659C26.428 9.34659 26.2481 9.39299 26.1023 9.4858C25.9583 9.5786 25.8873 9.69886 25.8892 9.84659C25.8873 9.97348 25.9337 10.0767 26.0284 10.1562C26.125 10.2358 26.2841 10.3011 26.5057 10.3523L27.25 10.5114C27.6629 10.6004 27.9697 10.7415 28.1705 10.9347C28.3731 11.1278 28.4754 11.3807 28.4773 11.6932C28.4754 11.9678 28.3949 12.2102 28.2358 12.4205C28.0786 12.6288 27.8598 12.7917 27.5795 12.9091C27.2992 13.0265 26.9773 13.0852 26.6136 13.0852C26.0795 13.0852 25.6496 12.9735 25.3239 12.75C24.9981 12.5246 24.804 12.2112 24.7415 11.8097L25.7443 11.7131C25.7898 11.91 25.8864 12.0587 26.0341 12.1591C26.1818 12.2595 26.3741 12.3097 26.6108 12.3097C26.8551 12.3097 27.0511 12.2595 27.1989 12.1591C27.3485 12.0587 27.4233 11.9347 27.4233 11.7869C27.4233 11.6619 27.375 11.5587 27.2784 11.4773C27.1837 11.3958 27.036 11.3333 26.8352 11.2898L26.0909 11.1335C25.6723 11.0464 25.3627 10.8996 25.1619 10.6932C24.9612 10.4848 24.8617 10.2216 24.8636 9.90341C24.8617 9.63447 24.9347 9.40152 25.0824 9.20455C25.232 9.00568 25.4394 8.85227 25.7045 8.74432C25.9716 8.63447 26.2794 8.57955 26.6278 8.57955C27.1392 8.57955 27.5417 8.68845 27.8352 8.90625C28.1307 9.12405 28.3134 9.41856 28.3835 9.78977ZM31.5043 8.63636V9.43182H28.9957V8.63636H31.5043ZM29.6151 7.59091H30.6435V11.6875C30.6435 11.8258 30.6643 11.9318 30.706 12.0057C30.7495 12.0777 30.8063 12.1269 30.8764 12.1534C30.9465 12.1799 31.0241 12.1932 31.1094 12.1932C31.1738 12.1932 31.2325 12.1884 31.2855 12.179C31.3404 12.1695 31.3821 12.161 31.4105 12.1534L31.5838 12.9574C31.5289 12.9763 31.4503 12.9972 31.348 13.0199C31.2476 13.0426 31.1245 13.0559 30.9787 13.0597C30.7211 13.0672 30.4891 13.0284 30.2827 12.9432C30.0762 12.8561 29.9124 12.7216 29.7912 12.5398C29.6719 12.358 29.6132 12.1307 29.6151 11.858V7.59091Z" fill="#005F5F"/>
<defs>
<radialGradient id="paint0_radial_14527_245" cx="0" cy="0" r="1" gradientUnits="userSpaceOnUse" gradientTransform="translate(19.6128 53.625) rotate(90) scale(0.875 9.36765)">
<stop stop-color="#A3A3A3"/>
<stop offset="1" stop-color="#C4C4C4" stop-opacity="0"/>
</radialGradient>
</defs>
</svg>
