<svg width="31" height="32" viewBox="0 0 31 32" fill="none" xmlns="http://www.w3.org/2000/svg">
<path d="M21.5098 0.550781C21.9039 0.463247 22.4845 0.447363 22.9951 0.860352L23.1445 0.994141C23.4673 1.31601 23.6126 1.69169 23.6758 1.9873C23.7119 2.15644 23.7229 2.30527 23.7246 2.41309C23.7255 2.46723 23.7235 2.51257 23.7217 2.5459L23.7178 2.60059C23.7176 2.60235 23.7169 2.60404 23.7168 2.60547V2.60938L23.7012 2.68848L20.1045 15.4482H26.1299C26.5946 15.4482 26.9969 15.6059 27.2939 15.8906C27.5864 16.171 27.746 16.5452 27.7891 16.9316C27.8693 17.6532 27.5548 18.4587 26.8643 19.0195L26.7217 19.1279L9.97461 31.0557L9.97363 31.0566C9.24131 31.5753 8.39598 31.6386 7.76367 31.251C7.11695 30.8545 6.8313 30.0703 7.07031 29.21V29.209L10.1562 18.2461L10.2021 18.1357C10.2607 18.0322 10.3553 17.952 10.4697 17.9111L14.5967 16.4395L5.33984 16.4111V16.4102C4.41709 16.4097 3.66924 15.8197 3.3584 15.0869C3.03546 14.3255 3.17573 13.383 4.03809 12.7695L20.7852 0.841797L20.8135 0.822266L21.0752 1.24902L20.8145 0.822266L20.8154 0.821289L20.8174 0.820312C20.8187 0.819536 20.8206 0.818393 20.8223 0.817383C20.8257 0.815318 20.8299 0.81251 20.835 0.80957C20.8457 0.803376 20.8604 0.795582 20.8779 0.786133C20.9132 0.767132 20.9624 0.742037 21.0225 0.714844C21.1412 0.661062 21.3102 0.595133 21.5098 0.550781Z" stroke="#666666" stroke-linejoin="round"/>
</svg>
