<svg width="31" height="39" viewBox="0 0 31 39" fill="none" xmlns="http://www.w3.org/2000/svg">
<path d="M30.9264 13.3759C30.69 11.0142 29.861 8.74152 28.5094 6.74983C27.1578 4.75814 25.3234 3.106 23.1611 1.93301C20.9988 0.760025 18.5722 0.100663 16.0863 0.010645C13.6005 -0.079373 11.1284 0.402598 8.87908 1.41583C6.62974 2.42906 4.6692 3.94378 3.16312 5.83199C1.65705 7.72019 0.649711 9.9264 0.226225 12.2642C-0.197261 14.6019 -0.0244474 17.0026 0.730062 19.2632C1.48457 21.5239 2.79861 23.5781 4.56112 25.2523L14.2247 34.4856C14.3942 34.6486 14.5959 34.778 14.8181 34.8663C15.0403 34.9546 15.2786 35 15.5193 35C15.76 35 15.9983 34.9546 16.2205 34.8663C16.4427 34.778 16.6444 34.6486 16.8139 34.4856L26.441 25.2523C28.066 23.7142 29.3115 21.8505 30.0874 19.7962C30.8632 17.742 31.1498 15.5489 30.9264 13.3759Z" fill="url(#paint0_linear_10700_2419)"/>
<g clip-path="url(#clip0_10700_2419)">
<rect x="3" y="3" width="24.9804" height="24.5" rx="12.25" fill="white"/>
<path d="M17.0402 15.1498H14.7304V11.5157C14.7304 11.023 14.3608 10.561 13.8527 10.5148C13.2675 10.4532 12.7748 10.9152 12.7902 11.4849L12.7902 15.1806H12.667L11.3735 15.1806C11.0039 15.1806 10.6959 15.4886 10.6959 15.8582L10.6959 18.476C10.6959 20.9706 12.4822 23.0648 14.8382 23.5422L14.8382 25.7288C14.8382 35.5 16.9016 39.5 16.9016 25.8212L16.9016 23.5114C19.2577 23.034 21.0439 20.9398 21.0439 18.4452L21.0439 15.8274C21.0439 15.4578 20.736 15.1498 20.3664 15.1498L19.0729 15.1498L18.9497 15.1498L18.9497 11.5157C18.9497 11.023 18.5801 10.561 18.0719 10.5148C17.4868 10.4532 16.994 10.9152 17.0094 11.4849L17.0402 15.1498Z" stroke="#1F1F1F" stroke-width="1.5"/>
</g>
<ellipse cx="15.6128" cy="37.625" rx="9.36765" ry="0.875" fill="url(#paint1_radial_10700_2419)"/>
<defs>
<linearGradient id="paint0_linear_10700_2419" x1="-2.51091e-08" y1="4.57883" x2="31.5535" y2="6.78778" gradientUnits="userSpaceOnUse">
<stop stop-color="#3DE4ED"/>
<stop offset="1" stop-color="#3DEDB8"/>
</linearGradient>
<radialGradient id="paint1_radial_10700_2419" cx="0" cy="0" r="1" gradientUnits="userSpaceOnUse" gradientTransform="translate(15.6128 37.625) rotate(90) scale(0.875 9.36765)">
<stop stop-color="#A3A3A3"/>
<stop offset="1" stop-color="#C4C4C4" stop-opacity="0"/>
</radialGradient>
<clipPath id="clip0_10700_2419">
<rect x="3" y="3" width="24.9804" height="24.5" rx="12.25" fill="white"/>
</clipPath>
</defs>
</svg>
