<svg width="25" height="24" viewBox="0 0 25 24" fill="none" xmlns="http://www.w3.org/2000/svg">
<path d="M12.4997 21.0917C9.58553 21.0917 6.84438 20.0174 4.77787 18.065C2.70085 16.1031 1.53718 13.4735 1.5009 10.6608C1.47514 8.66265 1.99992 7.01575 3.2556 5.15064C4.1616 3.80399 5.70438 3 7.3823 3H17.6175C19.2897 3 20.8251 3.79453 21.728 5.12592C22.97 6.96054 23.5 8.57536 23.5 10.5272C23.5 13.3483 22.3563 16.0006 20.2798 17.994C18.2033 19.9874 15.4538 21.0843 12.5239 21.0901L12.4997 21.0917ZM7.38283 3.78874C5.96782 3.78874 4.67008 4.46233 3.91236 5.59076C2.75553 7.31285 2.26861 8.82618 2.29175 10.6503C2.3254 13.2479 3.40178 15.6777 5.32211 17.4918C7.24243 19.3059 9.79165 20.3029 12.5023 20.3029H12.5249C15.2508 20.2971 17.8116 19.276 19.7361 17.4266C21.6606 15.5773 22.7139 13.1317 22.7139 10.5272C22.7139 8.74521 22.2243 7.26237 21.0775 5.56815C20.3224 4.45392 19.0305 3.78874 17.6202 3.78874H7.38283Z" fill="#404040"/>
<path d="M6.84128 11.4431C6.2358 11.4431 5.64392 11.2635 5.14048 10.9271C4.63704 10.5907 4.24465 10.1126 4.01294 9.55322C3.78123 8.99383 3.72061 8.37829 3.83873 7.78444C3.95686 7.19059 4.24843 6.64511 4.67657 6.21697C5.10471 5.78883 5.65019 5.49726 6.24404 5.37914C6.83789 5.26101 7.45343 5.32164 8.01282 5.55335C8.57221 5.78506 9.05034 6.17744 9.38673 6.68088C9.72311 7.18432 9.90266 7.77621 9.90266 8.38169C9.90182 9.19336 9.57901 9.97155 9.00508 10.5455C8.43114 11.1194 7.65295 11.4422 6.84128 11.4431ZM6.84128 5.84614C6.3398 5.84614 5.84958 5.99485 5.43261 6.27346C5.01564 6.55207 4.69066 6.94807 4.49875 7.41138C4.30684 7.87469 4.25662 8.3845 4.35446 8.87635C4.45229 9.36819 4.69378 9.81999 5.04838 10.1746C5.40299 10.5292 5.85478 10.7707 6.34662 10.8685C6.83847 10.9663 7.34829 10.9161 7.8116 10.7242C8.27491 10.5323 8.67091 10.2073 8.94951 9.79036C9.22812 9.37339 9.37683 8.88317 9.37683 8.38169C9.37683 7.70898 9.10978 7.06378 8.63435 6.58786C8.15892 6.11193 7.51399 5.84421 6.84128 5.84351V5.84614Z" fill="#404040"/>
<path d="M6.84128 9.46013C7.43864 9.46013 7.92291 8.97587 7.92291 8.3785C7.92291 7.78114 7.43864 7.29688 6.84128 7.29688C6.24391 7.29688 5.75964 7.78114 5.75964 8.3785C5.75964 8.97587 6.24391 9.46013 6.84128 9.46013Z" fill="#404040"/>
<path d="M18.035 11.4431C17.4295 11.4431 16.8376 11.2635 16.3342 10.9271C15.8308 10.5907 15.4384 10.1126 15.2067 9.55322C14.975 8.99383 14.9143 8.37829 15.0325 7.78444C15.1506 7.19059 15.4422 6.64511 15.8703 6.21697C16.2984 5.78883 16.8439 5.49726 17.4378 5.37914C18.0316 5.26101 18.6472 5.32164 19.2065 5.55335C19.7659 5.78506 20.2441 6.17744 20.5805 6.68088C20.9168 7.18432 21.0964 7.77621 21.0964 8.38169C21.0955 9.19336 20.7727 9.97155 20.1988 10.5455C19.6249 11.1194 18.8467 11.4422 18.035 11.4431ZM18.035 5.84614C17.5335 5.84614 17.0433 5.99485 16.6263 6.27346C16.2094 6.55207 15.8844 6.94807 15.6925 7.41138C15.5006 7.87469 15.4503 8.3845 15.5482 8.87635C15.646 9.36819 15.8875 9.81999 16.2421 10.1746C16.5967 10.5292 17.0485 10.7707 17.5404 10.8685C18.0322 10.9663 18.542 10.9161 19.0053 10.7242C19.4686 10.5323 19.8646 10.2073 20.1432 9.79036C20.4218 9.37339 20.5706 8.88317 20.5706 8.38169C20.5706 7.70898 20.3035 7.06378 19.8281 6.58786C19.3526 6.11193 18.7077 5.84421 18.035 5.84351V5.84614Z" fill="#404040"/>
<path d="M18.035 9.46013C18.6324 9.46013 19.1166 8.97587 19.1166 8.3785C19.1166 7.78114 18.6324 7.29688 18.035 7.29688C17.4376 7.29688 16.9534 7.78114 16.9534 8.3785C16.9534 8.97587 17.4376 9.46013 18.035 9.46013Z" fill="#404040"/>
<path d="M13.416 17.7519C13.9197 17.2482 13.9197 16.4315 13.416 15.9278C12.9123 15.4241 12.0956 15.4241 11.5919 15.9278C11.0881 16.4315 11.0882 17.2482 11.5919 17.7519C12.0956 18.2556 12.9123 18.2556 13.416 17.7519Z" fill="#404040"/>
<path d="M7.9229 17.7689C8.27923 17.7689 8.5681 17.48 8.5681 17.1237C8.5681 16.7674 8.27923 16.4785 7.9229 16.4785C7.56657 16.4785 7.27771 16.7674 7.27771 17.1237C7.27771 17.48 7.56657 17.7689 7.9229 17.7689Z" fill="#404040"/>
<path d="M16.9534 17.7689C17.3097 17.7689 17.5986 17.48 17.5986 17.1237C17.5986 16.7674 17.3097 16.4785 16.9534 16.4785C16.5971 16.4785 16.3082 16.7674 16.3082 17.1237C16.3082 17.48 16.5971 17.7689 16.9534 17.7689Z" fill="#404040"/>
<path d="M19.2792 16.8438C19.2151 16.8438 19.152 16.8277 19.0957 16.797L17.2685 15.8022C16.0065 15.0949 14.5289 14.7742 12.4698 14.761C10.621 14.7484 9.02927 15.0991 7.73731 15.8022L5.90742 16.797C5.82919 16.8392 5.73886 16.8533 5.65149 16.8369C5.56413 16.8206 5.48502 16.7747 5.42735 16.7071L5.05085 16.2644C4.23272 15.3008 3.78343 14.0779 3.78308 12.8139V12.4027C3.78297 12.3379 3.7991 12.2742 3.82999 12.2173C3.86088 12.1604 3.90555 12.1122 3.95991 12.077C4.01426 12.0419 4.07657 12.0209 4.14112 12.0161C4.20568 12.0112 4.27042 12.0227 4.32941 12.0493C5.43838 12.5446 6.81869 12.4894 6.83236 12.4889H6.84445C7.38607 12.4937 7.92237 12.382 8.41707 12.1614C8.91177 11.9409 9.35332 11.6166 9.7118 11.2106C10.3977 10.4265 10.7768 9.42078 10.7792 8.37903C10.7792 7.84111 10.5747 6.41716 8.67592 4.82127C8.61504 4.77023 8.57135 4.7017 8.55077 4.62497C8.53018 4.54824 8.53372 4.46703 8.56088 4.39238C8.58804 4.31773 8.63752 4.25324 8.7026 4.20768C8.76767 4.16211 8.84519 4.13768 8.92464 4.1377H16.0759C16.1554 4.13757 16.233 4.16193 16.2982 4.20745C16.3633 4.25297 16.4129 4.31746 16.4401 4.39213C16.4673 4.46681 16.4709 4.54806 16.4503 4.62484C16.4298 4.70162 16.3861 4.7702 16.3251 4.82127C14.4285 6.41769 14.2218 7.84163 14.2218 8.37955C14.224 9.42145 14.6034 10.4273 15.2898 11.2111C15.6483 11.6172 16.0898 11.9415 16.5845 12.162C17.0792 12.3826 17.6155 12.4942 18.1571 12.4894H18.1687C18.1829 12.4894 19.5627 12.5452 20.6716 12.0498C20.7307 12.0234 20.7954 12.0121 20.8599 12.017C20.9244 12.0219 20.9867 12.0429 21.0411 12.078C21.0954 12.1131 21.1401 12.1612 21.1711 12.218C21.2021 12.2748 21.2184 12.3385 21.2185 12.4032V12.8144C21.218 14.0785 20.7685 15.3013 19.9502 16.2649L19.5742 16.7076C19.5378 16.7502 19.4925 16.7844 19.4416 16.8079C19.3907 16.8314 19.3353 16.8437 19.2792 16.8438ZM4.30575 12.6104V12.8139C4.30626 13.9532 4.71117 15.0554 5.44838 15.9241L5.75283 16.2807L7.48386 15.3394C8.85522 14.5938 10.5337 14.2231 12.4708 14.2352C14.6241 14.2489 16.1816 14.5901 17.5188 15.3394L19.2467 16.2791L19.55 15.922C20.2876 15.0535 20.6928 13.9512 20.6932 12.8118V12.6083C19.5416 13.0579 18.266 13.0174 18.1519 13.0126C17.5368 13.017 16.928 12.8894 16.3665 12.6384C15.805 12.3874 15.3039 12.0189 14.897 11.5577C14.126 10.6771 13.6996 9.54733 13.6965 8.37693C13.6965 6.7579 14.9422 5.36445 15.7078 4.6609H9.29061C10.0567 5.36445 11.3019 6.7579 11.3019 8.37693C11.2988 9.54733 10.8724 10.6771 10.1014 11.5577C9.69463 12.0189 9.19361 12.3874 8.63219 12.6384C8.07078 12.8894 7.46204 13.017 6.84709 13.0126C6.73246 13.0205 5.45732 13.0594 4.30575 12.6104Z" fill="#404040"/>
</svg>
