<svg width="25" height="24" viewBox="0 0 25 24" fill="none" xmlns="http://www.w3.org/2000/svg">
<path d="M12.5011 22.4831C9.30224 22.4831 6.29632 21.2846 4.03735 19.108C1.77839 16.9315 0.518272 14.0133 0.500184 10.9035C0.482096 7.67119 1.79848 4.65991 4.20617 2.42439C5.21406 1.49904 6.53523 0.990107 7.90345 1.00015H17.0961C18.4727 0.991713 19.8011 1.50682 20.8121 2.44114C23.1903 4.6579 24.5 7.64037 24.5 10.8392C24.5007 17.2597 19.1179 22.4831 12.5011 22.4831ZM7.90412 2.00502C6.78909 1.99484 5.71171 2.40807 4.88949 3.1613C2.69015 5.20254 1.48764 7.94987 1.50439 10.8982C1.52047 13.7346 2.66737 16.3915 4.73339 18.3845C6.79942 20.3775 9.56217 21.4782 12.4998 21.4782C18.5625 21.4782 23.4945 16.7057 23.4945 10.8392C23.4945 7.92241 22.2986 5.2012 20.1261 3.17671C19.3012 2.41564 18.2177 1.99676 17.0954 2.00502H7.90412Z" fill="#1F1F1F"/>
<path d="M12.5017 20.0144H12.4348C11.1686 20.0019 9.91744 19.7397 8.75282 19.2429C7.5882 18.7461 6.53305 18.0243 5.64781 17.119C3.92411 15.3484 3.00097 13.0546 3.04853 10.6604C3.09837 8.29554 4.07711 6.0454 5.77309 4.39662C6.1402 4.04112 6.63137 3.84263 7.1424 3.84326H17.8611C18.3725 3.8431 18.8638 4.04205 19.2311 4.39796C20.9883 6.12568 21.9563 8.41345 21.9563 10.8412C21.9563 13.2529 21.001 15.5307 19.2652 17.251C17.4699 19.033 15.0695 20.0144 12.5017 20.0144ZM7.1424 4.51251C6.80687 4.51153 6.48415 4.64129 6.2427 4.87427C4.67113 6.39951 3.76334 8.48223 3.71577 10.6717C3.67156 12.8858 4.52704 15.0088 6.12748 16.6501C6.95042 17.492 7.93135 18.1634 9.0141 18.6257C10.0969 19.0881 11.2602 19.3323 12.4374 19.3445H12.5044C14.8947 19.3445 17.1269 18.4334 18.7963 16.7747C19.5853 16.0002 20.212 15.0761 20.6397 14.0565C21.0674 13.0368 21.2874 11.9422 21.2871 10.8365C21.2871 8.5903 20.39 6.47135 18.7621 4.87427C18.5205 4.641 18.1976 4.51101 17.8618 4.51184L7.1424 4.51251Z" fill="#1F1F1F"/>
<path d="M15.6216 18.0864C15.1366 18.0864 14.6625 17.9426 14.2593 17.6732C13.8561 17.4037 13.5418 17.0207 13.3563 16.5727C13.1707 16.1246 13.1222 15.6316 13.2168 15.1559C13.3115 14.6803 13.5451 14.2434 13.8881 13.9005C14.231 13.5576 14.668 13.3242 15.1436 13.2296C15.6193 13.1351 16.1123 13.1838 16.5603 13.3695C17.0084 13.5551 17.3912 13.8695 17.6606 14.2728C17.9299 14.6761 18.0736 15.1502 18.0735 15.6352C18.0728 16.2852 17.8142 16.9084 17.3545 17.3679C16.8948 17.8275 16.2716 18.0859 15.6216 18.0864ZM15.6216 13.8532C15.2691 13.8532 14.9246 13.9577 14.6316 14.1535C14.3385 14.3493 14.1101 14.6276 13.9752 14.9533C13.8404 15.2789 13.8051 15.6372 13.8738 15.9828C13.9426 16.3285 14.1123 16.646 14.3615 16.8952C14.6107 17.1445 14.9283 17.3142 15.2739 17.3829C15.6196 17.4517 15.9779 17.4164 16.3035 17.2815C16.6291 17.1467 16.9074 16.9182 17.1032 16.6252C17.299 16.3322 17.4036 15.9876 17.4036 15.6352C17.4037 15.1623 17.2161 14.7088 16.882 14.3742C16.5478 14.0397 16.0944 13.8516 15.6216 13.8512V13.8532Z" fill="#1F1F1F"/>
<path d="M16.3072 15.7948C16.3972 15.4134 16.161 15.0313 15.7797 14.9413C15.3983 14.8513 15.0162 15.0875 14.9262 15.4688C14.8362 15.8502 15.0724 16.2323 15.4537 16.3223C15.8351 16.4123 16.2172 16.1761 16.3072 15.7948Z" fill="#1F1F1F"/>
<path d="M12.3892 12.9381C11.9043 12.9381 11.4302 12.7943 11.027 12.5249C10.6238 12.2555 10.3095 11.8725 10.124 11.4245C9.93838 10.9765 9.88982 10.4835 9.98443 10.0079C10.079 9.53224 10.3126 9.09535 10.6555 8.75245C10.9984 8.40955 11.4353 8.17602 11.9109 8.08142C12.3865 7.98681 12.8795 8.03536 13.3275 8.22094C13.7755 8.40652 14.1585 8.72079 14.4279 9.124C14.6973 9.52722 14.8411 10.0013 14.8411 10.4862C14.8404 11.1363 14.5819 11.7595 14.1222 12.2192C13.6625 12.6788 13.0393 12.9374 12.3892 12.9381ZM12.3892 8.70489C12.0367 8.70489 11.6922 8.80942 11.3991 9.00526C11.1061 9.20109 10.8777 9.47944 10.7428 9.80509C10.608 10.1307 10.5727 10.4891 10.6415 10.8348C10.7103 11.1805 10.8801 11.498 11.1294 11.7472C11.3787 11.9964 11.6963 12.166 12.042 12.2347C12.3877 12.3034 12.746 12.268 13.0716 12.133C13.3972 11.998 13.6755 11.7695 13.8712 11.4764C14.0669 11.1833 14.1713 10.8387 14.1712 10.4862C14.1707 10.0138 13.9827 9.56094 13.6486 9.22698C13.3146 8.89301 12.8616 8.70525 12.3892 8.70489Z" fill="#1F1F1F"/>
<path d="M13.0742 10.6461C13.1642 10.2647 12.9281 9.88264 12.5467 9.79264C12.1654 9.70264 11.7833 9.93881 11.6933 10.3202C11.6033 10.7015 11.8395 11.0836 12.2208 11.1736C12.6021 11.2636 12.9842 11.0274 13.0742 10.6461Z" fill="#1F1F1F"/>
<path d="M18.2798 12.9381C17.7948 12.9382 17.3207 12.7945 16.9174 12.5252C16.5141 12.2559 16.1997 11.873 16.014 11.425C15.8284 10.977 15.7797 10.4839 15.8742 10.0083C15.9688 9.53261 16.2022 9.09566 16.5451 8.75269C16.888 8.40971 17.3249 8.17612 17.8005 8.08146C18.2762 7.9868 18.7692 8.03532 19.2173 8.22088C19.6653 8.40644 20.0483 8.72071 20.3177 9.12393C20.5872 9.52716 20.731 10.0012 20.731 10.4862C20.7303 11.1362 20.4718 11.7593 20.0123 12.2189C19.5528 12.6786 18.9297 12.9372 18.2798 12.9381ZM18.2798 8.70489C17.9273 8.70489 17.5828 8.80942 17.2897 9.00525C16.9966 9.20109 16.7682 9.47944 16.6334 9.80509C16.4985 10.1307 16.4633 10.4891 16.5321 10.8348C16.6009 11.1805 16.7707 11.498 17.02 11.7472C17.2692 11.9964 17.5868 12.166 17.9325 12.2347C18.2783 12.3034 18.6366 12.268 18.9622 12.133C19.2878 11.998 19.566 11.7695 19.7618 11.4764C19.9575 11.1833 20.0619 10.8387 20.0618 10.4862C20.0612 10.0138 19.8733 9.56094 19.5392 9.22698C19.2051 8.89301 18.7522 8.70525 18.2798 8.70489Z" fill="#1F1F1F"/>
<path d="M18.7813 10.9876C19.0583 10.7106 19.0583 10.2614 18.7813 9.98431C18.5042 9.70726 18.055 9.70726 17.778 9.98431C17.5009 10.2614 17.5009 10.7106 17.778 10.9876C18.055 11.2647 18.5042 11.2647 18.7813 10.9876Z" fill="#1F1F1F"/>
<path d="M6.64666 12.9381C6.16172 12.9381 5.68767 12.7943 5.28446 12.5249C4.88125 12.2555 4.56698 11.8725 4.3814 11.4245C4.19583 10.9765 4.14727 10.4835 4.24188 10.0079C4.33648 9.53224 4.57 9.09535 4.91291 8.75245C5.25581 8.40955 5.6927 8.17602 6.16832 8.08142C6.64395 7.98681 7.13694 8.03536 7.58497 8.22094C8.03299 8.40652 8.41592 8.72079 8.68534 9.124C8.95476 9.52722 9.09856 10.0013 9.09856 10.4862C9.09785 11.1363 8.8393 11.7595 8.37963 12.2192C7.91997 12.6788 7.29673 12.9374 6.64666 12.9381ZM6.64666 8.70489C6.29419 8.70489 5.94964 8.80942 5.65658 9.00526C5.36352 9.20109 5.13512 9.47944 5.00026 9.80509C4.86541 10.1307 4.83016 10.4891 4.89897 10.8348C4.96778 11.1805 5.13756 11.498 5.38685 11.7472C5.63613 11.9964 5.95371 12.166 6.29943 12.2347C6.64514 12.3034 7.00346 12.268 7.32906 12.133C7.65466 11.998 7.93293 11.7695 8.12865 11.4764C8.32438 11.1833 8.42878 10.8387 8.42864 10.4862C8.42811 10.0138 8.24018 9.56094 7.90609 9.22698C7.572 8.89301 7.11905 8.70525 6.64666 8.70489Z" fill="#1F1F1F"/>
<path d="M7.1482 10.9882C7.42526 10.7112 7.42526 10.262 7.1482 9.98492C6.87115 9.70787 6.42195 9.70787 6.1449 9.98492C5.86785 10.262 5.86785 10.7112 6.1449 10.9882C6.42196 11.2653 6.87115 11.2653 7.1482 10.9882Z" fill="#1F1F1F"/>
<path d="M9.41745 18.0864C8.93248 18.0864 8.45841 17.9426 8.05518 17.6732C7.65195 17.4037 7.33768 17.0207 7.15212 16.5727C6.96656 16.1246 6.91805 15.6316 7.01271 15.1559C7.10737 14.6803 7.34096 14.2434 7.68393 13.9005C8.0269 13.5576 8.46385 13.3242 8.93952 13.2296C9.41518 13.1351 9.9082 13.1838 10.3562 13.3695C10.8042 13.5551 11.1871 13.8695 11.4565 14.2728C11.7258 14.6761 11.8695 15.1502 11.8693 15.6352C11.8686 16.2852 11.6101 16.9084 11.1504 17.3679C10.6907 17.8275 10.0675 18.0859 9.41745 18.0864ZM9.41745 13.8532C9.065 13.8532 8.72047 13.9577 8.42743 14.1535C8.13438 14.3493 7.90598 14.6276 7.77111 14.9533C7.63624 15.2789 7.60095 15.6372 7.66971 15.9828C7.73846 16.3285 7.90818 16.646 8.15739 16.8952C8.40661 17.1445 8.72413 17.3142 9.0698 17.3829C9.41547 17.4517 9.77377 17.4164 10.0994 17.2815C10.425 17.1467 10.7033 16.9182 10.8991 16.6252C11.0949 16.3322 11.1994 15.9876 11.1994 15.6352C11.1996 15.1623 11.012 14.7088 10.6778 14.3742C10.3437 14.0397 9.8903 13.8516 9.41745 13.8512V13.8532Z" fill="#1F1F1F"/>
<path d="M10.1227 15.7513C10.1855 15.3646 9.92289 15.0001 9.53614 14.9374C9.14939 14.8746 8.78497 15.1372 8.72219 15.524C8.65941 15.9107 8.92205 16.2751 9.3088 16.3379C9.69555 16.4007 10.06 16.1381 10.1227 15.7513Z" fill="#1F1F1F"/>
<path d="M15.231 8.01151C14.913 8.01151 14.6022 7.91721 14.3378 7.74054C14.0734 7.56388 13.8673 7.31277 13.7456 7.01898C13.6239 6.7252 13.5921 6.40192 13.6541 6.09004C13.7162 5.77815 13.8693 5.49167 14.0941 5.26681C14.319 5.04196 14.6055 4.88883 14.9174 4.82679C15.2293 4.76475 15.5525 4.7966 15.8463 4.91829C16.1401 5.03998 16.3912 5.24605 16.5679 5.51046C16.7445 5.77486 16.8388 6.08571 16.8388 6.4037C16.8388 6.83012 16.6694 7.23907 16.3679 7.54059C16.0664 7.84211 15.6574 8.01151 15.231 8.01151ZM15.231 5.46582C15.0455 5.46582 14.8642 5.52083 14.71 5.62388C14.5557 5.72694 14.4355 5.87341 14.3645 6.04479C14.2936 6.21616 14.275 6.40474 14.3112 6.58668C14.3474 6.76861 14.4367 6.93572 14.5678 7.06689C14.699 7.19805 14.8661 7.28738 15.0481 7.32357C15.23 7.35975 15.4186 7.34118 15.5899 7.2702C15.7613 7.19921 15.9078 7.079 16.0109 6.92476C16.1139 6.77053 16.1689 6.5892 16.1689 6.4037C16.1689 6.15496 16.0701 5.9164 15.8942 5.74052C15.7183 5.56463 15.4798 5.46582 15.231 5.46582Z" fill="#1F1F1F"/>
<path d="M15.6577 6.40367C15.6577 6.48807 15.6327 6.57057 15.5858 6.64075C15.5389 6.71092 15.4723 6.76562 15.3943 6.79792C15.3163 6.83022 15.2305 6.83867 15.1477 6.8222C15.065 6.80574 14.9889 6.7651 14.9292 6.70542C14.8696 6.64574 14.8289 6.5697 14.8125 6.48692C14.796 6.40414 14.8044 6.31834 14.8367 6.24036C14.869 6.16239 14.9237 6.09573 14.9939 6.04884C15.0641 6.00195 15.1466 5.97693 15.231 5.97693C15.3442 5.97693 15.4527 6.02189 15.5327 6.10192C15.6128 6.18195 15.6577 6.29049 15.6577 6.40367Z" fill="#1F1F1F"/>
<path d="M9.24998 8.01151C8.93199 8.01151 8.62114 7.91721 8.35674 7.74054C8.09234 7.56388 7.88626 7.31277 7.76457 7.01898C7.64288 6.7252 7.61104 6.40192 7.67308 6.09004C7.73511 5.77815 7.88824 5.49167 8.11309 5.26681C8.33795 5.04196 8.62444 4.88883 8.93632 4.82679C9.2482 4.76475 9.57148 4.7966 9.86527 4.91829C10.1591 5.03998 10.4102 5.24605 10.5868 5.51046C10.7635 5.77486 10.8578 6.08571 10.8578 6.4037C10.8578 6.83012 10.6884 7.23907 10.3869 7.54059C10.0854 7.84211 9.6764 8.01151 9.24998 8.01151ZM9.24998 5.46582C9.06449 5.46582 8.88316 5.52083 8.72892 5.62388C8.57469 5.72694 8.45448 5.87341 8.38349 6.04479C8.3125 6.21616 8.29393 6.40474 8.33012 6.58668C8.36631 6.76861 8.45563 6.93572 8.5868 7.06689C8.71796 7.19805 8.88508 7.28738 9.06702 7.32357C9.24895 7.35975 9.43752 7.34118 9.6089 7.2702C9.78027 7.19921 9.92675 7.079 10.0298 6.92476C10.1329 6.77053 10.1879 6.5892 10.1879 6.4037C10.1879 6.15496 10.0891 5.9164 9.91317 5.74052C9.73728 5.56463 9.49873 5.46582 9.24998 5.46582Z" fill="#1F1F1F"/>
<path d="M9.67806 6.40367C9.67806 6.48807 9.65303 6.57057 9.60614 6.64075C9.55925 6.71092 9.49261 6.76562 9.41463 6.79792C9.33665 6.83022 9.25085 6.83867 9.16807 6.8222C9.08529 6.80574 9.00925 6.7651 8.94957 6.70542C8.88989 6.64574 8.84925 6.5697 8.83279 6.48692C8.81632 6.40414 8.82477 6.31834 8.85707 6.24036C8.88936 6.16239 8.94406 6.09573 9.01424 6.04884C9.08442 6.00195 9.16692 5.97693 9.25132 5.97693C9.3645 5.97693 9.47304 6.02189 9.55307 6.10192C9.6331 6.18195 9.67806 6.29049 9.67806 6.40367Z" fill="#1F1F1F"/>
</svg>
