<?xml version="1.0" encoding="UTF-8"?>
<svg id="Layer_1" xmlns="http://www.w3.org/2000/svg" version="1.1" viewBox="0 0 800 800">
  <!-- Generator: Adobe Illustrator 29.1.0, SVG Export Plug-In . SVG Version: 2.1.0 Build 142)  -->
  <defs>
    <style>
      .st0 {
        fill: #fff;
      }

      .st0, .st1 {
        fill-rule: evenodd;
      }

      .st1 {
        fill: #a20005;
      }
    </style>
  </defs>
  <g>
    <path class="st1" d="M422.68,227.36v282.04h19.24V227.36h-19.24ZM422.68,227.36v282.04h19.24V227.36h-19.24ZM636.04,193.62c-27.25-7.18-64.87-24.81-89.38-67.92l-2.69-4.69H255.95l-2.69,4.76c-24.46,43.04-62.06,60.67-89.33,67.87l-7.08,1.9v166.53c0,18.63,0,44.17,7.81,75.39,9.47,37.53,28.44,75.08,56.4,111.7l2.27,2.76c1.37,1.83,2.86,3.61,4.47,5.57l.71.85c.42.51.83.98,1.27,1.46.61.71,1.22,1.39,1.86,2.2,3.15,3.52,5.57,6.15,7.89,8.52l2,2.08c49.95,50.98,118.61,83.91,151.59,99.71l7.86,3.83,9.77-4.81c2.54-1.22,5.27-2.56,8.08-3.98,1.2-.59,2.42-1.2,3.66-1.83,1.27-.61,2.56-1.27,3.93-1.93,3.93-2,8.08-4.15,12.45-6.42,1.39-.78,2.88-1.54,4.35-2.32,3-1.56,6.1-3.25,9.2-4.98,43.53-23.9,79.2-49.86,106.03-77.18.81-.88,1.66-1.73,2.69-2.76,1.49-1.54,2.95-3.17,4.37-4.76l1.1-1.25c2.15-2.39,4.22-4.81,6.47-7.52l1.2-1.49c1.46-1.76,3.1-3.76,4.59-5.76,32.4-42.26,52.03-84.26,60.04-128.37,4.25-23.73,4.25-43.14,4.25-58.72v-166.53l-7.1-1.93ZM279.61,547.1c-2.03-1.95-4.05-3.93-5.98-5.93l-1.83-1.93c-1.76-1.81-3.59-3.78-5.96-6.4-.76-.93-1.51-1.83-2.32-2.71l-.85-1c-1.25-1.51-2.34-2.81-3.39-4.2l-.56-.71-2.42-2.95c-14.14-18.58-25.54-37.31-34.13-55.98V197.09h30.57v261.61s.66,1.46,1.34,2.66c6.84,13.4,15.38,26.86,25.54,40.33v45.41ZM375.95,539.51h-30.42v-251.74h-19.24v296.28c-10.28-6.86-20.58-14.43-30.37-22.54V197.18h30.37v60.43h27.74l21.92,21.95v259.95ZM484.01,539.58h-11.72v45.73c-9.52,6.45-19.65,12.72-30.37,18.92v-64.65h-27.74l-21.95-21.92V197.18h67.14l12.92,21.95v290.27h11.72v30.18ZM591.34,479.23c-.07.17-.17.34-.24.51-1,1.98-2,3.98-3.05,5.98-3.05,5.76-6.32,11.5-9.89,17.26l-14.04-11.79c-6.1,10.18-13.06,20.36-20.95,30.64l-.51.68c-.95,1.27-1.98,2.49-3.03,3.76l-1.46,1.88c-1.73,2.05-3.42,3.96-5.08,5.86l-1.07,1.2c-1,1.12-1.98,2.22-3.03,3.3-1.1,1.12-2.1,2.12-3,3.1l-1.71,1.71-19.8-17.51-3-2.66-3.59-3.2V197.18h30.08v289.32s.05,4.03.05,4.54c0,0,.02-.05.02-.07,7.23-10.38,13.43-20.68,18.6-30.91l.56-1.44V197.18h30.4v265.73l15.38,12.92c-.54,1.15-1.07,2.27-1.64,3.39ZM422.68,509.4h19.24V227.36h-19.24v282.04Z"/>
    <path class="st1" d="M642.69,168.57c-22.44-5.91-53.37-20.36-73.44-55.59l-10.16-17.92H240.84l-10.13,17.92c-20.02,35.23-50.95,49.68-73.39,55.59l-26.39,6.98v186.53c0,19.97,0,47.34,8.62,81.77,10.38,41.07,30.91,81.84,61.01,121.2l.88,1.07c.51.61,1.03,1.22,1.51,1.88l.2.24c1.78,2.22,3.56,4.44,5.35,6.57,1.07,1.29,2.2,2.59,3.32,3.88l.37.46c2.83,3.2,5.76,6.37,8.69,9.45l.76.76c.49.51,1,1.05,1.42,1.42,52.74,53.84,124.03,88.16,158.31,104.67l19.75,9.5,19.39-9.47c33.6-16.43,103.45-50.64,156.06-104.15.54-.56,2.86-2.95,3.37-3.49,1.83-1.93,3.64-3.93,5.44-5.91l.63-.71c2.32-2.64,4.57-5.25,6.84-7.91l.24-.32c.22-.32.46-.61.83-1.05l.78-.95c1.61-2,3.22-3.98,4.76-6.01,34.96-45.68,56.23-91.36,65.02-139.63,4.61-25.98,4.61-47.54,4.61-63.26v-186.53l-26.39-6.98ZM662.32,362.08c0,15.48,0,36.7-4.52,62.06-8.57,47.17-29.42,91.9-63.72,136.72-1.51,1.98-3.08,3.91-4.64,5.84l-.76.93c-.39.46-.78.95-1.03,1.29-2.22,2.61-4.44,5.22-6.69,7.76l-.37.42c-1.86,2.05-3.74,4.1-5.59,6.08-.49.51-2.81,2.91-3.32,3.42-51.78,52.69-121.07,86.6-154.38,102.88l-16.24,7.93-16.8-8.06c-33.94-16.33-104.5-50.34-156.55-103.45-.46-.44-.9-.88-1.34-1.32l-.71-.73c-2.86-3-5.69-6.08-8.4-9.16l-.34-.42c-1.1-1.27-2.17-2.54-3.25-3.83-1.71-2-3.37-4.08-5.13-6.25l-.24-.29c-.56-.76-1.15-1.46-1.73-2.2l-.73-.88c-29.49-38.55-49.61-78.47-59.77-118.63-8.4-33.62-8.4-60.5-8.4-80.13v-181.33l21.36-5.64c23.68-6.25,56.37-21.51,77.54-58.82l8.2-14.48h310.36l8.2,14.5c21.24,37.28,53.91,52.54,77.59,58.79l21.36,5.64v181.33Z"/>
  </g>
  <g>
    <path class="st0" d="M279.61,501.69v45.41c-2.03-1.95-4.05-3.93-5.98-5.93l-1.83-1.93c-1.76-1.81-3.59-3.78-5.96-6.4-.76-.93-1.51-1.83-2.32-2.71l-.85-1c-1.25-1.51-2.34-2.81-3.39-4.2l-.56-.71-2.42-2.95c-14.14-18.58-25.54-37.31-34.13-55.98V197.09h30.57v261.61s.66,1.46,1.34,2.66c6.84,13.4,15.38,26.86,25.54,40.33Z"/>
    <path class="st0" d="M375.95,279.56v259.95h-30.42v-251.74h-19.24v296.28c-10.28-6.86-20.58-14.43-30.37-22.54V197.18h30.37v60.43h27.74l21.92,21.95Z"/>
    <path class="st0" d="M472.29,509.4V219.13l-12.92-21.95h-67.14v320.47l21.95,21.92h27.74v64.65c10.72-6.2,20.85-12.48,30.37-18.92v-45.73h11.72v-30.18h-11.72ZM441.92,509.4h-19.24V227.36h19.24v282.04Z"/>
    <path class="st0" d="M592.98,475.83c-.54,1.15-1.07,2.27-1.64,3.39-.07.17-.17.34-.24.51-1,1.98-2,3.98-3.05,5.98-3.05,5.76-6.32,11.5-9.89,17.26l-14.04-11.79c-6.1,10.18-13.06,20.36-20.95,30.64l-.51.68c-.95,1.27-1.98,2.49-3.03,3.76l-1.46,1.88c-1.73,2.05-3.42,3.96-5.08,5.86l-1.07,1.2c-1,1.12-1.98,2.22-3.03,3.3-1.1,1.12-2.1,2.12-3,3.1l-1.71,1.71-19.8-17.51-3-2.66-3.59-3.2V197.18h30.08v289.32s.05,4.03.05,4.54c0,0,.02-.05.02-.07,7.23-10.38,13.43-20.68,18.6-30.91l.56-1.44V197.18h30.4v265.73l15.38,12.92Z"/>
  </g>
</svg>