<svg width="31" height="30" viewBox="0 0 31 30" fill="none" xmlns="http://www.w3.org/2000/svg">
<path d="M9.45272 15.5155L14.7705 10.1976L14.7705 21.5624C14.7705 21.9651 15.097 22.2916 15.4997 22.2916C15.9024 22.2916 16.2288 21.9651 16.2288 21.5624L16.2288 10.1976L21.5467 15.5154C21.8292 15.7883 22.2772 15.7883 22.5598 15.5154C22.8495 15.2356 22.8575 14.774 22.5777 14.4844L16.0158 7.9225C15.9489 7.85547 15.8692 7.80171 15.7805 7.76468C15.6924 7.72792 15.597 7.70807 15.4997 7.70825C15.4842 7.70825 15.4703 7.71608 15.4551 7.71706C15.3736 7.72214 15.2928 7.73389 15.2186 7.76495C15.1296 7.80216 15.0496 7.85619 14.9825 7.92356L8.42172 14.4844C8.14873 14.767 8.14873 15.215 8.42172 15.4976C8.70148 15.7872 9.16308 15.7952 9.45272 15.5155ZM15.4997 29.5833C23.5538 29.5833 30.083 23.054 30.083 14.9999C30.083 6.94579 23.5538 0.416584 15.4997 0.416584C7.44947 0.426018 0.925774 6.94971 0.91634 14.9999C0.91634 23.054 7.44555 29.5833 15.4997 29.5833ZM15.4997 1.87492C22.7484 1.87492 28.6247 7.75115 28.6247 14.9999C28.6247 22.2487 22.7484 28.1249 15.4997 28.1249C8.25429 28.1167 2.38286 22.2453 2.37467 14.9999C2.37467 7.75115 8.25091 1.87492 15.4997 1.87492Z" fill="#1F1F1F"/>
</svg>
