<svg width="24" height="24" viewBox="0 0 24 24" fill="none" xmlns="http://www.w3.org/2000/svg">
<path d="M23.7706 6.66575L16.1812 3.77232C15.9972 3.70219 15.7912 3.79447 15.7211 3.97831C15.6509 4.16233 15.7432 4.36832 15.9272 4.43845L22.643 6.99882L17.994 8.77146L12.147 6.12412C11.9676 6.04282 11.7565 6.12247 11.6754 6.30173C11.5941 6.48118 11.6737 6.6923 11.853 6.7736L17.0555 9.12925L12 11.0566L1.35699 6.99882L12 2.94102L14.6228 3.94114C14.8065 4.01109 15.0126 3.91898 15.0829 3.73496C15.1531 3.55112 15.0608 3.34513 14.8768 3.275L12.1271 2.22654C12.0452 2.19541 11.9548 2.19523 11.8729 2.22654L0.229431 6.66575C0.0913696 6.71848 0 6.85105 0 6.99882V8.62663C0 8.77439 0.0913696 8.90696 0.229431 8.95969L3.86536 10.3458V11.581C3.86536 11.7779 4.02484 11.9375 4.22168 11.9375C4.4187 11.9375 4.57819 11.7779 4.57819 11.581V10.6177L11.8729 13.3989C11.9139 13.4145 11.957 13.4223 12 13.4223C12.043 13.4223 12.0861 13.4145 12.1271 13.3989L17.6257 11.3025V16.9436C15.8994 17.8498 13.9636 18.3354 12 18.3354C9.32007 18.3354 6.69141 17.432 4.57819 15.7879V13.0069C4.57819 12.81 4.4187 12.6504 4.22168 12.6504C4.02484 12.6504 3.86536 12.81 3.86536 13.0069V15.9605C3.86536 16.0688 3.91443 16.1711 3.99884 16.2387C6.26038 18.0505 9.10199 19.0483 12 19.0483C13.9545 19.0483 15.8829 18.5938 17.6257 17.7425V19.1852C17.0513 19.3421 16.6278 19.8682 16.6278 20.4917C16.6278 21.2384 17.2354 21.8461 17.9821 21.8461C18.7289 21.8461 19.3365 21.2384 19.3365 20.4917C19.3365 19.8682 18.913 19.3421 18.3386 19.1852V17.3661C18.9196 17.0356 19.4762 16.6595 20.0013 16.2387C20.0858 16.1711 20.135 16.0688 20.135 15.9605V10.3456L23.7706 8.95951C23.9086 8.90696 24 8.77439 24 8.62644V6.99882C24 6.85105 23.9086 6.71848 23.7706 6.66575ZM18.6237 20.4917C18.6237 20.8453 18.3358 21.1331 17.9821 21.1331C17.6285 21.1331 17.3406 20.8453 17.3406 20.4917C17.3406 20.1379 17.6285 19.8501 17.9821 19.8501C18.3358 19.8501 18.6237 20.1379 18.6237 20.4917ZM0.71283 7.51627L11.6435 11.6838V12.5484L0.71283 8.3809V7.51627ZM12.3565 12.5484V11.6838L17.6257 9.67472V10.5395L12.3565 12.5484ZM19.422 15.7877C19.0743 16.0583 18.7123 16.3084 18.3386 16.5381V11.0306L19.422 10.6175V15.7877ZM18.3386 10.2676V9.40299L23.2872 7.51627V8.3809L18.3386 10.2676Z" fill="black"/>
</svg>
