<svg width="31" height="39" viewBox="0 0 31 39" fill="none" xmlns="http://www.w3.org/2000/svg">
<path d="M30.2613 13.3759C30.03 11.0142 29.2188 8.74152 27.8963 6.74983C26.5738 4.75814 24.7788 3.106 22.663 1.93301C20.5472 0.760025 18.1728 0.100663 15.7404 0.010645C13.308 -0.079373 10.8891 0.402598 8.68814 1.41583C6.48716 2.42906 4.56878 3.94378 3.0951 5.83199C1.62142 7.72019 0.635739 9.9264 0.22136 12.2642C-0.193019 14.6019 -0.0239217 17.0026 0.714362 19.2632C1.45265 21.5239 2.73842 23.5781 4.46303 25.2523L13.9188 34.4856C14.0847 34.6486 14.282 34.778 14.4994 34.8663C14.7168 34.9546 14.95 35 15.1856 35C15.4211 35 15.6543 34.9546 15.8717 34.8663C16.0891 34.778 16.2864 34.6486 16.4523 34.4856L25.8724 25.2523C27.4624 23.7142 28.6812 21.8505 29.4403 19.7962C30.1994 17.742 30.4799 15.5489 30.2613 13.3759Z" fill="#005F5F"/>
<ellipse cx="15.1666" cy="14.875" rx="12.4902" ry="12.25" fill="white"/>
<ellipse cx="15.6128" cy="37.625" rx="9.36765" ry="0.875" fill="url(#paint0_radial_14527_257)"/>
<path d="M10.2667 13.6825L17.362 8.1161C17.362 8.1161 17.7493 7.85489 18.0424 8.11608C18.3092 8.35375 18.2708 8.72483 18.2708 8.72483L16.671 14.9761H19.5038C20.0938 14.9761 20.1841 15.8365 19.6314 16.2696L12.5361 21.836C12.0259 22.2341 11.4732 21.8595 11.6326 21.2273L12.9401 16.1116L15.8329 14.9761L10.696 14.9585C10.1007 14.9585 9.71397 14.1156 10.2667 13.6825Z" fill="#005F5F"/>
<defs>
<radialGradient id="paint0_radial_14527_257" cx="0" cy="0" r="1" gradientUnits="userSpaceOnUse" gradientTransform="translate(15.6128 37.625) rotate(90) scale(0.875 9.36765)">
<stop stop-color="#A3A3A3"/>
<stop offset="1" stop-color="#C4C4C4" stop-opacity="0"/>
</radialGradient>
</defs>
</svg>
