<svg width="24" height="24" viewBox="0 0 24 24" fill="none" xmlns="http://www.w3.org/2000/svg">
<path d="M8.72728 0H2.18183C0.978493 0 0 0.978493 0 2.18183V8.72728C0 9.93057 0.978493 10.9091 2.18183 10.9091H8.72728C9.93057 10.9091 10.9091 9.93062 10.9091 8.72728V2.18183C10.9091 0.978493 9.93057 0 8.72728 0ZM9.81817 8.72728C9.81817 9.32864 9.32864 9.81817 8.72728 9.81817H2.18183C1.58047 9.81817 1.09094 9.32864 1.09094 8.72728V2.18183C1.09094 1.58047 1.58047 1.09094 2.18183 1.09094H8.72728C9.32864 1.09094 9.81817 1.58047 9.81817 2.18183V8.72728Z" fill="black"/>
<path d="M21.8181 0H15.2727C14.0693 0 13.0908 0.978493 13.0908 2.18183V8.72728C13.0908 9.93057 14.0693 10.9091 15.2727 10.9091H21.8181C23.0214 10.9091 23.9999 9.93062 23.9999 8.72728V2.18183C23.9999 0.978493 23.0214 0 21.8181 0ZM22.909 8.72728C22.909 9.32864 22.4195 9.81817 21.8181 9.81817H15.2727C14.6713 9.81817 14.1818 9.32864 14.1818 8.72728V2.18183C14.1818 1.58047 14.6713 1.09094 15.2727 1.09094H21.8181C22.4195 1.09094 22.909 1.58047 22.909 2.18183V8.72728Z" fill="black"/>
<path d="M8.72728 13.0908H2.18183C0.978493 13.0908 0 14.0693 0 15.2727V21.8181C0 23.0214 0.978493 23.9999 2.18183 23.9999H8.72728C9.93057 23.9999 10.9091 23.0214 10.9091 21.8181V15.2727C10.9091 14.0693 9.93057 13.0908 8.72728 13.0908ZM9.81817 21.8181C9.81817 22.4195 9.32864 22.909 8.72728 22.909H2.18183C1.58047 22.909 1.09094 22.4195 1.09094 21.8181V15.2727C1.09094 14.6713 1.58047 14.1818 2.18183 14.1818H8.72728C9.32864 14.1818 9.81817 14.6713 9.81817 15.2727V21.8181Z" fill="black"/>
<path d="M21.1131 15.9782C20.9 15.7651 20.5548 15.7651 20.3418 15.9782L18.5456 17.7743L16.7495 15.9782C16.5364 15.7651 16.1912 15.7651 15.9782 15.9782C15.7651 16.1913 15.7651 16.5364 15.9782 16.7495L17.7743 18.5456L15.9782 20.3418C15.7651 20.5549 15.7651 20.9 15.9782 21.1131C16.0847 21.2196 16.2243 21.2729 16.3638 21.2729C16.5034 21.2729 16.6429 21.2196 16.7495 21.1131L18.5457 19.3169L20.3418 21.1131C20.4484 21.2196 20.588 21.2729 20.7275 21.2729C20.8671 21.2729 21.0066 21.2196 21.1132 21.1131C21.3263 20.9 21.3263 20.5548 21.1132 20.3418L19.317 18.5456L21.1132 16.7495C21.3262 16.5364 21.3262 16.1913 21.1131 15.9782Z" fill="black"/>
</svg>
