<svg width="20" height="20" viewBox="0 0 20 20" fill="none" xmlns="http://www.w3.org/2000/svg">
<path fill-rule="evenodd" clip-rule="evenodd" d="M4.37924 3.1033C4.29591 2.10997 5.40841 1.56164 6.17257 2.07164L6.41924 2.23664C10.1754 4.74513 13.7 7.58419 16.9509 10.72C17.7592 11.5 17.0467 12.73 16.0392 12.6216L11.6509 12.1516C11.4418 12.1269 11.2302 12.1682 11.0458 12.2699C10.8613 12.3715 10.7133 12.5283 10.6226 12.7183L8.84841 16.6325C8.42007 17.5783 7.00924 17.4908 6.72841 16.47C5.55025 12.1922 4.7719 7.81421 4.40341 3.39247L4.37924 3.1033ZM5.64341 3.22164L5.64924 3.2883C6.00197 7.52241 6.73719 11.7159 7.84591 15.8175L9.48424 12.2025C9.88424 11.3191 10.8209 10.8058 11.7842 10.9091L15.7892 11.3383C12.6739 8.36468 9.30655 5.6668 5.72507 3.27497L5.64341 3.22164Z" fill="#1F1F1F"/>
</svg>
