<svg width="25" height="24" viewBox="0 0 25 24" fill="none" xmlns="http://www.w3.org/2000/svg">
<g clip-path="url(#clip0_11669_2387)">
<path d="M23.3284 12.0313V11.5743C23.3284 10.7322 22.8924 9.99053 22.2348 9.56163V4.57563C22.2348 3.26378 21.1675 2.19653 19.8557 2.19653H5.14433C3.83248 2.19653 2.76519 3.26378 2.76519 4.57563V9.56158C2.10753 9.99049 1.67159 10.7322 1.67159 11.5742V12.0313C0.998187 12.2086 0.5 12.8227 0.5 13.551V18.8993C0.5 19.7407 1.16478 20.4296 1.99667 20.4687V21.1017C1.99667 21.4893 2.31088 21.8035 2.69844 21.8035C3.086 21.8035 3.4002 21.4893 3.4002 21.1017V20.4706H21.5998V21.1017C21.5998 21.4893 21.914 21.8035 22.3015 21.8035C22.6891 21.8035 23.0033 21.4893 23.0033 21.1017V20.4687C23.8352 20.4295 24.5 19.7406 24.5 18.8992V13.551C24.5 12.8226 24.0018 12.2086 23.3284 12.0313ZM4.16877 4.57563C4.16877 4.03769 4.60639 3.60006 5.14433 3.60006H19.8557C20.3936 3.60006 20.8312 4.03769 20.8312 4.57563V9.17252H19.8955V7.93558C19.8955 7.0698 19.1912 6.36541 18.3253 6.36541H14.5492C13.6834 6.36541 12.979 7.0698 12.979 7.93558V9.17252H12.021V7.93558C12.021 7.0698 11.3166 6.36541 10.4508 6.36541H6.67466C5.80883 6.36541 5.10448 7.0698 5.10448 7.93558V9.17252H4.16877V4.57563ZM18.4919 7.93553V9.00588C18.4919 9.09775 18.4172 9.17247 18.3253 9.17247H14.5492C14.4573 9.17247 14.3826 9.09771 14.3826 9.00588V7.93553C14.3826 7.84366 14.4574 7.76894 14.5492 7.76894H18.3253C18.4172 7.76894 18.4919 7.84366 18.4919 7.93553ZM10.6174 7.93553V9.00588C10.6174 9.09775 10.5426 9.17247 10.4508 9.17247H6.67466C6.58278 9.17247 6.50806 9.09771 6.50806 9.00588V7.93553C6.50806 7.84366 6.58283 7.76894 6.67466 7.76894H10.4508C10.5426 7.76894 10.6174 7.84366 10.6174 7.93553ZM3.07517 11.5742C3.07517 11.0238 3.52297 10.576 4.07338 10.576H20.9266C21.477 10.576 21.9248 11.0238 21.9248 11.5742V11.9796H3.07517V11.5742ZM23.0964 18.8992C23.0964 18.9918 23.0211 19.067 22.9286 19.067H2.07139C1.97886 19.067 1.90353 18.9918 1.90353 18.8992V13.551C1.90353 13.4585 1.97881 13.3832 2.07139 13.3832H22.9286C23.0211 13.3832 23.0965 13.4585 23.0965 13.551V18.8992H23.0964Z" fill="#404040"/>
</g>
<defs>
<clipPath id="clip0_11669_2387">
<rect width="24" height="24" fill="white" transform="translate(0.5)"/>
</clipPath>
</defs>
</svg>
