<svg width="25" height="24" viewBox="0 0 25 24" fill="none" xmlns="http://www.w3.org/2000/svg">
<path d="M13 24C6.38304 24 1 18.6163 1 12C1 5.38372 6.38304 0 13 0C19.617 0 25 5.38304 25 12C25 18.617 19.617 24 13 24ZM13 1.03229C6.95217 1.03229 2.03229 5.95217 2.03229 12C2.03229 18.0478 6.95217 22.9677 13 22.9677C19.0478 22.9677 23.9677 18.0471 23.9677 12C23.9677 5.95286 19.0478 1.03229 13 1.03229Z" fill="#404040"/>
<path d="M13 21.0373C8.01681 21.0373 3.96268 16.9832 3.96268 12C3.96268 7.01678 8.01681 2.96265 13 2.96265C17.9832 2.96265 22.0373 7.01678 22.0373 12C22.0373 16.9832 17.9839 21.0373 13 21.0373ZM13 3.65084C11.3487 3.65084 9.73449 4.1405 8.36148 5.05792C6.98847 5.97533 5.91833 7.27929 5.2864 8.8049C4.65448 10.3305 4.48914 12.0092 4.81129 13.6288C5.13344 15.2484 5.92862 16.7361 7.09627 17.9037C8.26392 19.0714 9.7516 19.8665 11.3712 20.1887C12.9907 20.5108 14.6695 20.3455 16.1951 19.7136C17.7207 19.0817 19.0247 18.0115 19.9421 16.6385C20.8595 15.2655 21.3491 13.6513 21.3491 12C21.3468 9.78637 20.4664 7.66411 18.9011 6.09886C17.3359 4.5336 15.2136 3.65321 13 3.65084Z" fill="#404040"/>
<path d="M16.5297 15.5786C15.822 15.5786 15.1301 15.3687 14.5416 14.9755C13.9531 14.5823 13.4944 14.0234 13.2235 13.3695C12.9527 12.7156 12.8818 11.996 13.0199 11.3018C13.158 10.6077 13.4988 9.97001 13.9993 9.46954C14.4998 8.96906 15.1374 8.62823 15.8316 8.49015C16.5258 8.35207 17.2453 8.42294 17.8992 8.69379C18.5531 8.96465 19.112 9.42333 19.5052 10.0118C19.8985 10.6003 20.1083 11.2922 20.1083 12C20.1072 12.9488 19.7299 13.8584 19.059 14.5292C18.3881 15.2001 17.4785 15.5775 16.5297 15.5786ZM16.5297 9.10958C15.9581 9.10958 15.3992 9.2791 14.9239 9.5967C14.4486 9.9143 14.0781 10.3657 13.8594 10.8939C13.6406 11.422 13.5833 12.0032 13.6949 12.5639C13.8064 13.1246 14.0817 13.6396 14.4859 14.0438C14.8901 14.448 15.4052 14.7233 15.9658 14.8349C16.5265 14.9464 17.1077 14.8891 17.6358 14.6704C18.164 14.4516 18.6154 14.0811 18.933 13.6058C19.2506 13.1305 19.4201 12.5717 19.4201 12C19.4201 11.2334 19.1156 10.4982 18.5736 9.95616C18.0315 9.41411 17.2963 9.10958 16.5297 9.10958Z" fill="#404040"/>
<path d="M16.5297 13.5574C17.3898 13.5574 18.0871 12.8601 18.0871 12C18.0871 11.1399 17.3898 10.4426 16.5297 10.4426C15.6696 10.4426 14.9724 11.1399 14.9724 12C14.9724 12.8601 15.6696 13.5574 16.5297 13.5574Z" fill="#404040"/>
<path d="M9.26174 15.5786C8.55396 15.5786 7.86207 15.3687 7.27357 14.9755C6.68508 14.5823 6.2264 14.0234 5.95554 13.3695C5.68469 12.7156 5.61382 11.996 5.7519 11.3018C5.88998 10.6077 6.2308 9.97001 6.73128 9.46954C7.23175 8.96906 7.8694 8.62823 8.56358 8.49015C9.25776 8.35207 9.9773 8.42294 10.6312 8.69379C11.2851 8.96465 11.844 9.42333 12.2372 10.0118C12.6304 10.6003 12.8403 11.2922 12.8403 12C12.8392 12.9488 12.4619 13.8584 11.791 14.5292C11.1201 15.2001 10.2105 15.5775 9.26174 15.5786ZM9.26174 9.10958C8.69007 9.10958 8.13124 9.2791 7.65591 9.5967C7.18059 9.9143 6.81011 10.3657 6.59135 10.8939C6.37258 11.422 6.31534 12.0032 6.42687 12.5639C6.5384 13.1246 6.81368 13.6396 7.21791 14.0438C7.62214 14.448 8.13716 14.7233 8.69784 14.8349C9.25853 14.9464 9.83969 14.8891 10.3678 14.6704C10.896 14.4516 11.3474 14.0811 11.665 13.6058C11.9826 13.1305 12.1521 12.5717 12.1521 12C12.1521 11.2334 11.8476 10.4982 11.3056 9.95616C10.7635 9.41411 10.0283 9.10958 9.26174 9.10958Z" fill="#404040"/>
<path d="M9.26175 13.5574C10.1219 13.5574 10.8191 12.8601 10.8191 12C10.8191 11.1399 10.1219 10.4426 9.26175 10.4426C8.40164 10.4426 7.70438 11.1399 7.70438 12C7.70438 12.8601 8.40164 13.5574 9.26175 13.5574Z" fill="#404040"/>
<path d="M11.7171 5.40437L11.2304 5.89099L14.0538 8.71438L14.5405 8.22776L11.7171 5.40437Z" fill="#404040"/>
<path d="M14.0538 5.41195L11.2304 8.23535L11.717 8.72198L14.5404 5.89858L14.0538 5.41195Z" fill="#404040"/>
<path d="M11.7177 15.2847L11.231 15.7714L14.0544 18.5948L14.5411 18.1081L11.7177 15.2847Z" fill="#404040"/>
<path d="M14.0538 15.2937L11.2304 18.1171L11.717 18.6037L14.5404 15.7803L14.0538 15.2937Z" fill="#404040"/>
</svg>
