<svg width="20" height="20" viewBox="0 0 20 20" fill="none" xmlns="http://www.w3.org/2000/svg">
<path d="M18.25 9.08337H17.2692C17.0646 7.47002 16.3295 5.97044 15.1796 4.82049C14.0296 3.67054 12.5301 2.93547 10.9167 2.73087V1.75004C10.9167 1.50693 10.8201 1.27377 10.6482 1.10186C10.4763 0.929951 10.2432 0.833374 10 0.833374C9.75693 0.833374 9.52377 0.929951 9.35186 1.10186C9.17995 1.27377 9.08337 1.50693 9.08337 1.75004V2.73087C7.47002 2.93547 5.97044 3.67054 4.82049 4.82049C3.67054 5.97044 2.93547 7.47002 2.73087 9.08337H1.75004C1.50693 9.08337 1.27377 9.17995 1.10186 9.35186C0.929951 9.52377 0.833374 9.75693 0.833374 10C0.833374 10.2432 0.929951 10.4763 1.10186 10.6482C1.27377 10.8201 1.50693 10.9167 1.75004 10.9167H2.73087C2.93547 12.5301 3.67054 14.0296 4.82049 15.1796C5.97044 16.3295 7.47002 17.0646 9.08337 17.2692V18.25C9.08337 18.4932 9.17995 18.7263 9.35186 18.8982C9.52377 19.0701 9.75693 19.1667 10 19.1667C10.2432 19.1667 10.4763 19.0701 10.6482 18.8982C10.8201 18.7263 10.9167 18.4932 10.9167 18.25V17.2692C12.5301 17.0646 14.0296 16.3295 15.1796 15.1796C16.3295 14.0296 17.0646 12.5301 17.2692 10.9167H18.25C18.4932 10.9167 18.7263 10.8201 18.8982 10.6482C19.0701 10.4763 19.1667 10.2432 19.1667 10C19.1667 9.75693 19.0701 9.52377 18.8982 9.35186C18.7263 9.17995 18.4932 9.08337 18.25 9.08337ZM10 15.5C8.91224 15.5 7.84887 15.1775 6.9444 14.5731C6.03993 13.9688 5.33498 13.1098 4.9187 12.1048C4.50242 11.0998 4.3935 9.99394 4.60572 8.92704C4.81794 7.86015 5.34176 6.88014 6.11095 6.11095C6.88014 5.34176 7.86015 4.81794 8.92704 4.60572C9.99394 4.3935 11.0998 4.50242 12.1048 4.9187C13.1098 5.33498 13.9688 6.03993 14.5731 6.9444C15.1775 7.84887 15.5 8.91224 15.5 10C15.5 11.4587 14.9206 12.8577 13.8891 13.8891C12.8577 14.9206 11.4587 15.5 10 15.5ZM10 7.25004C9.45614 7.25004 8.92446 7.41133 8.47222 7.7135C8.01999 8.01567 7.66751 8.44516 7.45937 8.94766C7.25123 9.45016 7.19677 10.0031 7.30288 10.5365C7.40899 11.07 7.6709 11.56 8.0555 11.9446C8.44009 12.3292 8.93009 12.5911 9.46354 12.6972C9.99699 12.8033 10.5499 12.7488 11.0524 12.5407C11.5549 12.3326 11.9844 11.9801 12.2866 11.5279C12.5888 11.0756 12.75 10.5439 12.75 10C12.75 9.27069 12.4603 8.57122 11.9446 8.0555C11.4289 7.53977 10.7294 7.25004 10 7.25004ZM10 10.9167C9.81874 10.9167 9.64151 10.8629 9.49077 10.7622C9.34002 10.6615 9.22253 10.5183 9.15315 10.3508C9.08377 10.1833 9.06562 9.99902 9.10099 9.82121C9.13636 9.64339 9.22366 9.48006 9.35186 9.35186C9.48006 9.22366 9.64339 9.13636 9.82121 9.10099C9.99902 9.06562 10.1833 9.08377 10.3508 9.15315C10.5183 9.22253 10.6615 9.34002 10.7622 9.49077C10.8629 9.64151 10.9167 9.81874 10.9167 10C10.9167 10.2432 10.8201 10.4763 10.6482 10.6482C10.4763 10.8201 10.2432 10.9167 10 10.9167Z" fill="#404040"/>
</svg>
