<svg width="101" height="101" viewBox="0 0 101 101" fill="none" xmlns="http://www.w3.org/2000/svg">
<rect x="13.5" y="5.5" width="75" height="91" rx="8" fill="#E4EBEF"/>
<path d="M72.1905 30.5V38.7297H45.3043L40.5 34.615L45.3043 30.5H72.1905Z" fill="#CAD7DF"/>
<path d="M72.1905 45.5188V53.7484H45.3043L40.5 49.6336L45.3043 45.5188H72.1905Z" fill="#CAD7DF"/>
<path d="M72.1905 60.5374V68.7669H45.3043L40.5 64.6521L45.3043 60.5374H72.1905Z" fill="#CAD7DF"/>
<path d="M35.2019 31.5193L31.8312 34.8895L31.2961 34.3544C30.7766 33.8349 29.9351 33.8354 29.4155 34.3539C28.896 34.8734 28.896 35.7155 29.4155 36.2348L30.8909 37.7105C31.4125 38.2321 32.2543 38.2277 32.7715 37.7105L37.0824 33.3996C37.602 32.8805 37.602 32.038 37.0824 31.519C36.5629 30.9998 35.7214 30.9998 35.2019 31.5193Z" fill="#3E5765"/>
<path d="M59.5208 33.2854H46.912C46.1778 33.2854 45.582 33.8807 45.582 34.6153C45.582 35.35 46.1777 35.9453 46.912 35.9453H59.5208C60.255 35.9453 60.8508 35.35 60.8508 34.6153C60.8506 33.8807 60.255 33.2854 59.5208 33.2854Z" fill="#3E5765"/>
<path d="M35.2019 46.5381L31.8312 49.9083L31.2961 49.3732C30.7766 48.8537 29.9351 48.8542 29.4155 49.3727C28.896 49.8922 28.896 50.7342 29.4155 51.2536L30.8909 52.7293C31.4125 53.2509 32.2543 53.2465 32.7715 52.7293L37.0824 48.4185C37.602 47.8995 37.602 47.057 37.0824 46.5379C36.5629 46.0186 35.7214 46.0186 35.2019 46.5381Z" fill="#3E5765"/>
<path d="M59.5208 48.3037H46.912C46.1778 48.3037 45.582 48.899 45.582 49.6336C45.582 50.3683 46.1777 50.9636 46.912 50.9636H59.5208C60.255 50.9636 60.8508 50.3683 60.8508 49.6336C60.8508 48.899 60.255 48.3037 59.5208 48.3037Z" fill="#3E5765"/>
<path d="M35.2019 61.5564L31.8312 64.9266L31.2961 64.3915C30.7766 63.872 29.9351 63.8725 29.4155 64.391C28.896 64.9105 28.896 65.7526 29.4155 66.2719L30.8909 67.7476C31.4125 68.2692 32.2543 68.2648 32.7715 67.7476L37.0824 63.4367C37.602 62.9177 37.602 62.0751 37.0824 61.5561C36.5629 61.0369 35.7214 61.0369 35.2019 61.5564Z" fill="#3E5765"/>
<path d="M59.5208 63.322H46.912C46.1778 63.322 45.582 63.9173 45.582 64.652C45.582 65.3866 46.1777 65.9819 46.912 65.9819H59.5208C60.255 65.9819 60.8508 65.3866 60.8508 64.652C60.8508 63.9173 60.255 63.322 59.5208 63.322Z" fill="#3E5765"/>
<g clip-path="url(#clip0_8488_4701)">
<path d="M79.5 96.4869C90.5457 96.4869 99.5 87.5385 99.5 76.5001C99.5 65.4616 90.5457 56.5132 79.5 56.5132C68.4543 56.5132 59.5 65.4616 59.5 76.5001C59.5 87.5385 68.4543 96.4869 79.5 96.4869Z" fill="#F44336"/>
<path d="M73.1573 67.0614L70.0642 70.1544L85.8452 85.9354L88.9383 82.8423L73.1573 67.0614Z" fill="white"/>
<path d="M85.8435 67.0602L70.0625 82.8412L73.1556 85.9343L88.9365 70.1533L85.8435 67.0602Z" fill="white"/>
</g>
<defs>
<clipPath id="clip0_8488_4701">
<rect width="40" height="40" fill="white" transform="translate(59.5 56.5)"/>
</clipPath>
</defs>
</svg>
