<svg width="24" height="24" viewBox="0 0 24 24" fill="none" xmlns="http://www.w3.org/2000/svg">
<path d="M12 24C5.38304 24 0 18.6163 0 12C0 5.38372 5.38304 0 12 0C18.617 0 24 5.38304 24 12C24 18.617 18.617 24 12 24ZM12 1.03229C5.95217 1.03229 1.03229 5.95217 1.03229 12C1.03229 18.0478 5.95217 22.9677 12 22.9677C18.0478 22.9677 22.9677 18.0471 22.9677 12C22.9677 5.95286 18.0478 1.03229 12 1.03229Z" fill="#1F1F1F"/>
<path d="M12 21.0373C7.01681 21.0373 2.96268 16.9832 2.96268 12C2.96268 7.01678 7.01681 2.96265 12 2.96265C16.9832 2.96265 21.0373 7.01678 21.0373 12C21.0373 16.9832 16.9839 21.0373 12 21.0373ZM12 3.65084C10.3487 3.65084 8.73449 4.1405 7.36148 5.05792C5.98847 5.97533 4.91833 7.27929 4.2864 8.8049C3.65448 10.3305 3.48914 12.0092 3.81129 13.6288C4.13344 15.2484 4.92862 16.7361 6.09627 17.9037C7.26392 19.0714 8.7516 19.8665 10.3712 20.1887C11.9907 20.5108 13.6695 20.3455 15.1951 19.7136C16.7207 19.0817 18.0247 18.0115 18.9421 16.6385C19.8595 15.2655 20.3491 13.6513 20.3491 12C20.3468 9.78637 19.4664 7.66411 17.9011 6.09886C16.3359 4.5336 14.2136 3.65321 12 3.65084Z" fill="#1F1F1F"/>
<path d="M15.5297 15.5786C14.822 15.5786 14.1301 15.3687 13.5416 14.9755C12.9531 14.5823 12.4944 14.0234 12.2235 13.3695C11.9527 12.7156 11.8818 11.996 12.0199 11.3018C12.158 10.6077 12.4988 9.97001 12.9993 9.46954C13.4998 8.96906 14.1374 8.62823 14.8316 8.49015C15.5258 8.35207 16.2453 8.42294 16.8992 8.69379C17.5531 8.96465 18.112 9.42333 18.5052 10.0118C18.8985 10.6003 19.1083 11.2922 19.1083 12C19.1072 12.9488 18.7299 13.8584 18.059 14.5292C17.3881 15.2001 16.4785 15.5775 15.5297 15.5786ZM15.5297 9.10958C14.9581 9.10958 14.3992 9.2791 13.9239 9.5967C13.4486 9.9143 13.0781 10.3657 12.8594 10.8939C12.6406 11.422 12.5833 12.0032 12.6949 12.5639C12.8064 13.1246 13.0817 13.6396 13.4859 14.0438C13.8901 14.448 14.4052 14.7233 14.9658 14.8349C15.5265 14.9464 16.1077 14.8891 16.6358 14.6704C17.164 14.4516 17.6154 14.0811 17.933 13.6058C18.2506 13.1305 18.4201 12.5717 18.4201 12C18.4201 11.2334 18.1156 10.4982 17.5736 9.95616C17.0315 9.41411 16.2963 9.10958 15.5297 9.10958Z" fill="#1F1F1F"/>
<path d="M15.5297 13.5574C16.3898 13.5574 17.0871 12.8601 17.0871 12C17.0871 11.1399 16.3898 10.4426 15.5297 10.4426C14.6696 10.4426 13.9724 11.1399 13.9724 12C13.9724 12.8601 14.6696 13.5574 15.5297 13.5574Z" fill="#1F1F1F"/>
<path d="M8.26174 15.5786C7.55396 15.5786 6.86207 15.3687 6.27357 14.9755C5.68508 14.5823 5.2264 14.0234 4.95554 13.3695C4.68469 12.7156 4.61382 11.996 4.7519 11.3018C4.88998 10.6077 5.2308 9.97001 5.73128 9.46954C6.23175 8.96906 6.8694 8.62823 7.56358 8.49015C8.25776 8.35207 8.9773 8.42294 9.63121 8.69379C10.2851 8.96465 10.844 9.42333 11.2372 10.0118C11.6304 10.6003 11.8403 11.2922 11.8403 12C11.8392 12.9488 11.4619 13.8584 10.791 14.5292C10.1201 15.2001 9.2105 15.5775 8.26174 15.5786ZM8.26174 9.10958C7.69007 9.10958 7.13124 9.2791 6.65591 9.5967C6.18059 9.9143 5.81011 10.3657 5.59135 10.8939C5.37258 11.422 5.31534 12.0032 5.42687 12.5639C5.5384 13.1246 5.81368 13.6396 6.21791 14.0438C6.62214 14.448 7.13716 14.7233 7.69784 14.8349C8.25853 14.9464 8.83969 14.8891 9.36784 14.6704C9.89599 14.4516 10.3474 14.0811 10.665 13.6058C10.9826 13.1305 11.1521 12.5717 11.1521 12C11.1521 11.2334 10.8476 10.4982 10.3056 9.95616C9.76351 9.41411 9.02832 9.10958 8.26174 9.10958Z" fill="#1F1F1F"/>
<path d="M8.26175 13.5574C9.12187 13.5574 9.81913 12.8601 9.81913 12C9.81913 11.1399 9.12187 10.4426 8.26175 10.4426C7.40164 10.4426 6.70438 11.1399 6.70438 12C6.70438 12.8601 7.40164 13.5574 8.26175 13.5574Z" fill="#1F1F1F"/>
<path d="M10.7171 5.40437L10.2304 5.89099L13.0538 8.71438L13.5405 8.22776L10.7171 5.40437Z" fill="#1F1F1F"/>
<path d="M13.0538 5.41195L10.2304 8.23535L10.717 8.72198L13.5404 5.89858L13.0538 5.41195Z" fill="#1F1F1F"/>
<path d="M10.7177 15.2847L10.231 15.7714L13.0544 18.5948L13.5411 18.1081L10.7177 15.2847Z" fill="#1F1F1F"/>
<path d="M13.0538 15.2937L10.2304 18.1171L10.717 18.6037L13.5404 15.7803L13.0538 15.2937Z" fill="#1F1F1F"/>
</svg>
