<svg width="39" height="105" viewBox="0 0 39 105" fill="none" xmlns="http://www.w3.org/2000/svg">
<path d="M28.092 104.108C30.0442 103.813 31.8247 103.083 33.3481 102.033C37.1723 99.3948 39.3812 94.734 38.6503 89.8387C38.5097 88.8963 38.2407 87.9345 37.9094 87.0823L17.1366 34.599L9.22569 14.6116L4.32523 2.22985C3.75489 0.788851 2.17979 0.625636 1.18554 1.31143C0.603507 1.71289 0.220497 2.40547 0.35436 3.30306L2.40043 17.008L5.41883 37.2257L13.8334 93.589C14.8553 100.434 21.2393 105.144 28.092 104.108ZM22.9508 86.1388C25.7483 84.2092 29.5768 84.9075 31.5021 87.6987C33.4272 90.4897 32.7201 94.3168 29.9226 96.2464C27.1252 98.176 23.2965 97.4775 21.3714 94.6865C19.4459 91.895 20.1534 88.0684 22.9508 86.1388Z" fill="#1F1F1F"/>
</svg>
