<svg width="24" height="24" viewBox="0 0 24 24" fill="none" xmlns="http://www.w3.org/2000/svg">
<path d="M12 3C6.47125 3 2 7.6779 2 13.44C2 16.227 3.04066 18.8483 4.93027 20.8208C5.04465 20.9403 5.19465 21 5.34457 21C5.49453 21 5.64449 20.9403 5.75891 20.8208L7.53367 18.9678C7.76246 18.7289 7.76246 18.3416 7.53367 18.1027C7.03199 17.579 5.69086 16.0213 5.6823 13.4395C5.68254 9.77141 8.53566 6.84429 12 6.84429C15.5117 6.84429 18.3175 9.82051 18.3177 13.4395C18.3126 14.9752 17.8271 16.3821 16.9577 17.5268C16.0546 16.0646 14.0386 12.85 13.3018 12.081C12.5763 11.3235 11.4106 11.3371 10.6981 12.081C9.97117 12.8398 9.98711 14.0568 10.6981 14.799C11.5785 15.7184 15.8047 18.5451 16.5126 19.0162L18.2411 20.8208C18.3555 20.9403 18.5054 21 18.6554 21C18.8054 21 18.9553 20.9403 19.0697 20.8208C20.9593 18.8482 22 16.227 22 13.44C22 7.66734 17.5183 3 12 3ZM6.30656 18.5187L5.35797 19.5092C4.07258 17.9807 3.31754 16.0793 3.1909 14.0517H4.53293C4.65516 15.706 5.27187 17.2585 6.30656 18.5187ZM4.53289 12.8283H3.1909C3.3175 10.8006 4.07254 8.89926 5.35797 7.37082L6.30656 8.36119C5.2709 9.62206 4.65492 11.1736 4.53289 12.8283ZM11.4141 5.6443C9.8291 5.7717 8.34277 6.41494 7.13516 7.49605L6.18664 6.50572C7.65082 5.16377 9.47203 4.37547 11.4141 4.2433V5.6443ZM11.5268 13.934C11.2636 13.6592 11.2674 13.2168 11.5268 12.9461C11.7879 12.6735 12.2124 12.6737 12.4732 12.9461C12.4732 12.9461 12.4732 12.9461 12.4733 12.9461C12.8935 13.3847 13.9351 14.9618 14.8788 16.4454C13.4577 15.4602 11.947 14.3728 11.5268 13.934ZM12.5859 5.6443V4.2433C14.528 4.37547 16.3492 5.16377 17.8134 6.50576L16.8648 7.49609C15.6572 6.41494 14.1709 5.7717 12.5859 5.6443ZM17.6934 8.36119L18.642 7.37082C19.9274 8.89926 20.6825 10.8006 20.8091 12.8283H19.4671C19.3451 11.1736 18.7291 9.62206 17.6934 8.36119ZM18.642 19.5092L17.6934 18.5187C18.7281 17.2585 19.3448 15.706 19.4671 14.0517H20.8091C20.6825 16.0793 19.9274 17.9807 18.642 19.5092Z" fill="#404040"/>
</svg>
