<svg width="25" height="24" viewBox="0 0 25 24" fill="none" xmlns="http://www.w3.org/2000/svg">
<path d="M13.0011 22.4831C9.80224 22.4831 6.79632 21.2846 4.53735 19.108C2.27839 16.9315 1.01827 14.0133 1.00018 10.9035C0.982096 7.67119 2.29848 4.65991 4.70617 2.42439C5.71406 1.49904 7.03523 0.990107 8.40345 1.00015H17.5961C18.9727 0.991713 20.3011 1.50682 21.3121 2.44114C23.6903 4.6579 25 7.64037 25 10.8392C25.0007 17.2597 19.6179 22.4831 13.0011 22.4831ZM8.40412 2.00502C7.28909 1.99484 6.21171 2.40807 5.38949 3.1613C3.19015 5.20254 1.98764 7.94987 2.00439 10.8982C2.02047 13.7346 3.16737 16.3915 5.23339 18.3845C7.29942 20.3775 10.0622 21.4782 12.9998 21.4782C19.0625 21.4782 23.9945 16.7057 23.9945 10.8392C23.9945 7.92241 22.7986 5.2012 20.6261 3.17671C19.8012 2.41564 18.7177 1.99676 17.5954 2.00502H8.40412Z" fill="#404040"/>
<path d="M13.0017 20.0144H12.9348C11.6686 20.0019 10.4174 19.7397 9.25282 19.2429C8.0882 18.7461 7.03305 18.0243 6.14781 17.119C4.42411 15.3484 3.50097 13.0546 3.54853 10.6604C3.59837 8.29554 4.57711 6.0454 6.27309 4.39662C6.6402 4.04112 7.13137 3.84263 7.6424 3.84326H18.3611C18.8725 3.8431 19.3638 4.04205 19.7311 4.39796C21.4883 6.12568 22.4563 8.41345 22.4563 10.8412C22.4563 13.2529 21.501 15.5307 19.7652 17.251C17.9699 19.033 15.5695 20.0144 13.0017 20.0144ZM7.6424 4.51251C7.30687 4.51153 6.98415 4.64129 6.7427 4.87427C5.17113 6.39951 4.26334 8.48223 4.21577 10.6717C4.17156 12.8858 5.02704 15.0088 6.62748 16.6501C7.45042 17.492 8.43135 18.1634 9.5141 18.6257C10.5969 19.0881 11.7602 19.3323 12.9374 19.3445H13.0044C15.3947 19.3445 17.6269 18.4334 19.2963 16.7747C20.0853 16.0002 20.712 15.0761 21.1397 14.0565C21.5674 13.0368 21.7874 11.9422 21.7871 10.8365C21.7871 8.5903 20.89 6.47135 19.2621 4.87427C19.0205 4.641 18.6976 4.51101 18.3618 4.51184L7.6424 4.51251Z" fill="#404040"/>
<path d="M16.1216 18.0864C15.6366 18.0864 15.1625 17.9426 14.7593 17.6732C14.3561 17.4037 14.0418 17.0207 13.8563 16.5727C13.6707 16.1246 13.6222 15.6316 13.7168 15.1559C13.8115 14.6803 14.0451 14.2434 14.3881 13.9005C14.731 13.5576 15.168 13.3242 15.6436 13.2296C16.1193 13.1351 16.6123 13.1838 17.0603 13.3695C17.5084 13.5551 17.8912 13.8695 18.1606 14.2728C18.4299 14.6761 18.5736 15.1502 18.5735 15.6352C18.5728 16.2852 18.3142 16.9084 17.8545 17.3679C17.3948 17.8275 16.7716 18.0859 16.1216 18.0864ZM16.1216 13.8532C15.7691 13.8532 15.4246 13.9577 15.1316 14.1535C14.8385 14.3493 14.6101 14.6276 14.4752 14.9533C14.3404 15.2789 14.3051 15.6372 14.3738 15.9828C14.4426 16.3285 14.6123 16.646 14.8615 16.8952C15.1107 17.1445 15.4283 17.3142 15.7739 17.3829C16.1196 17.4517 16.4779 17.4164 16.8035 17.2815C17.1291 17.1467 17.4074 16.9182 17.6032 16.6252C17.799 16.3322 17.9036 15.9876 17.9036 15.6352C17.9037 15.1623 17.7161 14.7088 17.382 14.3742C17.0478 14.0397 16.5944 13.8516 16.1216 13.8512V13.8532Z" fill="#404040"/>
<path d="M16.8072 15.7948C16.8972 15.4134 16.661 15.0313 16.2797 14.9413C15.8983 14.8513 15.5162 15.0875 15.4262 15.4688C15.3362 15.8502 15.5724 16.2323 15.9537 16.3223C16.3351 16.4123 16.7172 16.1761 16.8072 15.7948Z" fill="#404040"/>
<path d="M12.8892 12.9381C12.4043 12.9381 11.9302 12.7943 11.527 12.5249C11.1238 12.2555 10.8095 11.8725 10.624 11.4245C10.4384 10.9765 10.3898 10.4835 10.4844 10.0079C10.579 9.53224 10.8126 9.09535 11.1555 8.75245C11.4984 8.40955 11.9353 8.17602 12.4109 8.08142C12.8865 7.98681 13.3795 8.03536 13.8275 8.22094C14.2755 8.40652 14.6585 8.72079 14.9279 9.124C15.1973 9.52722 15.3411 10.0013 15.3411 10.4862C15.3404 11.1363 15.0819 11.7595 14.6222 12.2192C14.1625 12.6788 13.5393 12.9374 12.8892 12.9381ZM12.8892 8.70489C12.5367 8.70489 12.1922 8.80942 11.8991 9.00526C11.6061 9.20109 11.3777 9.47944 11.2428 9.80509C11.108 10.1307 11.0727 10.4891 11.1415 10.8348C11.2103 11.1805 11.3801 11.498 11.6294 11.7472C11.8787 11.9964 12.1963 12.166 12.542 12.2347C12.8877 12.3034 13.246 12.268 13.5716 12.133C13.8972 11.998 14.1755 11.7695 14.3712 11.4764C14.5669 11.1833 14.6713 10.8387 14.6712 10.4862C14.6707 10.0138 14.4827 9.56094 14.1486 9.22698C13.8146 8.89301 13.3616 8.70525 12.8892 8.70489Z" fill="#404040"/>
<path d="M13.5742 10.6461C13.6642 10.2647 13.4281 9.88264 13.0467 9.79264C12.6654 9.70264 12.2833 9.93881 12.1933 10.3202C12.1033 10.7015 12.3395 11.0836 12.7208 11.1736C13.1021 11.2636 13.4842 11.0274 13.5742 10.6461Z" fill="#404040"/>
<path d="M18.7798 12.9381C18.2948 12.9382 17.8207 12.7945 17.4174 12.5252C17.0141 12.2559 16.6998 11.873 16.5141 11.425C16.3284 10.977 16.2797 10.4839 16.3743 10.0083C16.4688 9.53261 16.7023 9.09566 17.0451 8.75269C17.388 8.40971 17.8249 8.17612 18.3005 8.08146C18.7762 7.9868 19.2692 8.03532 19.7173 8.22088C20.1654 8.40644 20.5483 8.72071 20.8178 9.12393C21.0872 9.52716 21.231 10.0012 21.231 10.4862C21.2303 11.1362 20.9719 11.7593 20.5124 12.2189C20.0528 12.6786 19.4298 12.9372 18.7798 12.9381ZM18.7798 8.70489C18.4273 8.70489 18.0828 8.80942 17.7897 9.00525C17.4967 9.20109 17.2683 9.47944 17.1334 9.80509C16.9986 10.1307 16.9633 10.4891 17.0321 10.8348C17.1009 11.1805 17.2707 11.498 17.52 11.7472C17.7693 11.9964 18.0869 12.166 18.4326 12.2347C18.7783 12.3034 19.1366 12.268 19.4622 12.133C19.7878 11.998 20.0661 11.7695 20.2618 11.4764C20.4575 11.1833 20.5619 10.8387 20.5618 10.4862C20.5613 10.0138 20.3733 9.56094 20.0392 9.22698C19.7051 8.89301 19.2522 8.70525 18.7798 8.70489Z" fill="#404040"/>
<path d="M19.2813 10.9876C19.5583 10.7106 19.5583 10.2614 19.2813 9.98431C19.0042 9.70726 18.555 9.70726 18.278 9.98431C18.0009 10.2614 18.0009 10.7106 18.278 10.9876C18.555 11.2647 19.0042 11.2647 19.2813 10.9876Z" fill="#404040"/>
<path d="M7.14666 12.9381C6.66172 12.9381 6.18767 12.7943 5.78446 12.5249C5.38125 12.2555 5.06698 11.8725 4.8814 11.4245C4.69583 10.9765 4.64727 10.4835 4.74188 10.0079C4.83648 9.53224 5.07 9.09535 5.41291 8.75245C5.75581 8.40955 6.1927 8.17602 6.66832 8.08142C7.14395 7.98681 7.63694 8.03536 8.08497 8.22094C8.53299 8.40652 8.91592 8.72079 9.18534 9.124C9.45476 9.52722 9.59856 10.0013 9.59856 10.4862C9.59785 11.1363 9.3393 11.7595 8.87963 12.2192C8.41997 12.6788 7.79673 12.9374 7.14666 12.9381ZM7.14666 8.70489C6.79419 8.70489 6.44964 8.80942 6.15658 9.00526C5.86352 9.20109 5.63512 9.47944 5.50026 9.80509C5.36541 10.1307 5.33016 10.4891 5.39897 10.8348C5.46778 11.1805 5.63756 11.498 5.88685 11.7472C6.13613 11.9964 6.45371 12.166 6.79943 12.2347C7.14514 12.3034 7.50346 12.268 7.82906 12.133C8.15466 11.998 8.43293 11.7695 8.62865 11.4764C8.82438 11.1833 8.92878 10.8387 8.92864 10.4862C8.92811 10.0138 8.74018 9.56094 8.40609 9.22698C8.072 8.89301 7.61905 8.70525 7.14666 8.70489Z" fill="#404040"/>
<path d="M7.6482 10.9882C7.92526 10.7112 7.92526 10.262 7.6482 9.98492C7.37115 9.70787 6.92195 9.70787 6.6449 9.98492C6.36785 10.262 6.36785 10.7112 6.6449 10.9882C6.92196 11.2653 7.37115 11.2653 7.6482 10.9882Z" fill="#404040"/>
<path d="M9.91745 18.0864C9.43248 18.0864 8.95841 17.9426 8.55518 17.6732C8.15195 17.4037 7.83768 17.0207 7.65212 16.5727C7.46656 16.1246 7.41805 15.6316 7.51271 15.1559C7.60737 14.6803 7.84096 14.2434 8.18393 13.9005C8.5269 13.5576 8.96385 13.3242 9.43952 13.2296C9.91518 13.1351 10.4082 13.1838 10.8562 13.3695C11.3042 13.5551 11.6871 13.8695 11.9565 14.2728C12.2258 14.6761 12.3695 15.1502 12.3693 15.6352C12.3686 16.2852 12.1101 16.9084 11.6504 17.3679C11.1907 17.8275 10.5675 18.0859 9.91745 18.0864ZM9.91745 13.8532C9.565 13.8532 9.22047 13.9577 8.92743 14.1535C8.63438 14.3493 8.40598 14.6276 8.27111 14.9533C8.13624 15.2789 8.10095 15.6372 8.16971 15.9828C8.23846 16.3285 8.40818 16.646 8.65739 16.8952C8.90661 17.1445 9.22413 17.3142 9.5698 17.3829C9.91547 17.4517 10.2738 17.4164 10.5994 17.2815C10.925 17.1467 11.2033 16.9182 11.3991 16.6252C11.5949 16.3322 11.6994 15.9876 11.6994 15.6352C11.6996 15.1623 11.512 14.7088 11.1778 14.3742C10.8437 14.0397 10.3903 13.8516 9.91745 13.8512V13.8532Z" fill="#404040"/>
<path d="M10.6227 15.7513C10.6855 15.3646 10.4229 15.0001 10.0361 14.9374C9.64939 14.8746 9.28497 15.1372 9.22219 15.524C9.15941 15.9107 9.42205 16.2751 9.8088 16.3379C10.1956 16.4007 10.56 16.1381 10.6227 15.7513Z" fill="#404040"/>
<path d="M15.731 8.01151C15.413 8.01151 15.1022 7.91721 14.8378 7.74054C14.5733 7.56388 14.3673 7.31277 14.2456 7.01898C14.1239 6.7252 14.0921 6.40192 14.1541 6.09004C14.2161 5.77815 14.3693 5.49167 14.5941 5.26681C14.819 5.04196 15.1055 4.88883 15.4173 4.82679C15.7292 4.76475 16.0525 4.7966 16.3463 4.91829C16.6401 5.03998 16.8912 5.24605 17.0678 5.51046C17.2445 5.77486 17.3388 6.08571 17.3388 6.4037C17.3388 6.83012 17.1694 7.23907 16.8679 7.54059C16.5664 7.84211 16.1574 8.01151 15.731 8.01151ZM15.731 5.46582C15.5455 5.46582 15.3642 5.52083 15.2099 5.62388C15.0557 5.72694 14.9355 5.87341 14.8645 6.04479C14.7935 6.21616 14.775 6.40474 14.8111 6.58668C14.8473 6.76861 14.9366 6.93572 15.0678 7.06689C15.199 7.19805 15.3661 7.28738 15.548 7.32357C15.73 7.35975 15.9185 7.34118 16.0899 7.2702C16.2613 7.19921 16.4078 7.079 16.5108 6.92476C16.6139 6.77053 16.6689 6.5892 16.6689 6.4037C16.6689 6.15496 16.5701 5.9164 16.3942 5.74052C16.2183 5.56463 15.9797 5.46582 15.731 5.46582Z" fill="#404040"/>
<path d="M16.1577 6.40367C16.1577 6.48807 16.1327 6.57057 16.0858 6.64075C16.0389 6.71092 15.9723 6.76562 15.8943 6.79792C15.8163 6.83022 15.7305 6.83867 15.6477 6.8222C15.565 6.80574 15.4889 6.7651 15.4292 6.70542C15.3696 6.64574 15.3289 6.5697 15.3125 6.48692C15.296 6.40414 15.3044 6.31834 15.3367 6.24036C15.369 6.16239 15.4237 6.09573 15.4939 6.04884C15.5641 6.00195 15.6466 5.97693 15.731 5.97693C15.8442 5.97693 15.9527 6.02189 16.0327 6.10192C16.1128 6.18195 16.1577 6.29049 16.1577 6.40367Z" fill="#404040"/>
<path d="M9.74998 8.01151C9.43199 8.01151 9.12114 7.91721 8.85674 7.74054C8.59234 7.56388 8.38626 7.31277 8.26457 7.01898C8.14288 6.7252 8.11104 6.40192 8.17308 6.09004C8.23511 5.77815 8.38824 5.49167 8.61309 5.26681C8.83795 5.04196 9.12444 4.88883 9.43632 4.82679C9.7482 4.76475 10.0715 4.7966 10.3653 4.91829C10.6591 5.03998 10.9102 5.24605 11.0868 5.51046C11.2635 5.77486 11.3578 6.08571 11.3578 6.4037C11.3578 6.83012 11.1884 7.23907 10.8869 7.54059C10.5854 7.84211 10.1764 8.01151 9.74998 8.01151ZM9.74998 5.46582C9.56449 5.46582 9.38316 5.52083 9.22892 5.62388C9.07469 5.72694 8.95448 5.87341 8.88349 6.04479C8.8125 6.21616 8.79393 6.40474 8.83012 6.58668C8.86631 6.76861 8.95563 6.93572 9.0868 7.06689C9.21796 7.19805 9.38508 7.28738 9.56702 7.32357C9.74895 7.35975 9.93752 7.34118 10.1089 7.2702C10.2803 7.19921 10.4268 7.079 10.5298 6.92476C10.6329 6.77053 10.6879 6.5892 10.6879 6.4037C10.6879 6.15496 10.5891 5.9164 10.4132 5.74052C10.2373 5.56463 9.99873 5.46582 9.74998 5.46582Z" fill="#404040"/>
<path d="M10.1781 6.40367C10.1781 6.48807 10.153 6.57057 10.1061 6.64075C10.0593 6.71092 9.99261 6.76562 9.91463 6.79792C9.83665 6.83022 9.75085 6.83867 9.66807 6.8222C9.58529 6.80574 9.50925 6.7651 9.44957 6.70542C9.38989 6.64574 9.34925 6.5697 9.33279 6.48692C9.31632 6.40414 9.32477 6.31834 9.35707 6.24036C9.38936 6.16239 9.44406 6.09573 9.51424 6.04884C9.58442 6.00195 9.66692 5.97693 9.75132 5.97693C9.8645 5.97693 9.97304 6.02189 10.0531 6.10192C10.1331 6.18195 10.1781 6.29049 10.1781 6.40367Z" fill="#404040"/>
</svg>
