<svg width="24" height="24" viewBox="0 0 24 24" fill="none" xmlns="http://www.w3.org/2000/svg">
<g clip-path="url(#clip0_10700_4391)">
<path d="M13.598 6.59827L10.9964 6.59827L10.9964 2.50509C10.9964 1.95009 10.5801 1.42976 10.0078 1.37773C9.34869 1.30835 8.79368 1.82867 8.81103 2.4704L8.81103 6.63296H8.67228L7.21539 6.63296C6.79913 6.63296 6.45225 6.97984 6.45225 7.39609L6.45225 10.3446C6.45225 13.1543 8.46415 15.5131 11.1178 16.0507L11.3181 23.3244C15.9489 23.3244 11.3182 23.3244 13.6423 23.3244L13.4419 16.0161C16.0955 15.4784 18.1074 13.1196 18.1074 10.3099L18.1074 7.36141C18.1074 6.94516 17.7605 6.59828 17.3443 6.59828L15.8874 6.59828H15.7486L15.7486 2.5051C15.7486 1.9501 15.3324 1.42978 14.76 1.37775C14.1009 1.30837 13.5459 1.82869 13.5633 2.47041L13.598 6.59827Z" stroke="#404040" stroke-width="1.5"/>
</g>
<defs>
<clipPath id="clip0_10700_4391">
<rect width="24" height="24" fill="white"/>
</clipPath>
</defs>
</svg>
