<?xml version="1.0" encoding="UTF-8"?>
<svg id="Layer_1" xmlns="http://www.w3.org/2000/svg" version="1.1" viewBox="0 0 800 800">
  <!-- Generator: Adobe Illustrator 29.1.0, SVG Export Plug-In . SVG Version: 2.1.0 Build 142)  -->
  <defs>
    <style>
      .st0 {
        fill: #fff;
      }

      .st0, .st1 {
        fill-rule: evenodd;
      }

      .st1 {
        fill: #a20005;
      }
    </style>
  </defs>
  <g>
    <path class="st1" d="M636.04,193.62c-27.25-7.18-64.87-24.81-89.38-67.92l-2.69-4.69H255.95l-2.69,4.76c-24.46,43.04-62.06,60.67-89.33,67.87l-7.08,1.9v166.53c0,18.63,0,44.17,7.81,75.39,9.47,37.53,28.44,75.08,56.4,111.7l2.27,2.76c1.37,1.83,2.86,3.61,4.47,5.57l.71.85c.41.51.83.98,1.27,1.46.61.71,1.22,1.39,1.86,2.2,3.15,3.52,5.57,6.15,7.89,8.52l2,2.08c49.95,50.98,118.61,83.91,151.59,99.71l7.86,3.83,9.77-4.81c2.54-1.22,5.27-2.56,8.08-3.98,1.2-.59,2.42-1.2,3.66-1.83,1.27-.61,2.56-1.27,3.93-1.93,3.93-2,8.08-4.15,12.45-6.42,1.39-.78,2.88-1.54,4.35-2.32,3-1.56,6.1-3.25,9.2-4.98,43.53-23.9,79.2-49.86,106.03-77.18.81-.88,1.66-1.73,2.69-2.76,1.49-1.54,2.95-3.17,4.37-4.76l1.1-1.25c2.15-2.39,4.22-4.81,6.47-7.52l1.2-1.49c1.46-1.76,3.1-3.76,4.59-5.76,32.4-42.26,52.03-84.26,60.04-128.37,4.25-23.73,4.25-43.14,4.25-58.72v-166.53l-7.11-1.93ZM299.26,558.48c-7.86-6.47-15.36-13.26-22.41-20.46l-1.88-1.93c-1.66-1.71-3.42-3.61-5.69-6.18-.85-1-1.68-1.98-2.54-2.93l-.88-1.05c-1.05-1.29-2.08-2.47-3.03-3.74l-.59-.78-2.37-2.88c-6.69-8.79-12.74-17.6-18.16-26.44V197.14h30.59v279.82c.07.07.12.17.2.27,4.22,6.67,8.96,13.48,14.09,20.26l2.34,2.88,1,1.29c.34.44.68.85,1,1.27l.98,1.15s2.37,2.76,3.08,3.59c1.49,1.71,2.69,3.03,3.83,4.2,0,.02,0,.07.05.07.15.34.29.54.39.63v45.9ZM349.17,593.27c-10.03-6.03-20.34-12.67-30.45-19.9V197.14h30.45v396.13ZM458.52,342.72h-30.47v-115.36h-28.91v356.43s.42-.22,1.46-.78c.07-.02.17-.1.27-.2,0,0,.02-.02.05-.02,1.25-.63,2.44-1.27,3.59-1.86,2.22-1.17,4.59-2.42,6.98-3.76l.81-.46c5.35-2.95,10.6-5.91,15.7-8.96h.05v-168.76h-14.48v-29.05h44.95v218.98c-9.42,5.98-19.39,11.87-29.88,17.6l-.51.29c-2.61,1.46-5.27,2.91-7.81,4.22-1.54.81-3.15,1.64-4.69,2.47-1.73.93-3.44,1.81-5.1,2.69-.49.27-1,.51-1.49.76-1.61.83-3.15,1.64-4.69,2.42-1.25.59-2.42,1.17-3.56,1.76-.05-.05-.12-.07-.17-.1-9.4-4.61-20.31-10.13-31.96-16.53V197.14h76.91l12.96,22v123.59ZM557.43,493.88c-5.22,8.25-11.45,16.9-17.82,25.22l-.61.81c-.59.83-1.73,2.2-2.73,3.39l-1.59,1.98c-1.71,2.08-3.34,3.93-4.98,5.79l-1.05,1.22c-.54.59-1.05,1.17-1.61,1.76l.41-135.92h-19.26v154.08c-9.13,8.03-19.17,15.92-30.13,23.68V219.13l12.92-22h66.6l-.15,296.74ZM527.45,227.36h-19.26v143.49h19.26v-143.49Z"/>
    <path class="st1" d="M642.69,168.57c-22.44-5.91-53.37-20.36-73.44-55.59l-10.16-17.92H240.84l-10.13,17.92c-20.02,35.23-50.95,49.68-73.39,55.59l-26.39,6.98v186.53c0,19.97,0,47.34,8.62,81.77,10.38,41.07,30.91,81.84,61.01,121.2l.88,1.07c.51.61,1.03,1.22,1.51,1.88l.2.24c1.78,2.22,3.56,4.44,5.35,6.57,1.07,1.29,2.2,2.59,3.32,3.88l.37.46c2.83,3.2,5.76,6.37,8.69,9.45l.76.76c.49.51,1,1.05,1.42,1.42,52.74,53.84,124.03,88.16,158.31,104.67l19.75,9.5,19.39-9.47c33.6-16.43,103.45-50.64,156.06-104.15.54-.56,2.86-2.95,3.37-3.49,1.83-1.93,3.64-3.93,5.44-5.91l.63-.71c2.32-2.64,4.57-5.25,6.84-7.91l.24-.32c.22-.32.46-.61.83-1.05l.78-.95c1.61-2,3.22-3.98,4.76-6.01,34.96-45.68,56.23-91.36,65.02-139.63,4.61-25.98,4.61-47.54,4.61-63.26v-186.53l-26.39-6.98ZM662.31,362.08c0,15.48,0,36.7-4.52,62.06-8.57,47.17-29.42,91.9-63.72,136.72-1.51,1.98-3.08,3.91-4.64,5.84l-.76.93c-.39.46-.78.95-1.03,1.29-2.22,2.61-4.44,5.22-6.69,7.76l-.37.42c-1.86,2.05-3.74,4.1-5.59,6.08-.49.51-2.81,2.91-3.32,3.42-51.78,52.69-121.07,86.6-154.38,102.88l-16.24,7.93-16.8-8.06c-33.94-16.33-104.5-50.34-156.55-103.45-.46-.44-.9-.88-1.34-1.32l-.71-.73c-2.86-3-5.69-6.08-8.4-9.16l-.34-.42c-1.1-1.27-2.17-2.54-3.25-3.83-1.71-2-3.37-4.08-5.13-6.25l-.24-.29c-.56-.76-1.15-1.46-1.73-2.2l-.73-.88c-29.49-38.55-49.61-78.47-59.77-118.63-8.4-33.62-8.4-60.5-8.4-80.13v-181.33l21.36-5.64c23.68-6.25,56.37-21.51,77.54-58.82l8.2-14.48h310.36l8.2,14.5c21.24,37.28,53.91,52.54,77.59,58.79l21.36,5.64v181.33Z"/>
  </g>
  <g>
    <path class="st0" d="M299.26,512.58v45.89c-7.85-6.46-15.36-13.26-22.41-20.46l-1.89-1.92c-1.67-1.73-3.43-3.62-5.69-6.18-.87-1.02-1.7-1.98-2.53-2.94l-.9-1.05c-1.05-1.3-2.07-2.47-3.03-3.74l-.59-.77-2.35-2.87c-6.71-8.81-12.76-17.62-18.17-26.45V197.14h30.6v279.81l.19.28c4.23,6.68,8.96,13.47,14.09,20.27l2.35,2.87.99,1.3c.34.43.68.83,1.02,1.27l.96,1.14s2.38,2.75,3.09,3.59c1.48,1.7,2.69,3.03,3.83,4.2,0,.03,0,.06.03.06.15.34.31.56.4.65Z"/>
    <path class="st0" d="M349.17,197.14v396.14c-10.04-6.03-20.34-12.67-30.44-19.9V197.14h30.44Z"/>
    <path class="st0" d="M428.04,342.73v-115.37h-28.9v356.43s.4-.22,1.45-.77c.09-.03.19-.09.28-.19,0,0,.03-.03.06-.03,1.24-.65,2.44-1.27,3.59-1.85,2.23-1.17,4.57-2.41,6.98-3.77l.8-.46c5.35-2.94,10.6-5.9,15.7-8.96h.03v-168.74h-14.46v-29.05h44.94v218.96c-9.43,6-19.38,11.87-29.88,17.62l-.49.28c-2.63,1.48-5.28,2.91-7.82,4.23-1.55.8-3.15,1.64-4.7,2.47-1.73.93-3.43,1.79-5.1,2.69-.49.25-.99.49-1.48.74-1.61.83-3.15,1.64-4.7,2.41-1.24.59-2.41,1.17-3.55,1.76l-.19-.09c-9.4-4.6-20.3-10.14-31.96-16.53V197.14h76.92l12.95,22v123.59h-30.47Z"/>
    <path class="st0" d="M557.58,197.14h-66.61l-12.92,22v356.73c10.97-7.76,21.02-15.64,30.13-23.67v-154.09h19.26l-.41,135.92c.56-.59,1.08-1.17,1.61-1.76l1.05-1.21c1.64-1.85,3.28-3.71,4.98-5.78l1.61-1.98c.99-1.2,2.13-2.56,2.72-3.4l.62-.8c6.37-8.32,12.59-16.98,17.81-25.22l.15-296.74ZM527.44,370.85h-19.26v-143.49h19.26v143.49Z"/>
  </g>
</svg>