<svg width="20" height="20" viewBox="0 0 20 20" fill="none" xmlns="http://www.w3.org/2000/svg">
<path d="M10 2C5.5888 2 2 5.5888 2 10C2 14.4112 5.5888 18 10 18C14.4112 18 18 14.4112 18 10C18 5.5888 14.4112 2 10 2ZM10 16.4C6.4712 16.4 3.6 13.5288 3.6 10C3.6 6.4712 6.4712 3.6 10 3.6C13.5288 3.6 16.4 6.4712 16.4 10C16.4 13.5288 13.5288 16.4 10 16.4ZM13.2 10C13.2 10.2122 13.1157 10.4157 12.9657 10.5657C12.8157 10.7157 12.6122 10.8 12.4 10.8H10C9.78783 10.8 9.58434 10.7157 9.43431 10.5657C9.28429 10.4157 9.2 10.2122 9.2 10V6.8C9.2 6.58783 9.28429 6.38434 9.43431 6.23431C9.58434 6.08429 9.78783 6 10 6C10.2122 6 10.4157 6.08429 10.5657 6.23431C10.7157 6.38434 10.8 6.58783 10.8 6.8V9.2H12.4C12.6122 9.2 12.8157 9.28429 12.9657 9.43431C13.1157 9.58434 13.2 9.78783 13.2 10Z" fill="#08BC05"/>
</svg>
