<svg width="25" height="24" viewBox="0 0 25 24" fill="none" xmlns="http://www.w3.org/2000/svg">
<g clip-path="url(#clip0_11669_2359)">
<path d="M8.42138 15.3198C7.94507 15.7961 7.94507 16.5684 8.42138 17.0445C8.89784 17.5208 9.66995 17.5208 10.1463 17.0445C11.4439 15.7468 13.5558 15.7468 14.8535 17.0445C15.0918 17.2826 15.404 17.4018 15.7161 17.4018C16.0281 17.4018 16.3403 17.2828 16.5786 17.0445C17.0549 16.5682 17.0549 15.7959 16.5786 15.3198C14.3296 13.0708 10.6704 13.0708 8.42138 15.3198Z" fill="#404040"/>
<path d="M4.84673 11.745C4.37043 12.2213 4.37043 12.9936 4.84673 13.4697C5.32304 13.9459 6.09514 13.9462 6.57161 13.4697C9.84054 10.2008 15.1596 10.2008 18.4283 13.4697C18.6666 13.7078 18.9788 13.827 19.2909 13.827C19.6029 13.827 19.9152 13.708 20.1534 13.4697C20.6297 12.9934 20.6297 12.2212 20.1534 11.745C15.9333 7.5251 9.06681 7.5251 4.84673 11.745Z" fill="#404040"/>
<path d="M24.1429 7.75552C17.7229 1.33556 7.27706 1.33556 0.85726 7.75552C0.380954 8.23183 0.380954 9.00409 0.85726 9.48024C1.33373 9.95654 2.10583 9.95654 2.58214 9.48024C5.23117 6.83104 8.75346 5.37221 12.5 5.37221C16.2465 5.37221 19.7688 6.83121 22.4178 9.48024C22.6561 9.71831 22.9683 9.83751 23.2804 9.83751C23.5924 9.83751 23.9047 9.71847 24.1429 9.48024C24.6192 9.00409 24.6192 8.23183 24.1429 7.75552Z" fill="#404040"/>
<path d="M12.5 21.0593C13.2392 21.0593 13.8385 20.4601 13.8385 19.7208C13.8385 18.9816 13.2392 18.3823 12.5 18.3823C11.7608 18.3823 11.1615 18.9816 11.1615 19.7208C11.1615 20.4601 11.7608 21.0593 12.5 21.0593Z" fill="#404040"/>
</g>
<defs>
<clipPath id="clip0_11669_2359">
<rect width="24" height="24" fill="white" transform="translate(0.5)"/>
</clipPath>
</defs>
</svg>
