<svg width="32" height="32" viewBox="0 0 32 32" fill="none" xmlns="http://www.w3.org/2000/svg">
<path d="M0 16C0 7.16344 7.16344 0 16 0C24.8366 0 32 7.16344 32 16C32 24.8366 24.8366 32 16 32C7.16344 32 0 24.8366 0 16Z" fill="white"/>
<path d="M0.5 16C0.5 7.43959 7.43959 0.5 16 0.5C24.5604 0.5 31.5 7.43959 31.5 16C31.5 24.5604 24.5604 31.5 16 31.5C7.43959 31.5 0.5 24.5604 0.5 16Z" stroke="black" stroke-opacity="0.25"/>
<path d="M16.7005 13.2408L16.7005 13.2408C16.9994 13.3606 17.1454 13.6993 17.0254 13.998C16.9054 14.2972 16.5636 14.4418 16.2681 14.3228L16.2682 14.3228L16.3053 14.23L16.268 14.3227L16.7005 13.2408ZM16.7005 13.2408L13.8127 12.0849L13.7948 12.0777M16.7005 13.2408L13.7948 12.0777M13.7948 12.0777H13.7931M13.7948 12.0777H13.7931M13.7931 12.0777C13.6609 12.0275 13.5148 12.0275 13.3826 12.0777H13.38L13.3621 12.0849L8.54652 14.0117L8.54636 14.0117C8.32641 14.1002 8.1807 14.3133 8.1807 14.5522V23.2359C8.1807 23.4295 8.27746 23.6099 8.4368 23.7181L8.43682 23.7181C8.53467 23.7845 8.64787 23.8183 8.76313 23.8183C8.83666 23.8183 8.91004 23.8043 8.97972 23.7764C8.97972 23.7764 8.97972 23.7764 8.97973 23.7764L13.5874 21.9339L18.1864 23.7735L18.1925 23.776L18.1957 23.7773C18.1967 23.7777 18.1977 23.778 18.1986 23.7784L18.2042 23.7807H18.2044C18.3381 23.8321 18.4862 23.8321 18.6199 23.7807H18.62L18.6253 23.7785C18.6264 23.7781 18.6275 23.7777 18.6285 23.7773L18.6285 23.7773L18.63 23.7767L18.6379 23.7735L23.4535 21.8477L23.4542 21.8474C23.6727 21.7579 23.8183 21.5451 23.8183 21.3062V15.5171C23.8183 15.1955 23.5574 14.9346 23.2359 14.9346C22.9144 14.9346 22.6535 15.1955 22.6535 15.5171V20.9123L18.9941 22.3761V17.4468C18.9941 17.1252 18.7332 16.8643 18.4116 16.8643C18.0901 16.8643 17.8292 17.1252 17.8292 17.4468V22.3751L14.1698 20.9114L13.7931 12.0777ZM14.1698 13.4832V13.3755L14.0698 13.3355V13.4432L14.1698 13.4832ZM13.005 13.4823V20.9114L9.34555 22.3751V14.946L13.005 13.4823Z" fill="#404040" stroke="#404040" stroke-width="0.2"/>
<path d="M20.3414 10.1104C19.4882 10.1104 18.7941 10.8045 18.7941 11.6577C18.7941 12.5108 19.4882 13.2049 20.3414 13.2049C21.1945 13.2049 21.8886 12.5108 21.8886 11.6577C21.8886 10.8045 21.1945 10.1104 20.3414 10.1104ZM20.3414 12.0401C20.1303 12.0401 19.9589 11.8687 19.9589 11.6577C19.9589 11.4466 20.1303 11.2752 20.3414 11.2752C20.5524 11.2752 20.7238 11.4466 20.7238 11.6577C20.7238 11.8687 20.5524 12.0401 20.3414 12.0401Z" fill="#404040" stroke="#404040" stroke-width="0.2"/>
<path d="M19.908 16.871L19.9083 16.8713C20.0186 16.9932 20.1756 17.0644 20.3414 17.0644C20.5071 17.0644 20.6642 16.9932 20.7744 16.8713L20.7748 16.871C20.9302 16.6975 21.6878 15.8406 22.4071 14.8088C22.7668 14.2929 23.1183 13.7313 23.3803 13.1879C23.6412 12.6467 23.8184 12.1136 23.8184 11.6577C23.8184 9.74029 22.2588 8.1807 20.3414 8.1807C18.424 8.1807 16.8644 9.74029 16.8644 11.6577C16.8644 12.1136 17.0415 12.6467 17.3025 13.1879C17.5645 13.7313 17.916 14.2929 18.2756 14.8088C18.9949 15.8406 19.7525 16.6975 19.908 16.871ZM21.8578 13.5248C21.4122 14.2348 20.8472 14.9831 20.3414 15.5901C19.8355 14.9831 19.2705 14.235 18.8249 13.5252C18.5907 13.1522 18.3907 12.7917 18.2496 12.469C18.1074 12.144 18.0292 11.8669 18.0292 11.6577C18.0292 10.3833 19.067 9.34555 20.3414 9.34555C21.6157 9.34555 22.6535 10.3833 22.6535 11.6577C22.6535 11.8666 22.5753 12.1437 22.4332 12.4686C22.292 12.7912 22.092 13.1518 21.8578 13.5248Z" fill="#404040" stroke="#404040" stroke-width="0.2"/>
</svg>
