<svg width="56" height="56" viewBox="0 0 56 56" fill="none" xmlns="http://www.w3.org/2000/svg">
<g filter="url(#filter0_d_10851_6037)">
<path d="M12 24C12 15.1634 19.1634 8 28 8C36.8366 8 44 15.1634 44 24C44 32.8366 36.8366 40 28 40C19.1634 40 12 32.8366 12 24Z" fill="#31333F"/>
<path d="M12.5 24C12.5 15.4396 19.4396 8.5 28 8.5C36.5604 8.5 43.5 15.4396 43.5 24C43.5 32.5604 36.5604 39.5 28 39.5C19.4396 39.5 12.5 32.5604 12.5 24Z" stroke="white" stroke-opacity="0.05"/>
</g>
<path d="M28.7004 21.2408L28.7005 21.2408C28.9994 21.3606 29.1454 21.6994 29.0253 21.998C28.9054 22.2972 28.5635 22.4418 28.2681 22.3228L28.2682 22.3228L28.3053 22.2301L28.2679 22.3227L28.7004 21.2408ZM28.7004 21.2408L25.8126 20.0849L25.7947 20.0777M28.7004 21.2408L25.7947 20.0777M25.7947 20.0777H25.793M25.7947 20.0777H25.793M25.793 20.0777C25.6608 20.0276 25.5148 20.0276 25.3826 20.0777H25.3799L25.362 20.0849L20.5465 22.0117L20.5463 22.0118C20.3263 22.1002 20.1806 22.3133 20.1806 22.5522V31.2359C20.1806 31.4295 20.2774 31.6099 20.4367 31.7181L20.4368 31.7181C20.5346 31.7845 20.6478 31.8183 20.7631 31.8183C20.8366 31.8183 20.91 31.8043 20.9797 31.7764C20.9797 31.7764 20.9797 31.7764 20.9797 31.7764L25.5873 29.934L30.1863 31.7736L30.1924 31.776L30.1957 31.7773C30.1966 31.7777 30.1976 31.7781 30.1986 31.7785L30.2042 31.7807H30.2043C30.338 31.8322 30.4861 31.8322 30.6198 31.7807H30.62L30.6253 31.7786C30.6263 31.7782 30.6274 31.7777 30.6285 31.7773L30.6285 31.7774L30.63 31.7767L30.6378 31.7736L35.4534 29.8477L35.4542 29.8474C35.6726 29.7579 35.8183 29.5451 35.8183 29.3062V23.5171C35.8183 23.1956 35.5574 22.9347 35.2358 22.9347C34.9143 22.9347 34.6534 23.1956 34.6534 23.5171V28.9124L30.994 30.3761V25.4468C30.994 25.1253 30.7331 24.8644 30.4116 24.8644C30.0901 24.8644 29.8292 25.1253 29.8292 25.4468V30.3752L26.1698 28.9114L25.793 20.0777ZM26.1698 21.4833V21.3756L26.0698 21.3356V21.4433L26.1698 21.4833ZM25.0049 21.4823V28.9114L21.3455 30.3752V22.9461L25.0049 21.4823Z" fill="white" stroke="white" stroke-width="0.2"/>
<path d="M32.3413 18.1104C31.4882 18.1104 30.794 18.8045 30.794 19.6577C30.794 20.5109 31.4882 21.205 32.3413 21.205C33.1945 21.205 33.8886 20.5109 33.8886 19.6577C33.8886 18.8045 33.1945 18.1104 32.3413 18.1104ZM32.3413 20.0401C32.1303 20.0401 31.9589 19.8688 31.9589 19.6577C31.9589 19.4466 32.1303 19.2753 32.3413 19.2753C32.5524 19.2753 32.7237 19.4466 32.7237 19.6577C32.7237 19.8688 32.5524 20.0401 32.3413 20.0401Z" fill="white" stroke="white" stroke-width="0.2"/>
<path d="M31.9079 24.871L31.9083 24.8713C32.0186 24.9932 32.1756 25.0644 32.3413 25.0644C32.5071 25.0644 32.6641 24.9932 32.7744 24.8713L32.7747 24.871C32.9302 24.6975 33.6878 23.8406 34.4071 22.8088C34.7667 22.2929 35.1183 21.7313 35.3802 21.1879C35.6412 20.6467 35.8183 20.1136 35.8183 19.6577C35.8183 17.7403 34.2587 16.1807 32.3413 16.1807C30.4239 16.1807 28.8644 17.7403 28.8644 19.6577C28.8644 20.1136 29.0415 20.6467 29.3024 21.1879C29.5644 21.7313 29.916 22.2929 30.2756 22.8088C30.9949 23.8406 31.7525 24.6975 31.9079 24.871ZM33.8578 21.5248C33.4122 22.2348 32.8472 22.9831 32.3413 23.5901C31.8355 22.9831 31.2705 22.235 30.8249 21.5252C30.5907 21.1522 30.3907 20.7917 30.2496 20.469C30.1074 20.144 30.0292 19.8669 30.0292 19.6577C30.0292 18.3833 31.067 17.3456 32.3413 17.3456C33.6157 17.3456 34.6535 18.3833 34.6535 19.6577C34.6535 19.8666 34.5753 20.1437 34.4331 20.4686C34.292 20.7912 34.092 21.1518 33.8578 21.5248Z" fill="white" stroke="white" stroke-width="0.2"/>
<defs>
<filter id="filter0_d_10851_6037" x="0" y="0" width="56" height="56" filterUnits="userSpaceOnUse" color-interpolation-filters="sRGB">
<feFlood flood-opacity="0" result="BackgroundImageFix"/>
<feColorMatrix in="SourceAlpha" type="matrix" values="0 0 0 0 0 0 0 0 0 0 0 0 0 0 0 0 0 0 127 0" result="hardAlpha"/>
<feOffset dy="4"/>
<feGaussianBlur stdDeviation="6"/>
<feColorMatrix type="matrix" values="0 0 0 0 0 0 0 0 0 0 0 0 0 0 0 0 0 0 0.3 0"/>
<feBlend mode="normal" in2="BackgroundImageFix" result="effect1_dropShadow_10851_6037"/>
<feBlend mode="normal" in="SourceGraphic" in2="effect1_dropShadow_10851_6037" result="shape"/>
</filter>
</defs>
</svg>
