<svg width="20" height="16" viewBox="0 0 20 16" fill="none" xmlns="http://www.w3.org/2000/svg">
<path fill-rule="evenodd" clip-rule="evenodd" d="M15.5 7.99996C17.525 7.99996 19.1666 6.3583 19.1666 4.33329C19.1666 2.30825 17.525 0.666626 15.5 0.666626C13.7915 0.666626 12.3559 1.83517 11.9488 3.41663H1.74998C1.24372 3.41663 0.833313 3.82704 0.833313 4.33329C0.833313 4.83956 1.24372 5.24996 1.74998 5.24996H11.9488C12.3559 6.83139 13.7915 7.99996 15.5 7.99996ZM13.6666 4.33329C13.6666 5.34582 14.4874 6.16663 15.5 6.16663C16.5125 6.16663 17.3333 5.34582 17.3333 4.33329C17.3333 3.32077 16.5125 2.49996 15.5 2.49996C14.4874 2.49996 13.6666 3.32077 13.6666 4.33329ZM0.833313 11.6666C0.833313 9.64162 2.47493 7.99996 4.49998 7.99996C6.2085 7.99996 7.64409 9.16853 8.05113 10.75H18.25C18.7563 10.75 19.1666 11.1604 19.1666 11.6666C19.1666 12.1729 18.7563 12.5833 18.25 12.5833H8.05113C7.64409 14.1647 6.2085 15.3333 4.49998 15.3333C2.47493 15.3333 0.833313 13.6916 0.833313 11.6666ZM6.33331 11.6666C6.33331 10.6541 5.5125 9.83329 4.49998 9.83329C3.48746 9.83329 2.66665 10.6541 2.66665 11.6666C2.66665 12.6792 3.48746 13.5 4.49998 13.5C5.5125 13.5 6.33331 12.6792 6.33331 11.6666Z" fill="#404040"/>
</svg>
