<svg width="25" height="24" viewBox="0 0 25 24" fill="none" xmlns="http://www.w3.org/2000/svg">
<path d="M12.5003 24C5.88296 24 0.5 18.615 0.5 11.9997C0.5 5.38434 5.88503 0 12.5003 0C19.1157 0 24.5 5.38503 24.5 11.9997C24.5 18.6143 19.117 24 12.5003 24ZM12.5003 1.03558C6.4546 1.03558 1.53558 5.95391 1.53558 11.9997C1.53558 18.0454 6.4546 22.9644 12.5003 22.9644C18.5461 22.9644 23.4644 18.0454 23.4644 12.001C23.4644 5.95668 18.5461 1.03558 12.5003 1.03558Z" fill="#404040"/>
<path d="M12.5003 21.4539C7.28721 21.4539 3.04822 17.2128 3.04822 12.0011C3.04822 6.78931 7.28721 2.54272 12.5003 2.54272C17.7135 2.54272 21.9538 6.78655 21.9538 12.0011C21.9538 17.2156 17.7128 21.4539 12.5003 21.4539ZM12.5003 3.23588C10.767 3.23574 9.07265 3.74958 7.63138 4.71241C6.19012 5.67525 5.06674 7.04384 4.40328 8.64512C3.73982 10.2464 3.56609 12.0085 3.90405 13.7085C4.24202 15.4085 5.0765 16.9701 6.30197 18.1959C7.52745 19.4217 9.08888 20.2565 10.7888 20.5949C12.4888 20.9332 14.2509 20.7599 15.8523 20.0968C17.4537 19.4338 18.8226 18.3107 19.7858 16.8697C20.7489 15.4286 21.2632 13.7343 21.2635 12.0011C21.262 9.67694 20.3384 7.44836 18.6955 5.80451C17.0525 4.16065 14.8245 3.23586 12.5003 3.23311V3.23588Z" fill="#404040"/>
<path d="M16.5909 11.2499C16.0911 11.2499 15.6026 11.1017 15.187 10.824C14.7715 10.5464 14.4476 10.1517 14.2564 9.68993C14.0651 9.22817 14.0151 8.72008 14.1127 8.2299C14.2102 7.73973 14.451 7.28949 14.8044 6.93613C15.1579 6.58278 15.6082 6.34218 16.0984 6.24476C16.5886 6.14734 17.0967 6.19747 17.5584 6.38883C18.0201 6.58018 18.4147 6.90416 18.6922 7.31979C18.9698 7.73541 19.1179 8.22402 19.1177 8.72381C19.1168 9.39362 18.8503 10.0357 18.3766 10.5093C17.9029 10.9829 17.2607 11.2492 16.5909 11.2499ZM16.5909 6.88737C16.2277 6.88737 15.8726 6.99507 15.5706 7.19686C15.2686 7.39865 15.0333 7.68547 14.8943 8.02103C14.7553 8.3566 14.7189 8.72584 14.7898 9.08208C14.8606 9.43831 15.0355 9.76553 15.2924 10.0224C15.5492 10.2792 15.8764 10.4541 16.2326 10.525C16.5889 10.5958 16.9581 10.5594 17.2937 10.4205C17.6293 10.2815 17.9161 10.0461 18.1179 9.74407C18.3196 9.44207 18.4274 9.08702 18.4274 8.72381C18.4268 8.23692 18.2331 7.77013 17.8889 7.42585C17.5446 7.08157 17.0778 6.88792 16.5909 6.88737Z" fill="#404040"/>
<path d="M17.2969 8.90558C17.3987 8.51483 17.1644 8.11556 16.7737 8.01377C16.3829 7.91199 15.9836 8.14625 15.8819 8.537C15.7801 8.92774 16.0143 9.32702 16.4051 9.4288C16.7958 9.53058 17.1951 9.29633 17.2969 8.90558Z" fill="#404040"/>
<path d="M8.82126 11.2499C8.32147 11.2499 7.83291 11.1017 7.41736 10.824C7.00181 10.5464 6.67794 10.1517 6.48671 9.68993C6.29548 9.22817 6.24548 8.72008 6.34304 8.2299C6.44059 7.73973 6.68132 7.28949 7.03477 6.93613C7.38822 6.58278 7.83852 6.34218 8.32872 6.24476C8.81893 6.14734 9.327 6.19747 9.78871 6.38883C10.2504 6.58018 10.645 6.90416 10.9226 7.31979C11.2001 7.73541 11.3482 8.22402 11.3481 8.72381C11.3472 9.39362 11.0806 10.0357 10.6069 10.5093C10.1332 10.9829 9.49107 11.2492 8.82126 11.2499ZM8.82126 6.88737C8.45805 6.88737 8.10299 6.99507 7.80099 7.19686C7.49899 7.39865 7.26361 7.68547 7.12461 8.02103C6.98562 8.3566 6.94925 8.72584 7.02011 9.08208C7.09097 9.43831 7.26587 9.76553 7.5227 10.0224C7.77953 10.2792 8.10675 10.4541 8.46299 10.525C8.81922 10.5958 9.18847 10.5594 9.52403 10.4205C9.8596 10.2815 10.1464 10.0461 10.3482 9.74407C10.55 9.44207 10.6577 9.08702 10.6577 8.72381C10.6571 8.23692 10.4635 7.77013 10.1192 7.42585C9.77493 7.08157 9.30814 6.88792 8.82126 6.88737Z" fill="#404040"/>
<path d="M9.52613 8.92342C9.63587 8.53483 9.40982 8.13085 9.02124 8.02111C8.63265 7.91137 8.22867 8.13742 8.11893 8.52601C8.00919 8.9146 8.23524 9.31858 8.62383 9.42832C9.01242 9.53806 9.41639 9.31201 9.52613 8.92342Z" fill="#404040"/>
<path d="M12.7254 20.2857C12.2256 20.2858 11.737 20.1378 11.3214 19.8602C10.9058 19.5826 10.5818 19.188 10.3904 18.7263C10.1991 18.2646 10.149 17.7565 10.2464 17.2663C10.3438 16.7761 10.5844 16.3258 10.9378 15.9724C11.2911 15.6189 11.7413 15.3782 12.2315 15.2807C12.7217 15.1831 13.2298 15.2331 13.6915 15.4243C14.1533 15.6156 14.548 15.9394 14.8257 16.355C15.1033 16.7705 15.2516 17.2591 15.2516 17.7589C15.2508 18.4287 14.9845 19.0709 14.5109 19.5446C14.0373 20.0183 13.3952 20.2848 12.7254 20.2857ZM12.7254 15.9224C12.3622 15.9223 12.0071 16.0299 11.705 16.2316C11.4029 16.4333 11.1674 16.7201 11.0283 17.0556C10.8892 17.3912 10.8527 17.7604 10.9235 18.1167C10.9943 18.473 11.1691 18.8003 11.4259 19.0572C11.6827 19.3141 12.01 19.4891 12.3662 19.56C12.7225 19.6309 13.0917 19.5946 13.4273 19.4556C13.763 19.3166 14.0498 19.0812 14.2516 18.7792C14.4534 18.4772 14.5612 18.1221 14.5612 17.7589C14.5614 17.2716 14.3681 16.8042 14.0239 16.4594C13.6797 16.1145 13.2127 15.9204 12.7254 15.9197V15.9224Z" fill="#404040"/>
<path d="M13.4336 17.9203C13.5268 17.5274 13.2838 17.1334 12.8909 17.0402C12.498 16.947 12.104 17.19 12.0108 17.5829C11.9177 17.9758 12.1606 18.3698 12.5535 18.463C12.9464 18.5562 13.3404 18.3132 13.4336 17.9203Z" fill="#404040"/>
<path d="M18.3058 16.6432C17.9781 16.6432 17.6578 16.546 17.3853 16.364C17.1128 16.1819 16.9004 15.9231 16.775 15.6204C16.6496 15.3176 16.6168 14.9844 16.6807 14.663C16.7447 14.3416 16.9025 14.0464 17.1342 13.8146C17.3659 13.5829 17.6612 13.4251 17.9826 13.3612C18.304 13.2973 18.6371 13.3301 18.9399 13.4555C19.2427 13.5809 19.5015 13.7933 19.6835 14.0657C19.8656 14.3382 19.9628 14.6586 19.9628 14.9863C19.9628 15.4257 19.7882 15.8472 19.4775 16.1579C19.1667 16.4686 18.7453 16.6432 18.3058 16.6432ZM18.3058 14.0197C18.1147 14.0197 17.9278 14.0764 17.7688 14.1826C17.6099 14.2888 17.486 14.4398 17.4129 14.6164C17.3397 14.793 17.3206 14.9874 17.3579 15.1748C17.3951 15.3623 17.4872 15.5346 17.6224 15.6697C17.7576 15.8049 17.9298 15.897 18.1173 15.9343C18.3048 15.9715 18.4991 15.9524 18.6757 15.8793C18.8523 15.8061 19.0033 15.6822 19.1095 15.5233C19.2157 15.3643 19.2724 15.1774 19.2724 14.9863C19.2724 14.7299 19.1705 14.4841 18.9893 14.3028C18.808 14.1216 18.5622 14.0197 18.3058 14.0197Z" fill="#404040"/>
<path d="M18.747 14.9863C18.7471 15.0735 18.7214 15.1587 18.6731 15.2313C18.6247 15.3038 18.5559 15.3604 18.4754 15.3938C18.3949 15.4272 18.3063 15.436 18.2208 15.419C18.1353 15.402 18.0567 15.3601 17.9951 15.2984C17.9334 15.2368 17.8915 15.1582 17.8745 15.0727C17.8575 14.9872 17.8663 14.8986 17.8997 14.8181C17.9331 14.7376 17.9897 14.6688 18.0622 14.6205C18.1348 14.5721 18.22 14.5464 18.3072 14.5465C18.4239 14.5465 18.5357 14.5928 18.6182 14.6753C18.7007 14.7578 18.747 14.8697 18.747 14.9863Z" fill="#404040"/>
<path d="M7.00831 16.6432C6.6806 16.6432 6.36025 16.546 6.08777 16.364C5.81529 16.1819 5.60292 15.9231 5.47751 15.6204C5.3521 15.3176 5.31928 14.9844 5.38322 14.663C5.44715 14.3416 5.60496 14.0464 5.83669 13.8146C6.06841 13.5829 6.36365 13.4251 6.68506 13.3612C7.00648 13.2973 7.33963 13.3301 7.64239 13.4555C7.94516 13.5809 8.20394 13.7933 8.386 14.0657C8.56807 14.3382 8.66525 14.6586 8.66525 14.9863C8.66525 15.4257 8.49068 15.8472 8.17994 16.1579C7.86921 16.4686 7.44776 16.6432 7.00831 16.6432ZM7.00831 14.0197C6.81715 14.0197 6.63028 14.0764 6.47133 14.1826C6.31238 14.2888 6.1885 14.4398 6.11534 14.6164C6.04219 14.793 6.02305 14.9874 6.06034 15.1748C6.09764 15.3623 6.18969 15.5346 6.32486 15.6697C6.46004 15.8049 6.63226 15.897 6.81975 15.9343C7.00724 15.9715 7.20158 15.9524 7.3782 15.8793C7.55481 15.8061 7.70576 15.6822 7.81196 15.5233C7.91817 15.3643 7.97486 15.1774 7.97486 14.9863C7.97486 14.7299 7.87303 14.4841 7.69177 14.3028C7.5105 14.1216 7.26466 14.0197 7.00831 14.0197Z" fill="#404040"/>
<path d="M7.44806 14.9863C7.44806 15.0733 7.42227 15.1583 7.37395 15.2306C7.32562 15.3029 7.25694 15.3593 7.17658 15.3926C7.09622 15.4259 7.0078 15.4346 6.92249 15.4176C6.83718 15.4006 6.75882 15.3588 6.69732 15.2973C6.63581 15.2358 6.59393 15.1574 6.57696 15.0721C6.55999 14.9868 6.5687 14.8984 6.60199 14.818C6.63527 14.7376 6.69164 14.6689 6.76396 14.6206C6.83628 14.5723 6.92131 14.5465 7.00829 14.5465C7.12492 14.5465 7.23678 14.5928 7.31926 14.6753C7.40173 14.7578 7.44806 14.8697 7.44806 14.9863Z" fill="#404040"/>
</svg>
