<svg width="31" height="30" viewBox="0 0 31 30" fill="none" xmlns="http://www.w3.org/2000/svg">
<path d="M21.5473 14.4845L16.2295 19.8024V8.43758C16.2295 8.0349 15.903 7.70841 15.5003 7.70841C15.0976 7.70841 14.7712 8.0349 14.7712 8.43758L14.7712 19.8024L9.45328 14.4846C9.17076 14.2117 8.72278 14.2117 8.44017 14.4846C8.15054 14.7644 8.14252 15.226 8.42228 15.5156L14.9842 22.0775C15.0511 22.1445 15.1308 22.1983 15.2195 22.2353C15.3076 22.2721 15.4029 22.2919 15.5003 22.2917C15.5158 22.2917 15.5297 22.2839 15.5449 22.2829C15.6264 22.2779 15.7072 22.2661 15.7814 22.235C15.8704 22.1978 15.9504 22.1438 16.0175 22.0764L22.5783 15.5156C22.8513 15.233 22.8513 14.785 22.5783 14.5024C22.2985 14.2128 21.8369 14.2048 21.5473 14.4845ZM15.5003 0.416748C7.4462 0.416748 0.916992 6.94596 0.916992 15.0001C0.916992 23.0542 7.4462 29.5834 15.5003 29.5834C23.5505 29.574 30.0742 23.0503 30.0837 15.0001C30.0837 6.94596 23.5544 0.416748 15.5003 0.416748ZM15.5003 28.1251C8.25156 28.1251 2.37533 22.2488 2.37533 15.0001C2.37533 7.75132 8.25156 1.87508 15.5003 1.87508C22.7457 1.88327 28.6171 7.7547 28.6253 15.0001C28.6253 22.2488 22.7491 28.1251 15.5003 28.1251Z" fill="#1F1F1F"/>
</svg>
