<svg width="25" height="24" viewBox="0 0 25 24" fill="none" xmlns="http://www.w3.org/2000/svg">
<g clip-path="url(#clip0_10851_6665)">
<path d="M17.3765 0.102006C17.5233 0.187114 17.6369 0.319492 17.6988 0.477513C17.7606 0.635534 17.767 0.809858 17.717 0.972006L15.0155 9.75001H20C20.1465 9.74995 20.2898 9.79279 20.4122 9.87323C20.5346 9.95368 20.6308 10.0682 20.6888 10.2027C20.7469 10.3372 20.7643 10.4857 20.7389 10.63C20.7136 10.7743 20.6465 10.9079 20.546 11.0145L8.54599 23.7645C8.42988 23.888 8.27538 23.9685 8.10765 23.9929C7.93993 24.0173 7.76889 23.9842 7.6224 23.8989C7.47591 23.8137 7.36262 23.6813 7.30098 23.5234C7.23935 23.3656 7.23301 23.1915 7.28299 23.0295L9.98449 14.25H4.99999C4.85351 14.2501 4.71022 14.2072 4.5878 14.1268C4.46539 14.0463 4.36921 13.9318 4.31114 13.7973C4.25307 13.6628 4.23566 13.5143 4.26104 13.37C4.28643 13.2258 4.35351 13.0921 4.45399 12.9855L16.454 0.235506C16.57 0.112205 16.7242 0.0317594 16.8917 0.00724931C17.0592 -0.0172608 17.2301 0.0156063 17.3765 0.100506V0.102006Z" fill="url(#paint0_linear_10851_6665)"/>
</g>
<defs>
<linearGradient id="paint0_linear_10851_6665" x1="4.24969" y1="3.13929" x2="21.0775" y2="4.05369" gradientUnits="userSpaceOnUse">
<stop stop-color="#3DE4ED"/>
<stop offset="1" stop-color="#3DEDB8"/>
</linearGradient>
<clipPath id="clip0_10851_6665">
<rect width="24" height="24" fill="white" transform="translate(0.5)"/>
</clipPath>
</defs>
</svg>
