<svg width="25" height="24" viewBox="0 0 25 24" fill="none" xmlns="http://www.w3.org/2000/svg">
<path d="M12.9959 20.8939C11.2003 20.8931 9.43838 20.4064 7.89685 19.4856C6.35531 18.5648 5.09159 17.2441 4.2396 15.6635C3.38762 14.0829 2.97912 12.3012 3.05737 10.5073C3.13563 8.71343 3.69773 6.97411 4.68412 5.47369C5.0246 4.95688 5.48837 4.53296 6.03361 4.24016C6.57885 3.94736 7.1884 3.7949 7.80728 3.79653H18.1892C18.8069 3.79463 19.4154 3.94641 19.9599 4.23818C20.5044 4.52995 20.9678 4.95256 21.3083 5.46795C22.2887 6.95658 22.8513 8.68119 22.9373 10.4616C23.0234 12.242 22.6297 14.0128 21.7974 15.589C20.965 17.1652 19.7247 18.489 18.2059 19.422C16.6871 20.3549 14.9456 20.8629 13.1634 20.8928L12.9959 20.8939ZM7.80728 4.37011C7.28336 4.36847 6.76727 4.49734 6.30563 4.74509C5.84398 4.99283 5.4513 5.35166 5.16305 5.78916C4.23313 7.20346 3.70332 8.84307 3.62981 10.5341C3.55629 12.2251 3.9418 13.9045 4.74547 15.3942C5.54914 16.8839 6.741 18.1283 8.19464 18.9954C9.64829 19.8625 11.3095 20.3201 13.0021 20.3195C14.6948 20.319 16.3557 19.8603 17.8088 18.9922C19.2618 18.1241 20.4529 16.879 21.2556 15.3888C22.0582 13.8986 22.4427 12.2189 22.368 10.5279C22.2934 8.83694 21.7625 7.19768 20.8316 5.784C20.5433 5.34826 20.1513 4.99096 19.6908 4.74418C19.2303 4.49739 18.7156 4.36886 18.1932 4.37011H7.80728Z" fill="#404040"/>
<path d="M12.9988 22.9416C10.8431 22.9414 8.72732 22.3605 6.87375 21.26C5.02017 20.1595 3.49726 18.58 2.46508 16.6876C1.43289 14.7951 0.929545 12.6595 1.00794 10.5053C1.08633 8.35104 1.74357 6.25771 2.91058 4.44526C3.39587 3.69204 4.06308 3.0732 4.85062 2.64584C5.63816 2.21849 6.52065 1.9964 7.41666 2.00007H18.5815C19.4721 1.99536 20.3496 2.21416 21.1338 2.63644C21.9179 3.05872 22.5835 3.67098 23.0698 4.41716C24.2428 6.22694 24.9064 8.31942 24.9908 10.4745C25.0752 12.6295 24.5772 14.7675 23.5493 16.6635C22.5214 18.5594 21.0015 20.1433 19.1495 21.2485C17.2975 22.3537 15.1819 22.9394 13.0252 22.9439L12.9988 22.9416ZM7.41666 2.86045C6.66418 2.85697 5.92294 3.04305 5.26133 3.40153C4.59971 3.76 4.03903 4.27932 3.63101 4.91159C2.54358 6.59329 1.93015 8.5373 1.85543 10.5386C1.78071 12.5398 2.24747 14.5242 3.20646 16.2823C4.16546 18.0404 5.58114 19.5071 7.3042 20.5277C9.02726 21.5484 10.9938 22.0851 12.9965 22.0813H13.0211C15.0227 22.0766 16.986 21.5328 18.7047 20.5069C20.4234 19.4811 21.834 18.0111 22.7881 16.2516C23.7423 14.4921 24.2048 12.5081 24.1269 10.508C24.0491 8.50796 23.4339 6.56582 22.3459 4.88577C21.9376 4.26004 21.3788 3.74675 20.7207 3.39291C20.0627 3.03907 19.3263 2.856 18.5792 2.86045H7.41666Z" fill="#404040"/>
<path d="M7.71436 13.4408C7.30233 13.4408 6.89956 13.3186 6.55697 13.0897C6.21438 12.8608 5.94736 12.5354 5.78969 12.1548C5.63201 11.7741 5.59075 11.3552 5.67113 10.9511C5.75152 10.547 5.94992 10.1758 6.24127 9.88446C6.53262 9.59312 6.90382 9.3947 7.30793 9.31432C7.71205 9.23394 8.13093 9.2752 8.51159 9.43287C8.89226 9.59055 9.21761 9.85757 9.44652 10.2002C9.67543 10.5427 9.79762 10.9455 9.79762 11.3576C9.79701 11.9099 9.57733 12.4394 9.18677 12.83C8.79622 13.2205 8.26669 13.4402 7.71436 13.4408ZM7.71436 9.84788C7.41577 9.84788 7.1239 9.93642 6.87563 10.1023C6.62737 10.2682 6.43387 10.504 6.31961 10.7798C6.20534 11.0557 6.17544 11.3592 6.2337 11.6521C6.29195 11.9449 6.43572 12.2139 6.64686 12.425C6.85799 12.6362 7.12699 12.78 7.41984 12.8382C7.71268 12.8965 8.01623 12.8666 8.29209 12.7523C8.56794 12.638 8.80372 12.4445 8.9696 12.1963C9.13549 11.948 9.22403 11.6561 9.22403 11.3576C9.22343 10.9574 9.06416 10.5738 8.78116 10.2909C8.49816 10.008 8.11451 9.84891 7.71436 9.84845V9.84788Z" fill="#404040"/>
<path d="M12.8583 13.4408C12.4462 13.4408 12.0434 13.3186 11.7009 13.0897C11.3583 12.8608 11.0913 12.5354 10.9336 12.1548C10.7759 11.7741 10.7346 11.3552 10.815 10.9511C10.8954 10.547 11.0938 10.1758 11.3852 9.88446C11.6765 9.59312 12.0477 9.3947 12.4518 9.31432C12.856 9.23394 13.2748 9.2752 13.6555 9.43287C14.0361 9.59055 14.3615 9.85757 14.5904 10.2002C14.8193 10.5427 14.9415 10.9455 14.9415 11.3576C14.9409 11.9099 14.7212 12.4394 14.3307 12.83C13.9401 13.2205 13.4106 13.4402 12.8583 13.4408ZM12.8583 9.84788C12.5597 9.84788 12.2678 9.93642 12.0195 10.1023C11.7713 10.2682 11.5778 10.504 11.4635 10.7798C11.3492 11.0557 11.3193 11.3592 11.3776 11.6521C11.4358 11.9449 11.5796 12.2139 11.7908 12.425C12.0019 12.6362 12.2709 12.78 12.5637 12.8382C12.8566 12.8965 13.1601 12.8666 13.436 12.7523C13.7118 12.638 13.9476 12.4445 14.1135 12.1963C14.2794 11.948 14.3679 11.6561 14.3679 11.3576C14.3675 10.9574 14.2083 10.5737 13.9252 10.2908C13.6422 10.0078 13.2585 9.84875 12.8583 9.84845V9.84788Z" fill="#404040"/>
<path d="M15.6499 9.17328C15.3619 9.17328 15.0803 9.08787 14.8408 8.92784C14.6013 8.76782 14.4147 8.54037 14.3044 8.27426C14.1942 8.00815 14.1654 7.71534 14.2216 7.43283C14.2777 7.15033 14.4165 6.89084 14.6201 6.68717C14.8238 6.4835 15.0833 6.3448 15.3658 6.2886C15.6483 6.23241 15.9411 6.26125 16.2072 6.37148C16.4733 6.4817 16.7008 6.66836 16.8608 6.90786C17.0208 7.14735 17.1062 7.42892 17.1062 7.71695C17.1058 8.10306 16.9522 8.47321 16.6792 8.74623C16.4062 9.01924 16.036 9.17282 15.6499 9.17328ZM15.6499 6.83421C15.4753 6.83421 15.3046 6.88598 15.1595 6.98298C15.0143 7.07997 14.9012 7.21784 14.8344 7.37914C14.7675 7.54044 14.7501 7.71793 14.7841 7.88917C14.8182 8.0604 14.9023 8.21769 15.0257 8.34114C15.1492 8.4646 15.3065 8.54867 15.4777 8.58273C15.6489 8.61679 15.8264 8.59932 15.9877 8.5325C16.149 8.46569 16.2869 8.35254 16.3839 8.20738C16.4809 8.06221 16.5326 7.89154 16.5326 7.71695C16.5323 7.48293 16.4392 7.25857 16.2738 7.09309C16.1083 6.92761 15.8839 6.83451 15.6499 6.83421Z" fill="#404040"/>
<path d="M10.0821 9.17328C9.79407 9.17328 9.5125 9.08787 9.27301 8.92784C9.03352 8.76782 8.84686 8.54037 8.73663 8.27426C8.62641 8.00815 8.59757 7.71534 8.65376 7.43283C8.70995 7.15033 8.84866 6.89084 9.05233 6.68717C9.256 6.4835 9.51549 6.3448 9.79799 6.2886C10.0805 6.23241 10.3733 6.26125 10.6394 6.37148C10.9055 6.4817 11.133 6.66836 11.293 6.90786C11.453 7.14735 11.5384 7.42892 11.5384 7.71695C11.538 8.10306 11.3844 8.47321 11.1114 8.74623C10.8384 9.01924 10.4682 9.17282 10.0821 9.17328ZM10.0821 6.83421C9.90752 6.83421 9.73684 6.88598 9.59168 6.98298C9.44651 7.07997 9.33337 7.21784 9.26656 7.37914C9.19974 7.54044 9.18226 7.71793 9.21633 7.88917C9.25039 8.0604 9.33446 8.21769 9.45791 8.34114C9.58137 8.4646 9.73866 8.54867 9.90989 8.58273C10.0811 8.61679 10.2586 8.59932 10.4199 8.5325C10.5812 8.46569 10.7191 8.35254 10.8161 8.20738C10.9131 8.06221 10.9649 7.89154 10.9649 7.71695C10.9646 7.48293 10.8714 7.25857 10.706 7.09309C10.5405 6.92761 10.3161 6.83451 10.0821 6.83421Z" fill="#404040"/>
<path d="M18.3514 13.4408C17.9395 13.4404 17.537 13.3178 17.1947 13.0886C16.8524 12.8594 16.5857 12.5339 16.4284 12.1532C16.2711 11.7725 16.2302 11.3537 16.3108 10.9497C16.3914 10.5458 16.59 10.1748 16.8815 9.88365C17.1729 9.59253 17.5441 9.39435 17.9482 9.31415C18.3522 9.23396 18.771 9.27535 19.1515 9.43309C19.532 9.59083 19.8573 9.85785 20.0861 10.2004C20.3149 10.5429 20.437 10.9456 20.437 11.3575C20.4362 11.9102 20.2162 12.44 19.8252 12.8306C19.4342 13.2212 18.9041 13.4407 18.3514 13.4408ZM18.3514 9.84787C18.053 9.84833 17.7613 9.93725 17.5134 10.1034C17.2654 10.2696 17.0723 10.5055 16.9583 10.7814C16.8444 11.0573 16.8149 11.3608 16.8734 11.6535C16.9319 11.9462 17.0758 12.215 17.2871 12.4259C17.4983 12.6368 17.7673 12.7803 18.0601 12.8384C18.3529 12.8964 18.6563 12.8664 18.932 12.7521C19.2077 12.6378 19.4434 12.4443 19.6092 12.196C19.7749 11.9478 19.8634 11.656 19.8634 11.3575C19.8628 10.957 19.7032 10.5731 19.4197 10.2901C19.1362 10.0072 18.752 9.8483 18.3514 9.84845V9.84787Z" fill="#404040"/>
<path d="M10.2524 17.9319C9.84039 17.9319 9.4376 17.8097 9.095 17.5808C8.75239 17.3518 8.48538 17.0264 8.32772 16.6457C8.17006 16.265 8.12883 15.8461 8.20926 15.442C8.28969 15.0379 8.48816 14.6667 8.77957 14.3754C9.07097 14.084 9.44222 13.8857 9.84637 13.8053C10.2505 13.725 10.6694 13.7664 11.0501 13.9241C11.4307 14.0819 11.756 14.349 11.9849 14.6917C12.2137 15.0343 12.3358 15.4372 12.3357 15.8492C12.3349 16.4014 12.1152 16.9308 11.7247 17.3213C11.3341 17.7117 10.8047 17.9313 10.2524 17.9319ZM10.2524 14.3395C9.95386 14.3395 9.66198 14.4281 9.41372 14.594C9.16545 14.7599 8.97196 14.9956 8.85769 15.2715C8.74343 15.5473 8.71353 15.8509 8.77178 16.1437C8.83003 16.4366 8.97381 16.7056 9.18494 16.9167C9.39607 17.1278 9.66507 17.2716 9.95792 17.3299C10.2508 17.3881 10.5543 17.3582 10.8302 17.244C11.106 17.1297 11.3418 16.9362 11.5077 16.6879C11.6736 16.4397 11.7621 16.1478 11.7621 15.8492C11.7617 15.449 11.6025 15.0652 11.3194 14.7822C11.0364 14.4992 10.6527 14.34 10.2524 14.3395Z" fill="#404040"/>
<path d="M15.7457 17.9319C15.3336 17.9319 14.9308 17.8097 14.5882 17.5808C14.2456 17.3518 13.9786 17.0264 13.8209 16.6457C13.6633 16.265 13.6221 15.8461 13.7025 15.442C13.7829 15.0379 13.9814 14.6667 14.2728 14.3754C14.5642 14.084 14.9354 13.8857 15.3396 13.8053C15.7437 13.725 16.1626 13.7664 16.5433 13.9241C16.924 14.0819 17.2493 14.349 17.4781 14.6917C17.707 15.0343 17.829 15.4372 17.8289 15.8492C17.8282 16.4014 17.6084 16.9308 17.2179 17.3213C16.8273 17.7117 16.2979 17.9313 15.7457 17.9319ZM15.7457 14.3395C15.4471 14.3395 15.1552 14.4281 14.9069 14.594C14.6587 14.7599 14.4652 14.9956 14.3509 15.2715C14.2367 15.5473 14.2068 15.8509 14.265 16.1437C14.3233 16.4366 14.467 16.7056 14.6782 16.9167C14.8893 17.1278 15.1583 17.2716 15.4511 17.3299C15.744 17.3881 16.0475 17.3582 16.3234 17.244C16.5993 17.1297 16.835 16.9362 17.0009 16.6879C17.1668 16.4397 17.2553 16.1478 17.2553 15.8492C17.2549 15.449 17.0957 15.0652 16.8127 14.7822C16.5296 14.4992 16.1459 14.34 15.7457 14.3395Z" fill="#404040"/>
</svg>
