<svg width="25" height="24" viewBox="0 0 25 24" fill="none" xmlns="http://www.w3.org/2000/svg">
<g clip-path="url(#clip0_11669_2382)">
<path d="M23.4703 9.75155C24.1343 9.08752 24.5 8.20467 24.5 7.26562C24.5 6.32658 24.1343 5.44369 23.4703 4.7797C22.9787 4.28813 22.3512 3.95995 21.6733 3.8273C21.6828 3.72366 21.6875 3.61973 21.6875 3.51562C21.6875 1.57711 20.1104 0 18.1719 0C16.2334 0 14.6562 1.57711 14.6562 3.51562C14.6562 3.61983 14.661 3.72384 14.6705 3.82758C14.4252 3.87591 14.1858 3.95072 13.9557 4.05023C13.7253 3.95086 13.484 3.87581 13.2358 3.8273C13.2453 3.72366 13.25 3.61973 13.25 3.51562C13.25 1.57711 11.6729 0 9.73438 0C7.79586 0 6.21875 1.57711 6.21875 3.51562C6.21875 3.61973 6.22348 3.72366 6.23295 3.82725C5.55509 3.95991 4.92748 4.28813 4.436 4.77966C3.77197 5.44369 3.40625 6.32658 3.40625 7.26562C3.40625 8.20467 3.77197 9.08752 4.43591 9.75145C4.47795 9.79345 4.52169 9.83461 4.56725 9.87497C4.41997 10.2357 4.34375 10.6213 4.34375 11.0156C4.34375 12.6957 5.71058 14.0625 7.39062 14.0625C7.99442 14.0625 8.55725 13.8852 9.03125 13.581V15.5625H2.14062C1.75231 15.5625 1.4375 15.8773 1.4375 16.2656V19.7812H1.20312C0.814812 19.7812 0.5 20.0961 0.5 20.4844C0.5 20.8727 0.814812 21.1875 1.20312 21.1875H2.375V23.2969C2.375 23.6852 2.68981 24 3.07812 24C3.46644 24 3.78125 23.6852 3.78125 23.2969V21.1875H9.03125V23.2969C9.03125 23.6852 9.34606 24 9.73438 24C10.1227 24 10.4375 23.6852 10.4375 23.2969V21.1875H11.8438V23.2969C11.8438 23.6852 12.1586 24 12.5469 24C12.9352 24 13.25 23.6852 13.25 23.2969V21.1875H14.4219C14.8102 21.1875 15.125 20.8727 15.125 20.4844C15.125 20.0961 14.8102 19.7812 14.4219 19.7812H14.1875V16.2656C14.1875 15.8773 13.8727 15.5625 13.4844 15.5625H10.4375V13.581C10.9115 13.8852 11.4743 14.0625 12.0781 14.0625C12.7862 14.0625 13.4381 13.819 13.956 13.4123C14.4849 13.831 15.1363 14.0625 15.8281 14.0625C16.4319 14.0625 16.9947 13.8852 17.4688 13.581V23.2969C17.4688 23.6852 17.7836 24 18.1719 24C18.5602 24 18.875 23.6852 18.875 23.2969V13.581C19.349 13.8852 19.9118 14.0625 20.5156 14.0625C22.1957 14.0625 23.5625 12.6957 23.5625 11.0156C23.5625 10.6213 23.4863 10.2357 23.339 9.87497C23.3846 9.8347 23.4283 9.79359 23.4703 9.75155ZM12.7812 19.7812H2.84375V16.9688H12.7812V19.7812ZM12.0781 12.6562C11.1735 12.6562 10.4375 11.9203 10.4375 11.0156V8.55469L12.0312 7.35938C12.3419 7.12636 12.4049 6.68564 12.1719 6.375C11.9389 6.06427 11.4981 6.00141 11.1875 6.23438L10.4375 6.79688V5.39062C10.4375 5.00231 10.1227 4.6875 9.73438 4.6875C9.34606 4.6875 9.03125 5.00231 9.03125 5.39062V8.67188L8.28125 8.10938C7.97061 7.87645 7.52984 7.93936 7.29688 8.25C7.06386 8.56064 7.12686 9.00136 7.4375 9.23438L9.03125 10.4297V11.0156C9.03125 11.9203 8.29527 12.6562 7.39062 12.6562C6.48598 12.6562 5.75 11.9203 5.75 11.0156C5.75 10.6795 5.85434 10.354 6.05178 10.0741C6.16438 9.91444 6.20548 9.71513 6.16522 9.52397C6.125 9.33277 6.00697 9.16697 5.83958 9.06628C5.6683 8.9633 5.53827 8.86505 5.43041 8.75709C5.03192 8.3587 4.8125 7.82906 4.8125 7.26562C4.8125 6.70219 5.03192 6.1725 5.43041 5.77406C5.85636 5.34811 6.43095 5.13413 7.04905 5.1712C7.2845 5.18573 7.51264 5.07998 7.65434 4.89052C7.796 4.70109 7.83298 4.45308 7.75264 4.23061C7.66794 3.996 7.625 3.75544 7.625 3.51562C7.625 2.35252 8.57127 1.40625 9.73438 1.40625C10.8975 1.40625 11.8438 2.35252 11.8438 3.51562C11.8438 3.75544 11.8008 3.996 11.7161 4.23056C11.6358 4.45303 11.6727 4.70105 11.8144 4.89047C11.9561 5.07994 12.1832 5.18616 12.4197 5.17116C13.0374 5.13459 13.6124 5.34802 14.0383 5.77402H14.0384C14.4368 6.1725 14.6562 6.70219 14.6562 7.26562C14.6562 7.82906 14.4368 8.3587 14.0383 8.75719C13.9305 8.86505 13.8005 8.96325 13.6292 9.06628C13.4618 9.16692 13.3438 9.33277 13.3035 9.52397C13.2633 9.71513 13.3044 9.91444 13.417 10.0741C13.6144 10.354 13.7188 10.6795 13.7188 11.0156C13.7188 11.9203 12.9828 12.6562 12.0781 12.6562ZM22.4758 8.75719C22.368 8.86505 22.238 8.96325 22.0667 9.06628C21.8993 9.16692 21.7812 9.33277 21.741 9.52397C21.7008 9.71513 21.7419 9.91444 21.8545 10.0741C22.0519 10.354 22.1562 10.6795 22.1562 11.0156C22.1562 11.9203 21.4203 12.6562 20.5156 12.6562C19.611 12.6562 18.875 11.9203 18.875 11.0156V8.55469L20.4688 7.35938C20.7794 7.12636 20.8424 6.68564 20.6094 6.375C20.3764 6.06427 19.9357 6.00141 19.625 6.23438L18.875 6.79688V5.39062C18.875 5.00231 18.5602 4.6875 18.1719 4.6875C17.7836 4.6875 17.4688 5.00231 17.4688 5.39062V11.0156C17.4688 11.9203 16.7328 12.6562 15.8281 12.6562C15.4625 12.6562 15.1169 12.5343 14.834 12.3135C15.0203 11.9195 15.125 11.4796 15.125 11.0156C15.125 10.6213 15.0488 10.2357 14.9015 9.87497C14.9471 9.8347 14.9907 9.79359 15.0328 9.75155C15.6968 9.08752 16.0625 8.20467 16.0625 7.26562C16.0625 6.49941 15.8188 5.77069 15.3685 5.16764C15.4078 5.16787 15.4471 5.16881 15.4865 5.17116C15.7227 5.18559 15.9501 5.07989 16.0918 4.89047C16.2335 4.701 16.2704 4.45303 16.1901 4.23056C16.1054 3.996 16.0625 3.75544 16.0625 3.51562C16.0625 2.35252 17.0088 1.40625 18.1719 1.40625C19.335 1.40625 20.2812 2.35252 20.2812 3.51562C20.2812 3.75544 20.2383 3.996 20.1536 4.23056C20.0733 4.45303 20.1102 4.70105 20.2519 4.89047C20.3936 5.07994 20.6211 5.18616 20.8572 5.17116C21.4749 5.13459 22.0499 5.34802 22.4759 5.77402C22.8743 6.1725 23.0938 6.70219 23.0938 7.26562C23.0938 7.82906 22.8743 8.3587 22.4758 8.75719Z" fill="#404040"/>
</g>
<defs>
<clipPath id="clip0_11669_2382">
<rect width="24" height="24" fill="white" transform="translate(0.5)"/>
</clipPath>
</defs>
</svg>
