<svg width="29" height="28" viewBox="0 0 29 28" fill="none" xmlns="http://www.w3.org/2000/svg">
<path d="M15.0489 1.16663C13.8823 1.16663 12.8323 1.28329 12.8323 1.28329" stroke="white" stroke-width="2" stroke-miterlimit="10" stroke-linecap="round" stroke-linejoin="round"/>
<path d="M15.0484 22.1665C20.8817 22.1665 23.3317 21.6998 24.265 20.0665C25.1984 18.4331 23.0984 15.9831 22.515 14.2331C21.5817 11.7831 22.165 5.01648 15.0484 5.01648C8.16502 5.01648 8.51502 11.7831 7.58169 14.2331C6.99835 15.9831 4.89835 18.4331 5.83169 20.0665C6.76502 21.6998 9.21502 22.1665 15.0484 22.1665Z" stroke="#1F1F1F" stroke-width="2" stroke-miterlimit="10"/>
<path d="M12.5959 1.16663C15.0521 1.16663 17.2626 1.16663 17.2626 1.16663" stroke="#1F1F1F" stroke-width="2" stroke-miterlimit="10" stroke-linecap="round" stroke-linejoin="round"/>
<path d="M19.3655 25.0833C17.8488 26.8333 15.0488 26.8333 15.0488 26.8333C15.0488 26.8333 12.2488 26.8333 10.6155 25.0833" stroke="#1F1F1F" stroke-width="2" stroke-miterlimit="10" stroke-linecap="round" stroke-linejoin="round"/>
</svg>
