<svg width="101" height="100" viewBox="0 0 101 100" fill="none" xmlns="http://www.w3.org/2000/svg">
<path d="M47.375 15.625C43.9219 15.625 41.125 12.8281 41.125 9.375C41.125 5.92188 43.9219 3.125 47.375 3.125C50.8281 3.125 53.625 5.92188 53.625 9.375C53.625 12.8281 50.8281 15.625 47.375 15.625ZM47.375 6.25C45.6562 6.25 44.25 7.65625 44.25 9.375C44.25 11.0938 45.6562 12.5 47.375 12.5C49.0938 12.5 50.5 11.0938 50.5 9.375C50.5 7.65625 49.0938 6.25 47.375 6.25Z" fill="#003049"/>
<path d="M80.0172 72.7344C76.0328 64.7812 73.9391 55.8594 73.9391 46.9531V39.0469C73.9391 24.4062 62.0172 12.4844 47.3765 12.4844C32.7359 12.4844 20.814 24.4219 20.814 39.0625V46.9688C20.814 55.875 18.7047 64.7812 14.7359 72.75C14.4859 73.2344 14.5172 73.8125 14.7984 74.2656C15.0797 74.7188 15.5797 75 16.1265 75H78.6265C79.1734 75 79.6734 74.7188 79.9547 74.2656C80.2359 73.8125 80.2672 73.2344 80.0172 72.75V72.7344Z" fill="#F1C748"/>
<path d="M59.875 81.25H34.875C34.0156 81.25 33.3125 81.9531 33.3125 82.8125C33.3125 90.5625 39.625 96.875 47.375 96.875C55.125 96.875 61.4375 90.5625 61.4375 82.8125C61.4375 81.9531 60.7344 81.25 59.875 81.25Z" fill="#F1C748"/>
<path d="M73.9375 46.875C83.4299 46.875 91.125 39.1799 91.125 29.6875C91.125 20.1951 83.4299 12.5 73.9375 12.5C64.4451 12.5 56.75 20.1951 56.75 29.6875C56.75 39.1799 64.4451 46.875 73.9375 46.875Z" fill="#419355"/>
<path d="M71.5937 35.9374C71.1875 35.9374 70.7812 35.7655 70.4844 35.4843L65.7969 30.7968C65.1875 30.1874 65.1875 29.203 65.7969 28.5937C66.4062 27.9843 67.3906 27.9843 68 28.5937L71.5 32.0937L79.7812 22.4374C80.3438 21.7812 81.3281 21.703 81.9844 22.2655C82.6406 22.828 82.7187 23.8124 82.1562 24.4687L72.7812 35.4062C72.5 35.7343 72.0938 35.9374 71.6562 35.953C71.6406 35.953 71.6094 35.953 71.5937 35.953V35.9374Z" fill="white"/>
<path d="M80.1875 71.875H14.5625C11.9844 71.875 9.875 73.9844 9.875 76.5625V82.8125C9.875 83.6719 10.5781 84.375 11.4375 84.375H83.3125C84.1719 84.375 84.875 83.6719 84.875 82.8125V76.5625C84.875 73.9844 82.7656 71.875 80.1875 71.875Z" fill="#F16648"/>
</svg>
