<svg width="25" height="24" viewBox="0 0 25 24" fill="none" xmlns="http://www.w3.org/2000/svg">
<g clip-path="url(#clip0_11669_2367)">
<path d="M10.1387 9.32792C9.99732 8.30162 9.48939 7.36156 8.70844 6.68077C8.51985 6.51634 8.31825 6.37023 8.10658 6.24242C8.89906 5.59734 9.40626 4.6148 9.40626 3.51562C9.40626 1.57708 7.82917 0 5.89064 0C3.95229 0 2.37502 1.57708 2.37502 3.51562C2.37502 4.6148 2.88241 5.59734 3.67488 6.24242C3.46322 6.37023 3.26162 6.51634 3.07302 6.68077C2.29207 7.36156 1.78414 8.30162 1.64278 9.32792L0.506617 17.5759C0.478968 17.7773 0.539576 17.9807 0.673243 18.1338C0.806726 18.2871 0.999902 18.375 1.20315 18.375H2.4825L3.32204 23.4126C3.37862 23.7515 3.67196 24 4.01564 24H7.76564C8.10932 24 8.40266 23.7515 8.45924 23.4126L9.29877 18.375H10.5781C10.7814 18.375 10.9746 18.2871 11.1082 18.1338C11.2417 17.9807 11.3025 17.7773 11.2747 17.5759L10.1387 9.32792ZM3.78127 3.51562C3.78127 2.35253 4.72756 1.40625 5.89064 1.40625C7.05372 1.40625 8.00001 2.35253 8.00001 3.51562C8.00001 4.6787 7.05372 5.62499 5.89064 5.62499C4.72756 5.62499 3.78127 4.6787 3.78127 3.51562ZM7.16999 22.5937H4.61128L3.90816 18.375H7.87312L7.16999 22.5937ZM8.70313 16.9687H2.00973L3.03585 9.51982C3.23122 8.10112 4.45857 7.03124 5.89064 7.03124C7.3227 7.03124 8.55006 8.10112 8.74561 9.51982L9.77155 16.9687H8.70313Z" fill="#404040"/>
<path d="M23.3891 7.28063C23.0148 6.83916 22.5678 6.47716 22.0733 6.20507C22.8399 5.55962 23.3281 4.59374 23.3281 3.51562C23.3281 1.57708 21.751 0 19.8125 0C17.874 0 16.2969 1.57708 16.2969 3.51562C16.2969 4.59374 16.7852 5.55962 17.5517 6.20507C17.0571 6.47716 16.6103 6.83916 16.2359 7.28063C15.3456 8.33037 14.964 9.71061 15.1889 11.0682L17.2406 23.4122C17.297 23.7513 17.5903 24 17.9342 24H21.691C22.0346 24 22.3282 23.7513 22.3846 23.4122L24.4363 11.0678C24.6609 9.71061 24.2793 8.33037 23.3891 7.28063ZM17.7031 3.51562C17.7031 2.35253 18.6494 1.40625 19.8125 1.40625C20.9756 1.40625 21.9219 2.35253 21.9219 3.51562C21.9219 4.6787 20.9756 5.62499 19.8125 5.62499C18.6494 5.62499 17.7031 4.6787 17.7031 3.51562ZM23.049 10.8376L21.095 22.5937H18.53L16.5761 10.838C16.419 9.88932 16.686 8.92418 17.3083 8.19011C17.9329 7.45366 18.8457 7.03124 19.8125 7.03124C20.7793 7.03124 21.6921 7.45366 22.3166 8.19011C22.939 8.92418 23.206 9.88932 23.049 10.8376Z" fill="#404040"/>
</g>
<defs>
<clipPath id="clip0_11669_2367">
<rect width="24" height="24" fill="white" transform="translate(0.5)"/>
</clipPath>
</defs>
</svg>
