<svg width="20" height="20" viewBox="0 0 20 20" fill="none" xmlns="http://www.w3.org/2000/svg">
<path d="M9.99999 1.66669C8.23188 1.66669 6.53619 2.36907 5.28595 3.61931C4.03571 4.86955 3.33333 6.56524 3.33333 8.33335C3.33333 12.8334 9.20833 17.9167 9.45833 18.1334C9.60927 18.2625 9.80137 18.3334 9.99999 18.3334C10.1986 18.3334 10.3907 18.2625 10.5417 18.1334C10.8333 17.9167 16.6667 12.8334 16.6667 8.33335C16.6667 6.56524 15.9643 4.86955 14.714 3.61931C13.4638 2.36907 11.7681 1.66669 9.99999 1.66669ZM9.99999 16.375C8.22499 14.7084 4.99999 11.1167 4.99999 8.33335C4.99999 7.00727 5.52678 5.7355 6.46446 4.79782C7.40214 3.86014 8.67391 3.33335 9.99999 3.33335C11.3261 3.33335 12.5978 3.86014 13.5355 4.79782C14.4732 5.7355 15 7.00727 15 8.33335C15 11.1167 11.775 14.7167 9.99999 16.375ZM9.99999 5.00002C9.34072 5.00002 8.69626 5.19552 8.14809 5.56179C7.59993 5.92806 7.17269 6.44866 6.9204 7.05774C6.6681 7.66683 6.60209 8.33705 6.73071 8.98365C6.85933 9.63026 7.1768 10.2242 7.64297 10.6904C8.10915 11.1566 8.70309 11.474 9.34969 11.6026C9.9963 11.7313 10.6665 11.6652 11.2756 11.413C11.8847 11.1607 12.4053 10.7334 12.7716 10.1853C13.1378 9.63709 13.3333 8.99263 13.3333 8.33335C13.3333 7.4493 12.9821 6.60145 12.357 5.97633C11.7319 5.35121 10.884 5.00002 9.99999 5.00002ZM9.99999 10C9.67036 10 9.34813 9.90227 9.07404 9.71914C8.79996 9.536 8.58634 9.2757 8.4602 8.97116C8.33405 8.66662 8.30104 8.33151 8.36535 8.0082C8.42966 7.6849 8.5884 7.38793 8.82148 7.15484C9.05457 6.92176 9.35154 6.76302 9.67484 6.69871C9.99815 6.6344 10.3333 6.66741 10.6378 6.79355C10.9423 6.9197 11.2026 7.13332 11.3858 7.4074C11.5689 7.68149 11.6667 8.00372 11.6667 8.33335C11.6667 8.77538 11.4911 9.1993 11.1785 9.51187C10.8659 9.82443 10.442 10 9.99999 10Z" fill="#404040"/>
</svg>
