<svg width="24" height="24" viewBox="0 0 24 24" fill="none" xmlns="http://www.w3.org/2000/svg">
<g clip-path="url(#clip0_15052_5808)">
<path d="M18.48 7.11426L9.72659 15.8677L5.51957 11.6606L4.84082 12.3394L9.72659 17.2252L19.1588 7.793L18.48 7.11426Z" fill="black" fill-opacity="0.75"/>
<path d="M12 0C5.38312 0 0 5.38312 0 12C0 18.6169 5.38312 24 12 24C18.6169 24 24 18.6169 24 12C24 5.38312 18.6169 0 12 0ZM12 23.04C5.91235 23.04 0.959984 18.0876 0.959984 12C0.959984 5.9123 5.91235 0.959984 12 0.959984C18.0877 0.959984 23.04 5.91235 23.04 12C23.04 18.0877 18.0877 23.04 12 23.04Z" fill="black" fill-opacity="0.75"/>
</g>
<defs>
<clipPath id="clip0_15052_5808">
<rect width="24" height="24" fill="white"/>
</clipPath>
</defs>
</svg>
