<svg width="25" height="24" viewBox="0 0 25 24" fill="none" xmlns="http://www.w3.org/2000/svg">
<g clip-path="url(#clip0_10851_6672)">
<path d="M17.3766 0.101991C17.5234 0.187099 17.637 0.319476 17.6988 0.477498C17.7607 0.635519 17.7671 0.809843 17.7171 0.971991L15.0156 9.74999H20.0001C20.1465 9.74993 20.2898 9.79277 20.4122 9.87322C20.5347 9.95366 20.6308 10.0682 20.6889 10.2027C20.747 10.3372 20.7644 10.4857 20.739 10.63C20.7136 10.7742 20.6465 10.9079 20.5461 11.0145L8.54605 23.7645C8.42994 23.888 8.27544 23.9685 8.10772 23.9929C7.93999 24.0173 7.76895 23.9842 7.62246 23.8989C7.47597 23.8137 7.36268 23.6813 7.30104 23.5234C7.23941 23.3655 7.23307 23.1914 7.28305 23.0295L9.98456 14.25H5.00006C4.85357 14.25 4.71028 14.2072 4.58786 14.1268C4.46545 14.0463 4.36927 13.9318 4.3112 13.7973C4.25313 13.6628 4.23572 13.5143 4.26111 13.37C4.28649 13.2257 4.35357 13.0921 4.45405 12.9855L16.4541 0.235491C16.57 0.11219 16.7243 0.0317441 16.8918 0.00723405C17.0593 -0.017276 17.2301 0.015591 17.3766 0.100491V0.101991Z" fill="#83F7D6"/>
</g>
<defs>
<clipPath id="clip0_10851_6672">
<rect width="24" height="24" fill="white" transform="translate(0.5)"/>
</clipPath>
</defs>
</svg>
