<svg width="25" height="24" viewBox="0 0 25 24" fill="none" xmlns="http://www.w3.org/2000/svg">
<path d="M8.28125 0C5.56733 0 3.35938 2.52338 3.35938 5.625C3.35938 6.79097 3.67025 7.90772 4.25844 8.8545C4.75166 9.64847 5.40711 10.275 6.17188 10.6884V21.8906C6.17188 23.0537 7.11814 24 8.28125 24C9.44436 24 10.3906 23.0537 10.3906 21.8906V10.6884C11.1554 10.275 11.8108 9.64847 12.3041 8.8545C12.8923 7.90772 13.2031 6.79097 13.2031 5.625C13.2031 2.52338 10.9952 0 8.28125 0ZM9.41811 9.59606C9.15552 9.70495 8.98438 9.96127 8.98438 10.2455V21.8906C8.98438 22.2783 8.66895 22.5938 8.28125 22.5938C7.89355 22.5938 7.57812 22.2783 7.57812 21.8906V10.2455C7.57812 9.96127 7.40698 9.70495 7.14439 9.59606C5.72159 9.00591 4.76562 7.41009 4.76562 5.625C4.76562 3.29878 6.34273 1.40625 8.28125 1.40625C10.2198 1.40625 11.7969 3.29878 11.7969 5.625C11.7969 7.41009 10.8409 9.00591 9.41811 9.59606Z" fill="#404040"/>
<path d="M20.9375 0C20.5492 0 20.2344 0.314812 20.2344 0.703125V5.625H18.8281V0.703125C18.8281 0.314812 18.5133 0 18.125 0C17.7367 0 17.4219 0.314812 17.4219 0.703125V5.625H16.0156V0.703125C16.0156 0.314812 15.7008 0 15.3125 0C14.9242 0 14.6094 0.314812 14.6094 0.703125V7.73438C14.6094 8.83383 15.1393 9.87206 16.0156 10.5323V21.8906C16.0156 23.0537 16.9619 24 18.125 24C19.2881 24 20.2344 23.0537 20.2344 21.8906V10.5323C21.1107 9.87211 21.6406 8.83383 21.6406 7.73438C21.6406 7.03837 21.6406 1.50155 21.6406 0.703125C21.6406 0.314812 21.3258 0 20.9375 0ZM20.2344 7.73438C20.2344 8.48559 19.8393 9.16397 19.1776 9.54909C18.9612 9.675 18.8281 9.90642 18.8281 10.1568V21.8906C18.8281 22.2783 18.5127 22.5938 18.125 22.5938C17.7373 22.5938 17.4219 22.2783 17.4219 21.8906V10.1568C17.4219 9.90642 17.2888 9.675 17.0724 9.54909C16.4107 9.16397 16.0156 8.48559 16.0156 7.73438V7.03125H20.2344V7.73438Z" fill="#404040"/>
</svg>
