<svg width="24" height="24" viewBox="0 0 24 24" fill="none" xmlns="http://www.w3.org/2000/svg">
<path d="M3.27271 8.18181V5.99999C3.27271 5.42134 3.50257 4.86639 3.91174 4.45722C4.32092 4.04805 4.87587 3.81818 5.45452 3.81818H7.63634M3.27271 16.9091V19.0909C3.27271 19.6696 3.50257 20.2245 3.91174 20.6337C4.32092 21.0429 4.87587 21.2727 5.45452 21.2727H7.63634M16.3636 3.81818H18.5454C19.1241 3.81818 19.679 4.04805 20.0882 4.45722C20.4974 4.86639 20.7273 5.42134 20.7273 5.99999V8.18181M16.3636 21.2727H18.5454C19.1241 21.2727 19.679 21.0429 20.0882 20.6337C20.4974 20.2245 20.7273 19.6696 20.7273 19.0909V16.9091M8.72725 10.3636H8.73816M15.2727 10.3636H15.2836M9.27271 15.8182C9.62821 16.181 10.0525 16.4693 10.5208 16.666C10.9891 16.8628 11.492 16.9642 12 16.9642C12.5079 16.9642 13.0108 16.8628 13.4791 16.666C13.9474 16.4693 14.3717 16.181 14.7273 15.8182" stroke="url(#paint0_linear_10700_5895)" stroke-width="2" stroke-linecap="round" stroke-linejoin="round"/>
<defs>
<linearGradient id="paint0_linear_10700_5895" x1="3.27271" y1="6.10165" x2="21.0151" y2="7.504" gradientUnits="userSpaceOnUse">
<stop stop-color="#3DE4ED"/>
<stop offset="1" stop-color="#3DEDB8"/>
</linearGradient>
</defs>
</svg>
