<svg width="25" height="24" viewBox="0 0 25 24" fill="none" xmlns="http://www.w3.org/2000/svg">
<path d="M22.9088 23.2111L21.0847 5.8405C21.0464 5.47686 20.7399 5.20073 20.3743 5.20073H16.9458V4.41906C16.9458 1.98248 14.9633 0 12.5267 0C10.09 0 8.1075 1.98248 8.1075 4.41906V5.20073H4.67904C4.31338 5.20073 4.00687 5.47686 3.9686 5.8405L2.1445 23.2111C2.12345 23.4124 2.18881 23.6132 2.32413 23.7637C2.45963 23.9141 2.65262 24 2.85495 24H22.1982C22.4007 24 22.5937 23.9141 22.729 23.7637C22.8647 23.6132 22.9299 23.4124 22.9088 23.2111ZM9.53609 4.41906C9.53609 2.7702 10.8777 1.42859 12.5267 1.42859C14.1756 1.42859 15.5172 2.7702 15.5172 4.41906V5.20073H9.53609V4.41906ZM3.64816 22.5714L5.32229 6.62932H8.1075V8.20347C8.1075 8.59788 8.42739 8.91777 8.8218 8.91777C9.2162 8.91777 9.53609 8.59788 9.53609 8.20347V6.62932H15.5172V8.20347C15.5172 8.59788 15.8371 8.91777 16.2315 8.91777C16.6259 8.91777 16.9458 8.59788 16.9458 8.20347V6.62932H19.731L21.4051 22.5714H3.64816Z" fill="#404040"/>
</svg>
