<svg width="25" height="24" viewBox="0 0 25 24" fill="none" xmlns="http://www.w3.org/2000/svg">
<path d="M13.91 12L18.21 7.71C18.3983 7.5217 18.5041 7.2663 18.5041 7C18.5041 6.7337 18.3983 6.47831 18.21 6.29C18.0217 6.1017 17.7663 5.99591 17.5 5.99591C17.2337 5.99591 16.9783 6.1017 16.79 6.29L12.5 10.59L8.21 6.29C8.0217 6.1017 7.7663 5.99591 7.5 5.99591C7.2337 5.99591 6.9783 6.1017 6.79 6.29C6.6017 6.47831 6.49591 6.7337 6.49591 7C6.49591 7.2663 6.6017 7.5217 6.79 7.71L11.09 12L6.79 16.29C6.69627 16.383 6.62188 16.4936 6.57111 16.6154C6.52034 16.7373 6.4942 16.868 6.4942 17C6.4942 17.132 6.52034 17.2627 6.57111 17.3846C6.62188 17.5064 6.69627 17.617 6.79 17.71C6.88296 17.8037 6.99356 17.8781 7.11542 17.9289C7.23728 17.9797 7.36799 18.0058 7.5 18.0058C7.63201 18.0058 7.76272 17.9797 7.88458 17.9289C8.00644 17.8781 8.11704 17.8037 8.21 17.71L12.5 13.41L16.79 17.71C16.883 17.8037 16.9936 17.8781 17.1154 17.9289C17.2373 17.9797 17.368 18.0058 17.5 18.0058C17.632 18.0058 17.7627 17.9797 17.8846 17.9289C18.0064 17.8781 18.117 17.8037 18.21 17.71C18.3037 17.617 18.3781 17.5064 18.4289 17.3846C18.4797 17.2627 18.5058 17.132 18.5058 17C18.5058 16.868 18.4797 16.7373 18.4289 16.6154C18.3781 16.4936 18.3037 16.383 18.21 16.29L13.91 12Z" fill="black" fill-opacity="0.75"/>
</svg>
