<svg width="20" height="20" viewBox="0 0 20 20" fill="none" xmlns="http://www.w3.org/2000/svg">
<path d="M15.218 6.06774C15.0897 6.13257 15.0439 6.17888 14.9828 6.30854C14.94 6.39498 14.9034 6.50921 14.9034 6.5586C14.9064 6.69753 15.0072 6.90128 15.1141 6.98155L15.2088 7.05255V10.112C15.2088 13.4523 15.2149 13.3473 15.0317 13.69C14.9156 13.9123 14.5888 14.2364 14.3658 14.3507C14.1856 14.4433 13.8008 14.5421 13.6298 14.5421C13.4679 14.539 13.1197 14.4495 12.9243 14.3568C12.6799 14.2426 12.3593 13.9246 12.2401 13.6777C12.063 13.3195 12.063 13.3041 12.063 11.2974C12.063 9.30311 12.0508 9.10553 11.9072 8.74433C11.5652 7.87683 10.6428 7.30879 9.77543 7.43537C8.90805 7.56194 8.26056 8.1269 8.01318 8.97278C7.96431 9.13641 7.9582 9.38338 7.94293 11.2233C7.9246 13.2424 7.92155 13.2948 7.85741 13.4677C7.66195 13.9956 7.21909 14.3815 6.68156 14.4927C6.38836 14.5544 6.3456 14.5544 6.05545 14.4927C5.7256 14.4248 5.48738 14.292 5.25221 14.0512C4.85517 13.6437 4.79408 13.4338 4.79408 12.4737V11.776L4.88265 11.7235C5.00482 11.6494 5.11172 11.3931 5.08728 11.2264C5.02925 10.8652 4.66886 10.6553 4.34512 10.7911C4.28098 10.8189 4.20463 10.8621 4.17409 10.893C4.08246 10.9764 4 11.1647 4 11.2882C4 11.4394 4.10384 11.6525 4.21379 11.7327L4.29931 11.7945L4.31153 12.5447C4.32374 13.2208 4.3329 13.3134 4.39399 13.5079C4.68413 14.4001 5.37132 14.9496 6.26008 14.9959C6.64796 15.0175 6.92895 14.9558 7.29545 14.7674C7.79022 14.5174 8.1445 14.0975 8.32775 13.5387C8.38239 13.3751 8.41099 13.2039 8.41251 13.0314L8.42854 11.2079C8.44381 9.16419 8.44381 9.12097 8.511 8.96352C8.77977 8.29978 9.33563 7.90462 10.0014 7.90462C10.6703 7.90462 11.2231 8.29669 11.4919 8.96352C11.5591 9.12097 11.5591 9.16419 11.5743 11.2079L11.5904 13.0323C11.5919 13.2043 11.6194 13.375 11.6721 13.5387C11.8614 14.1006 12.2188 14.5297 12.7227 14.7829C12.9945 14.9218 13.2053 14.9774 13.5443 14.9959C14.1337 15.0298 14.6499 14.8292 15.0714 14.4031C15.3371 14.1376 15.4806 13.8968 15.6119 13.5079C15.6585 13.3647 15.6826 13.2151 15.6833 13.0645L15.7127 7.04947L15.8074 6.9692C16.0914 6.7284 16.0548 6.28076 15.7402 6.09553C15.5417 5.97821 15.4073 5.96895 15.218 6.06774Z" fill="#404040"/>
<path d="M17 6.5C17 7.32843 16.3284 8 15.5 8C14.6716 8 14 7.32843 14 6.5C14 5.67157 14.6716 5 15.5 5C16.3284 5 17 5.67157 17 6.5Z" fill="#404040"/>
<path d="M6 11.5C6 12.3284 5.32843 13 4.5 13C3.67157 13 3 12.3284 3 11.5C3 10.6716 3.67157 10 4.5 10C5.32843 10 6 10.6716 6 11.5Z" fill="#404040"/>
<path d="M15.218 6.06774C15.0897 6.13257 15.0439 6.17888 14.9828 6.30854C14.94 6.39498 14.9034 6.50921 14.9034 6.5586C14.9064 6.69753 15.0072 6.90128 15.1141 6.98155L15.2088 7.05255V10.112C15.2088 13.4523 15.2149 13.3473 15.0317 13.69C14.9156 13.9123 14.5888 14.2364 14.3658 14.3507C14.1856 14.4433 13.8008 14.5421 13.6298 14.5421C13.4679 14.539 13.1197 14.4495 12.9243 14.3568C12.6799 14.2426 12.3593 13.9246 12.2401 13.6777C12.063 13.3195 12.063 13.3041 12.063 11.2974C12.063 9.30311 12.0508 9.10553 11.9072 8.74433C11.5652 7.87683 10.6428 7.30879 9.77543 7.43537C8.90805 7.56194 8.26056 8.1269 8.01318 8.97278C7.96431 9.13641 7.9582 9.38338 7.94293 11.2233C7.9246 13.2424 7.92155 13.2948 7.85741 13.4677C7.66195 13.9956 7.21909 14.3815 6.68156 14.4927C6.38836 14.5544 6.3456 14.5544 6.05545 14.4927C5.7256 14.4248 5.48738 14.292 5.25221 14.0512C4.85517 13.6437 4.79408 13.4338 4.79408 12.4737V11.776L4.88265 11.7235C5.00482 11.6494 5.11172 11.3931 5.08728 11.2264C5.02925 10.8652 4.66886 10.6553 4.34512 10.7911C4.28098 10.8189 4.20463 10.8621 4.17409 10.893C4.08246 10.9764 4 11.1647 4 11.2882C4 11.4394 4.10384 11.6525 4.21379 11.7327L4.29931 11.7945L4.31153 12.5447C4.32374 13.2208 4.3329 13.3134 4.39399 13.5079C4.68413 14.4001 5.37132 14.9496 6.26008 14.9959C6.64796 15.0175 6.92895 14.9558 7.29545 14.7674C7.79022 14.5174 8.1445 14.0975 8.32775 13.5387C8.38239 13.3751 8.41099 13.2039 8.41251 13.0314L8.42854 11.2079C8.44381 9.16419 8.44381 9.12097 8.511 8.96352C8.77977 8.29978 9.33563 7.90462 10.0014 7.90462C10.6703 7.90462 11.2231 8.29669 11.4919 8.96352C11.5591 9.12097 11.5591 9.16419 11.5743 11.2079L11.5904 13.0323C11.5919 13.2043 11.6194 13.375 11.6721 13.5387C11.8614 14.1006 12.2188 14.5297 12.7227 14.7829C12.9945 14.9218 13.2053 14.9774 13.5443 14.9959C14.1337 15.0298 14.6499 14.8292 15.0714 14.4031C15.3371 14.1376 15.4806 13.8968 15.6119 13.5079C15.6585 13.3647 15.6826 13.2151 15.6833 13.0645L15.7127 7.04947L15.8074 6.9692C16.0914 6.7284 16.0548 6.28076 15.7402 6.09553C15.5417 5.97821 15.4073 5.96895 15.218 6.06774Z" stroke="#404040"/>
<path d="M17 6.5C17 7.32843 16.3284 8 15.5 8C14.6716 8 14 7.32843 14 6.5C14 5.67157 14.6716 5 15.5 5C16.3284 5 17 5.67157 17 6.5Z" stroke="#404040"/>
<path d="M6 11.5C6 12.3284 5.32843 13 4.5 13C3.67157 13 3 12.3284 3 11.5C3 10.6716 3.67157 10 4.5 10C5.32843 10 6 10.6716 6 11.5Z" stroke="#404040"/>
</svg>
