<svg width="25" height="24" viewBox="0 0 25 24" fill="none" xmlns="http://www.w3.org/2000/svg">
<path d="M8.75 2H3.75C3.48478 2 3.23043 2.10536 3.04289 2.29289C2.85536 2.48043 2.75 2.73478 2.75 3V8C2.75 8.26522 2.85536 8.51957 3.04289 8.70711C3.23043 8.89464 3.48478 9 3.75 9C4.01522 9 4.26957 8.89464 4.45711 8.70711C4.64464 8.51957 4.75 8.26522 4.75 8V4H8.75C9.01522 4 9.26957 3.89464 9.45711 3.70711C9.64464 3.51957 9.75 3.26522 9.75 3C9.75 2.73478 9.64464 2.48043 9.45711 2.29289C9.26957 2.10536 9.01522 2 8.75 2ZM8.75 20H4.75V16C4.75 15.7348 4.64464 15.4804 4.45711 15.2929C4.26957 15.1054 4.01522 15 3.75 15C3.48478 15 3.23043 15.1054 3.04289 15.2929C2.85536 15.4804 2.75 15.7348 2.75 16V21C2.75 21.2652 2.85536 21.5196 3.04289 21.7071C3.23043 21.8946 3.48478 22 3.75 22H8.75C9.01522 22 9.26957 21.8946 9.45711 21.7071C9.64464 21.5196 9.75 21.2652 9.75 21C9.75 20.7348 9.64464 20.4804 9.45711 20.2929C9.26957 20.1054 9.01522 20 8.75 20ZM21.75 2H16.75C16.4848 2 16.2304 2.10536 16.0429 2.29289C15.8554 2.48043 15.75 2.73478 15.75 3C15.75 3.26522 15.8554 3.51957 16.0429 3.70711C16.2304 3.89464 16.4848 4 16.75 4H20.75V8C20.75 8.26522 20.8554 8.51957 21.0429 8.70711C21.2304 8.89464 21.4848 9 21.75 9C22.0152 9 22.2696 8.89464 22.4571 8.70711C22.6446 8.51957 22.75 8.26522 22.75 8V3C22.75 2.73478 22.6446 2.48043 22.4571 2.29289C22.2696 2.10536 22.0152 2 21.75 2ZM21.75 15C21.4848 15 21.2304 15.1054 21.0429 15.2929C20.8554 15.4804 20.75 15.7348 20.75 16V20H16.75C16.4848 20 16.2304 20.1054 16.0429 20.2929C15.8554 20.4804 15.75 20.7348 15.75 21C15.75 21.2652 15.8554 21.5196 16.0429 21.7071C16.2304 21.8946 16.4848 22 16.75 22H21.75C22.0152 22 22.2696 21.8946 22.4571 21.7071C22.6446 21.5196 22.75 21.2652 22.75 21V16C22.75 15.7348 22.6446 15.4804 22.4571 15.2929C22.2696 15.1054 22.0152 15 21.75 15Z" fill="white"/>
<path d="M2.75 12H22.75" stroke="white" stroke-opacity="0.8" stroke-width="2" stroke-linecap="round"/>
</svg>
