<svg width="25" height="24" viewBox="0 0 25 24" fill="none" xmlns="http://www.w3.org/2000/svg">
<path d="M12.709 14.8432C10.4989 14.8432 8.42252 14.0147 6.8618 12.5109C5.30107 11.0071 4.43045 8.99328 4.41842 6.84288C4.40592 4.60917 5.31495 2.52865 6.9789 0.984588C7.67501 0.344812 8.58794 -0.00702659 9.53337 0.000106372H15.8846C16.8358 -0.0058729 17.7537 0.350228 18.452 0.996159C20.0951 2.52773 21 4.58833 21 6.79798C21 11.2339 17.2805 14.8432 12.709 14.8432ZM9.53337 0.694381C8.76301 0.687487 8.0187 0.972972 7.45054 1.49326C5.93101 2.90356 5.10066 4.80217 5.11223 6.83917C5.12287 8.79841 5.91527 10.6345 7.34316 12.0111C8.77105 13.3876 10.6794 14.149 12.7085 14.149C16.8973 14.149 20.3053 10.8512 20.3053 6.79798C20.3053 4.78273 19.4786 2.90264 17.9781 1.5039C17.4081 0.978077 16.6595 0.688675 15.8841 0.694381H9.53337Z" fill="#1F1F1F"/>
<path d="M12.7099 13.1349H12.6636C11.7888 13.1263 10.9242 12.9452 10.1195 12.6019C9.31481 12.2586 8.58572 11.76 7.97403 11.1345C6.78312 9.91114 6.14532 8.32634 6.17818 6.67165C6.21275 5.03787 6.88915 3.48338 8.06105 2.34447C8.31457 2.09897 8.65374 1.96184 9.00665 1.96216H16.4122C16.7655 1.96177 17.1051 2.09908 17.3588 2.34494C18.5733 3.53863 19.2421 5.11972 19.2421 6.79663C19.2421 8.46288 18.5816 10.0366 17.3828 11.2252C16.1424 12.4591 14.4836 13.1349 12.7099 13.1349ZM9.00712 2.42501C8.77549 2.42413 8.55264 2.51363 8.38597 2.67449C7.3005 3.72877 6.6738 5.16806 6.64149 6.68091C6.61094 8.21063 7.20246 9.67786 8.30775 10.8114C8.87652 11.3931 9.55449 11.857 10.3028 12.1762C11.0512 12.4955 11.8552 12.664 12.6687 12.672H12.715C14.366 12.672 15.9087 12.0426 17.0621 10.897C17.6072 10.3622 18.0403 9.72421 18.3361 9.02018C18.6319 8.31616 18.7844 7.56026 18.7848 6.79663C18.7848 5.24469 18.1651 3.78116 17.0399 2.67726C16.8729 2.51627 16.6498 2.42662 16.4178 2.42733L9.00712 2.42501Z" fill="#1F1F1F"/>
<path d="M14.8654 11.8055C14.5304 11.8055 14.2028 11.7062 13.9242 11.52C13.6457 11.3339 13.4285 11.0693 13.3003 10.7598C13.1721 10.4502 13.1386 10.1096 13.2039 9.78102C13.2693 9.45241 13.4306 9.15057 13.6675 8.91365C13.9045 8.67674 14.2063 8.5154 14.5349 8.45003C14.8635 8.38467 15.2041 8.41821 15.5137 8.54643C15.8232 8.67465 16.0878 8.89178 16.2739 9.17036C16.4601 9.44894 16.5594 9.77647 16.5594 10.1115C16.5591 10.5607 16.3805 10.9914 16.0629 11.309C15.7452 11.6266 15.3146 11.8052 14.8654 11.8055ZM14.8654 8.88079C14.6219 8.88079 14.3838 8.95302 14.1813 9.08832C13.9789 9.22362 13.8211 9.41594 13.7279 9.64093C13.6347 9.86593 13.6104 10.1135 13.6579 10.3523C13.7055 10.5912 13.8228 10.8105 13.995 10.9827C14.1672 11.1549 14.3866 11.2721 14.6255 11.3196C14.8644 11.367 15.1119 11.3426 15.3369 11.2493C15.5618 11.156 15.7541 10.9982 15.8893 10.7956C16.0245 10.5931 16.0967 10.355 16.0966 10.1115C16.0962 9.78514 15.9664 9.47225 15.7355 9.24151C15.5047 9.01077 15.1918 8.88104 14.8654 8.88079Z" fill="#1F1F1F"/>
<path d="M15.2118 10.4584C15.4033 10.267 15.4033 9.95665 15.2118 9.76523C15.0204 9.57381 14.7101 9.57381 14.5187 9.76522C14.3272 9.95664 14.3272 10.267 14.5187 10.4584C14.7101 10.6498 15.0204 10.6498 15.2118 10.4584Z" fill="#1F1F1F"/>
<path d="M12.6321 8.24805C12.2971 8.24814 11.9695 8.14885 11.6908 7.96274C11.4122 7.77664 11.195 7.51207 11.0667 7.20251C10.9384 6.89294 10.9048 6.55229 10.9702 6.22364C11.0355 5.89499 11.1969 5.5931 11.4338 5.35616C11.6708 5.11922 11.9727 4.95786 12.3013 4.89251C12.63 4.82716 12.9706 4.86075 13.2802 4.98903C13.5897 5.1173 13.8543 5.3345 14.0404 5.61315C14.2265 5.8918 14.3258 6.21939 14.3257 6.55448C14.3252 7.00349 14.1466 7.43397 13.8291 7.75147C13.5116 8.06897 13.0812 8.24756 12.6321 8.24805ZM12.6321 5.3233C12.3886 5.32321 12.1505 5.39534 11.948 5.53056C11.7455 5.66579 11.5876 5.85805 11.4944 6.08301C11.4011 6.30797 11.3766 6.55553 11.4241 6.79439C11.4716 7.03324 11.5888 7.25266 11.7609 7.42489C11.9331 7.59712 12.1525 7.71443 12.3913 7.76197C12.6302 7.80951 12.8777 7.78516 13.1027 7.69198C13.3277 7.59881 13.52 7.44101 13.6553 7.23854C13.7906 7.03606 13.8629 6.798 13.8629 6.55448C13.8625 6.22814 13.7327 5.91527 13.502 5.68447C13.2713 5.45367 12.9585 5.32379 12.6321 5.3233Z" fill="#1F1F1F"/>
<path d="M12.9786 6.9008C13.17 6.70938 13.17 6.39903 12.9786 6.20761C12.7872 6.01619 12.4769 6.01619 12.2854 6.20761C12.094 6.39902 12.094 6.70937 12.2854 6.90079C12.4769 7.09221 12.7872 7.09221 12.9786 6.9008Z" fill="#1F1F1F"/>
<path d="M16.7015 8.24805C16.3665 8.24805 16.0389 8.14868 15.7603 7.96252C15.4817 7.77636 15.2646 7.51175 15.1364 7.20218C15.0082 6.89261 14.9747 6.55198 15.0401 6.22336C15.1055 5.89474 15.2669 5.59289 15.5038 5.356C15.7408 5.1191 16.0427 4.95779 16.3713 4.89248C16.7 4.82717 17.0406 4.86078 17.3501 4.98907C17.6597 5.11736 17.9242 5.33456 18.1103 5.6132C18.2964 5.89184 18.3956 6.21941 18.3955 6.55448C18.3951 7.00357 18.2164 7.43412 17.8988 7.75163C17.5812 8.06914 17.1506 8.24768 16.7015 8.24805ZM16.7015 5.3233C16.458 5.3233 16.22 5.39551 16.0175 5.53079C15.815 5.66607 15.6572 5.85836 15.5641 6.08333C15.4709 6.3083 15.4465 6.55585 15.494 6.79467C15.5415 7.0335 15.6588 7.25287 15.8309 7.42506C16.0031 7.59724 16.2225 7.7145 16.4613 7.76201C16.7002 7.80951 16.9477 7.78512 17.1727 7.69194C17.3976 7.59875 17.5899 7.44095 17.7252 7.23849C17.8605 7.03602 17.9327 6.79798 17.9327 6.55448C17.9325 6.22802 17.8027 5.91501 17.5718 5.68418C17.341 5.45334 17.028 5.32354 16.7015 5.3233Z" fill="#1F1F1F"/>
<path d="M17.1753 6.66378C17.2375 6.40032 17.0743 6.13632 16.8108 6.07414C16.5474 6.01196 16.2834 6.17513 16.2212 6.4386C16.159 6.70206 16.3222 6.96606 16.5856 7.02824C16.8491 7.09043 17.1131 6.92725 17.1753 6.66378Z" fill="#1F1F1F"/>
<path d="M8.6646 8.24805C8.32953 8.24805 8.00198 8.14868 7.72339 7.96252C7.4448 7.77636 7.22768 7.51175 7.09947 7.20218C6.97127 6.89261 6.93775 6.55198 7.00315 6.22336C7.06855 5.89474 7.22994 5.59289 7.4669 5.356C7.70386 5.1191 8.00575 4.95779 8.33439 4.89248C8.66303 4.82717 9.00365 4.86078 9.31319 4.98907C9.62272 5.11736 9.88727 5.33456 10.0734 5.6132C10.2594 5.89184 10.3587 6.21941 10.3586 6.55448C10.3581 7.00357 10.1795 7.43412 9.86189 7.75163C9.54429 8.06914 9.11369 8.24768 8.6646 8.24805ZM8.6646 5.3233C8.42109 5.3233 8.18305 5.39551 7.98059 5.53079C7.77812 5.66607 7.62032 5.85836 7.52713 6.08333C7.43395 6.3083 7.40957 6.55585 7.45707 6.79467C7.50458 7.0335 7.62183 7.25287 7.79402 7.42506C7.9662 7.59724 8.18558 7.7145 8.4244 7.76201C8.66323 7.80951 8.91078 7.78512 9.13574 7.69194C9.36071 7.59875 9.553 7.44095 9.68828 7.23849C9.82357 7.03602 9.89577 6.79798 9.89577 6.55448C9.89541 6.22806 9.76558 5.91512 9.53477 5.68431C9.30395 5.4535 8.99101 5.32367 8.6646 5.3233Z" fill="#1F1F1F"/>
<path d="M8.85211 7.00755C9.10221 6.90395 9.22097 6.61722 9.11738 6.36712C9.01378 6.11702 8.72706 5.99826 8.47696 6.10185C8.22686 6.20545 8.10809 6.49217 8.21168 6.74227C8.31528 6.99237 8.60201 7.11114 8.85211 7.00755Z" fill="#1F1F1F"/>
<path d="M10.579 11.8055C10.2439 11.8056 9.91631 11.7064 9.63767 11.5203C9.35903 11.3342 9.14183 11.0696 9.01354 10.7601C8.88525 10.4506 8.85164 10.1099 8.91696 9.7813C8.98227 9.45266 9.14357 9.15078 9.38047 8.91382C9.61736 8.67686 9.91921 8.51547 10.2478 8.45006C10.5765 8.38466 10.9171 8.41819 11.2267 8.54639C11.5362 8.67459 11.8008 8.89172 11.987 9.17031C12.1732 9.4489 12.2725 9.77645 12.2725 10.1115C12.272 10.5606 12.0935 10.9911 11.776 11.3087C11.4585 11.6262 11.028 11.8049 10.579 11.8055ZM10.579 8.88079C10.3354 8.8807 10.0973 8.95284 9.89477 9.08809C9.69223 9.22334 9.53436 9.41562 9.44112 9.64061C9.34788 9.8656 9.32346 10.1132 9.37095 10.3521C9.41844 10.5909 9.5357 10.8103 9.70791 10.9825C9.88012 11.1548 10.0995 11.272 10.3384 11.3195C10.5773 11.367 10.8249 11.3426 11.0499 11.2493C11.2748 11.1561 11.4671 10.9982 11.6024 10.7957C11.7376 10.5932 11.8098 10.3551 11.8097 10.1115C11.8093 9.78522 11.6795 9.4724 11.4488 9.24167C11.2181 9.01095 10.9052 8.88116 10.579 8.88079Z" fill="#1F1F1F"/>
<path d="M10.9256 10.4582C11.117 10.2668 11.117 9.9564 10.9256 9.76498C10.7342 9.57357 10.4238 9.57356 10.2324 9.76498C10.041 9.9564 10.041 10.2668 10.2324 10.4582C10.4238 10.6496 10.7342 10.6496 10.9256 10.4582Z" fill="#1F1F1F"/>
<path d="M14.5956 4.84472C14.3758 4.84472 14.1611 4.77957 13.9784 4.65751C13.7957 4.53545 13.6533 4.36197 13.5693 4.15899C13.4852 3.95601 13.4632 3.73265 13.5061 3.51717C13.5489 3.30169 13.6547 3.10376 13.8101 2.9484C13.9654 2.79305 14.1634 2.68725 14.3788 2.64439C14.5943 2.60153 14.8177 2.62353 15.0206 2.7076C15.2236 2.79168 15.3971 2.93406 15.5192 3.11673C15.6412 3.29941 15.7064 3.51418 15.7064 3.73389C15.7064 4.0285 15.5894 4.31105 15.381 4.51937C15.1727 4.72769 14.8902 4.84472 14.5956 4.84472ZM14.5956 3.0859C14.4674 3.0859 14.3421 3.1239 14.2355 3.1951C14.129 3.2663 14.0459 3.36751 13.9969 3.48591C13.9478 3.60432 13.935 3.7346 13.96 3.8603C13.985 3.986 14.0467 4.10146 14.1374 4.19208C14.228 4.28271 14.3434 4.34442 14.4691 4.36942C14.5948 4.39442 14.7251 4.38159 14.8435 4.33255C14.9619 4.28351 15.0631 4.20045 15.1343 4.09389C15.2055 3.98733 15.2435 3.86205 15.2435 3.73389C15.2435 3.56203 15.1753 3.39721 15.0537 3.27569C14.9322 3.15416 14.7674 3.0859 14.5956 3.0859Z" fill="#1F1F1F"/>
<path d="M14.8904 3.73392C14.8905 3.79237 14.8732 3.84952 14.8408 3.89816C14.8084 3.94679 14.7623 3.98471 14.7083 4.00712C14.6543 4.02953 14.5949 4.03541 14.5376 4.02403C14.4803 4.01265 14.4276 3.98452 14.3863 3.94319C14.345 3.90187 14.3168 3.84921 14.3054 3.79188C14.2941 3.73455 14.2999 3.67514 14.3224 3.62116C14.3448 3.56719 14.3827 3.52107 14.4313 3.48866C14.48 3.45625 14.5371 3.439 14.5956 3.43909C14.6737 3.43909 14.7487 3.47015 14.804 3.52544C14.8593 3.58073 14.8904 3.65573 14.8904 3.73392Z" fill="#1F1F1F"/>
<path d="M10.4632 4.84472C10.2435 4.84472 10.0288 4.77957 9.84609 4.65751C9.66341 4.53545 9.52104 4.36197 9.43696 4.15899C9.35288 3.95601 9.33088 3.73265 9.37375 3.51717C9.41661 3.30169 9.5224 3.10376 9.67776 2.9484C9.83311 2.79305 10.031 2.68725 10.2465 2.64439C10.462 2.60153 10.6854 2.62353 10.8883 2.7076C11.0913 2.79168 11.2648 2.93406 11.3869 3.11673C11.5089 3.29941 11.5741 3.51418 11.5741 3.73389C11.5741 4.0285 11.457 4.31105 11.2487 4.51937C11.0404 4.72769 10.7579 4.84472 10.4632 4.84472ZM10.4632 3.0859C10.3351 3.0859 10.2098 3.1239 10.1032 3.1951C9.99668 3.2663 9.91362 3.36751 9.86458 3.48591C9.81553 3.60432 9.8027 3.7346 9.8277 3.8603C9.85271 3.986 9.91442 4.10146 10.005 4.19208C10.0957 4.28271 10.2111 4.34442 10.3368 4.36942C10.4625 4.39442 10.5928 4.38159 10.7112 4.33255C10.8296 4.28351 10.9308 4.20045 11.002 4.09389C11.0732 3.98733 11.1112 3.86205 11.1112 3.73389C11.1112 3.56203 11.043 3.39721 10.9214 3.27569C10.7999 3.15416 10.6351 3.0859 10.4632 3.0859Z" fill="#1F1F1F"/>
<path d="M10.7581 3.73392C10.7582 3.79237 10.7409 3.84952 10.7085 3.89816C10.6761 3.94679 10.63 3.98471 10.576 4.00712C10.522 4.02953 10.4626 4.03541 10.4053 4.02403C10.3479 4.01265 10.2953 3.98452 10.254 3.94319C10.2126 3.90187 10.1845 3.84921 10.1731 3.79188C10.1617 3.73455 10.1676 3.67514 10.19 3.62116C10.2124 3.56719 10.2504 3.52107 10.299 3.48866C10.3476 3.45625 10.4048 3.439 10.4632 3.43909C10.5414 3.43909 10.6164 3.47015 10.6717 3.52544C10.727 3.58073 10.7581 3.65573 10.7581 3.73392Z" fill="#1F1F1F"/>
<path d="M16.4923 23.7804H8.28136C7.14587 23.7804 6.05689 23.3293 5.25398 22.5264C4.45107 21.7235 4 20.6345 4 19.499C4 18.3635 4.45107 17.2745 5.25398 16.4716C6.05689 15.6687 7.14587 15.2177 8.28136 15.2177H16.4923C17.6278 15.2177 18.7168 15.6687 19.5197 16.4716C20.3226 17.2745 20.7737 18.3635 20.7737 19.499C20.7737 20.6345 20.3226 21.7235 19.5197 22.5264C18.7168 23.3293 17.6278 23.7804 16.4923 23.7804ZM8.28136 15.9119C7.33 15.9119 6.41762 16.2898 5.74491 16.9626C5.0722 17.6353 4.69427 18.5477 4.69427 19.499C4.69427 20.4504 5.0722 21.3628 5.74491 22.0355C6.41762 22.7082 7.33 23.0861 8.28136 23.0861H16.4923C17.4437 23.0861 18.356 22.7082 19.0288 22.0355C19.7015 21.3628 20.0794 20.4504 20.0794 19.499C20.0794 18.5477 19.7015 17.6353 19.0288 16.9626C18.356 16.2898 17.4437 15.9119 16.4923 15.9119H8.28136Z" fill="#1F1F1F"/>
<path d="M16.4738 22.7561H8.30034C7.86926 22.7613 7.44144 22.6808 7.04168 22.5194C6.64192 22.358 6.27818 22.1188 5.97153 21.8158C5.66487 21.5128 5.42141 21.1519 5.25524 20.7541C5.08907 20.3563 5.00351 19.9295 5.00351 19.4984C5.00351 19.0672 5.08907 18.6404 5.25524 18.2426C5.42141 17.8448 5.66487 17.4839 5.97153 17.1809C6.27818 16.8779 6.64192 16.6387 7.04168 16.4773C7.44144 16.3159 7.86926 16.2354 8.30034 16.2406H16.4738C17.3311 16.2508 18.1498 16.5985 18.7524 17.2084C19.355 17.8182 19.693 18.641 19.693 19.4984C19.693 20.3557 19.355 21.1785 18.7524 21.7883C18.1498 22.3982 17.3311 22.7459 16.4738 22.7561ZM8.30034 16.7034C7.93028 16.6987 7.56295 16.7674 7.21968 16.9058C6.87641 17.0441 6.56404 17.2492 6.30066 17.5092C6.03729 17.7692 5.82817 18.0789 5.68544 18.4204C5.54272 18.7619 5.46922 19.1283 5.46922 19.4984C5.46922 19.8684 5.54272 20.2349 5.68544 20.5763C5.82817 20.9178 6.03729 21.2275 6.30066 21.4875C6.56404 21.7475 6.87641 21.9526 7.21968 22.0909C7.56295 22.2293 7.93028 22.298 8.30034 22.2933H16.4738C17.2088 22.2838 17.9105 21.9852 18.427 21.4621C18.9434 20.9389 19.233 20.2334 19.233 19.4984C19.233 18.7633 18.9434 18.0578 18.427 17.5346C17.9105 17.0115 17.2088 16.7129 16.4738 16.7034H8.30034Z" fill="#1F1F1F"/>
<path d="M8.971 22.1604C8.45045 22.1605 7.94156 22.0062 7.5087 21.717C7.07584 21.4279 6.73844 21.0169 6.5392 20.536C6.33995 20.0551 6.28779 19.5258 6.38932 19.0153C6.49086 18.5047 6.74152 18.0358 7.1096 17.6677C7.47769 17.2996 7.94666 17.0489 8.45722 16.9474C8.96777 16.8459 9.49698 16.898 9.97789 17.0973C10.4588 17.2965 10.8698 17.6339 11.159 18.0668C11.4481 18.4996 11.6024 19.0085 11.6023 19.5291C11.6016 20.2267 11.3241 20.8956 10.8308 21.3889C10.3375 21.8822 9.66864 22.1596 8.971 22.1604ZM8.971 17.3602C8.54201 17.3601 8.12263 17.4872 7.76589 17.7255C7.40916 17.9637 7.13109 18.3024 6.96686 18.6988C6.80263 19.0951 6.75961 19.5312 6.84325 19.9519C6.92688 20.3727 7.13341 20.7592 7.43672 21.0626C7.74003 21.3659 8.12649 21.5726 8.54724 21.6563C8.96798 21.74 9.40409 21.6971 9.80044 21.5329C10.1968 21.3688 10.5355 21.0908 10.7739 20.7341C11.0122 20.3774 11.1395 19.9581 11.1395 19.5291C11.1393 18.9538 10.9109 18.4022 10.5043 17.9952C10.0977 17.5883 9.54624 17.3594 8.971 17.3588V17.3602Z" fill="#1F1F1F"/>
<path d="M9.36443 20.4781C9.88919 20.2607 10.1384 19.6591 9.92102 19.1343C9.70366 18.6096 9.10205 18.3604 8.57729 18.5777C8.05252 18.7951 7.80333 19.3967 8.02069 19.9215C8.23806 20.4462 8.83967 20.6954 9.36443 20.4781Z" fill="#1F1F1F"/>
<path d="M15.7754 22.1604C15.2548 22.1605 14.7459 22.0062 14.3131 21.717C13.8802 21.4279 13.5428 21.0169 13.3435 20.536C13.1443 20.0551 13.0921 19.5258 13.1937 19.0153C13.2952 18.5047 13.5459 18.0358 13.914 17.6677C14.282 17.2996 14.751 17.0489 15.2616 16.9474C15.7721 16.8459 16.3013 16.898 16.7822 17.0973C17.2631 17.2965 17.6742 17.6339 17.9633 18.0668C18.2525 18.4996 18.4067 19.0085 18.4067 19.5291C18.4058 20.2267 18.1283 20.8955 17.635 21.3887C17.1417 21.882 16.473 22.1595 15.7754 22.1604ZM15.7754 17.3602C15.3464 17.3601 14.927 17.4872 14.5702 17.7255C14.2135 17.9637 13.9354 18.3024 13.7712 18.6988C13.607 19.0951 13.564 19.5312 13.6476 19.9519C13.7312 20.3727 13.9378 20.7592 14.2411 21.0626C14.5444 21.3659 14.9308 21.5726 15.3516 21.6563C15.7723 21.74 16.2084 21.6971 16.6048 21.5329C17.0011 21.3688 17.3399 21.0908 17.5782 20.7341C17.8166 20.3774 17.9438 19.9581 17.9438 19.5291C17.9436 18.9539 17.7151 18.4023 17.3085 17.9954C16.902 17.5885 16.3506 17.3595 15.7754 17.3588V17.3602Z" fill="#1F1F1F"/>
<path d="M16.7734 19.7597C16.9039 19.2069 16.5615 18.653 16.0087 18.5226C15.4559 18.3921 14.902 18.7344 14.7715 19.2873C14.641 19.8401 14.9834 20.394 15.5362 20.5245C16.089 20.6549 16.6429 20.3126 16.7734 19.7597Z" fill="#1F1F1F"/>
</svg>
